<svg viewBox="0 0 1250 498" version="1.1" xmlns="http://www.w3.org/2000/svg" xmlns:xlink="http://www.w3.org/1999/xlink">
    <defs>
        <path d="M134.841382,269 C60.5293583,269 0.287560383,208.782299 0.287560383,134.5 C0.287560383,60.2177012 60.5293583,0 134.841382,0 C209.153406,0 269.395203,60.2177012 269.395203,134.5 C269.395203,208.782299 209.153406,269 134.841382,269 Z M135.054022,229 C187.265815,229 229.591837,186.690909 229.591837,134.5 C229.591837,82.3090911 187.265815,40 135.054022,40 C82.842228,40 40.5162065,82.3090911 40.5162065,134.5 C40.5162065,186.690909 82.842228,229 135.054022,229 Z" id="aoc-path-1"></path>
    </defs>
    <g stroke="none" stroke-width="1" fill="none" fill-rule="evenodd">
        <g>
            <g transform="translate(130.000000, 0.000000)">
                <g transform="translate(378.203281, 114.500000)">
                    <g>
                        <use fill="#333333" fill-rule="evenodd" xlink:href="#aoc-path-1"></use>
                        <path stroke="#333333" stroke-width="0.5" d="M134.841382,268.75 C60.6674071,268.75 0.537560383,208.644205 0.537560383,134.5 C0.537560383,60.3557947 60.6674071,0.25 134.841382,0.25 C209.015357,0.25 269.145203,60.3557947 269.145203,134.5 C269.145203,208.644205 209.015357,268.75 134.841382,268.75 Z M135.054022,229.25 C187.403864,229.25 229.841837,186.829002 229.841837,134.5 C229.841837,82.1709976 187.403864,39.75 135.054022,39.75 C82.7041792,39.75 40.2662065,82.1709976 40.2662065,134.5 C40.2662065,186.829002 82.7041792,229.25 135.054022,229.25 Z"></path>
                    </g>
                </g>
                <g transform="translate(621.800720, 0.000000)">
                    <path d="M344.04917,153.700219 C319.715232,129.47449 286.156875,114.5 249.09964,114.5 C174.787616,114.5 114.545818,174.717701 114.545818,249 C114.545818,323.282299 174.787616,383.5 249.09964,383.5 C286.307016,383.5 319.987104,368.403923 344.344489,344.004867 L343.939333,343.612305 L316.096266,315.846786 C299.011696,332.931169 275.405618,343.498718 249.330369,343.498718 C197.193165,343.498718 154.92761,301.25007 154.92761,249.133721 C154.92761,197.017371 197.193165,154.768723 249.330369,154.768723 C275.196184,154.768723 298.632333,165.167199 315.683342,182.010258 L344.04917,153.700219 Z" id="Oval-4" fill="#333333"></path>
                    <g stroke="#000000" stroke-width="0.5">
                        <path d="M248.84954,0.25 L248.84954,497.75" stroke-linecap="square"></path>
                        <path d="M154.661474,0.25 L154.661474,497.75" stroke-linecap="square"></path>
                        <path d="M344.127886,0.25 L344.127886,497.75" stroke-linecap="square"></path>
                        <ellipse cx="249.09964" cy="249" rx="134.303822" ry="134.25"></ellipse>
                        <ellipse cx="249.09964" cy="249" rx="94.5378151" ry="94.5"></ellipse>
                        <ellipse cx="248.59944" cy="246.5" rx="222.589036" ry="222.5"></ellipse>
                        <path d="M0.75030012,0.25 L497.94918,497.25" stroke-linecap="square"></path>
                        <path d="M0.25010004,0.25 L497.44898,497.25" stroke-linecap="square" transform="translate(248.849540, 248.750000) scale(1, -1) translate(-248.849540, -248.750000) "></path>
                        <path d="M0.25010004,248.75 L497.94918,248.75" stroke-linecap="square"></path>
                    </g>
                </g>
                <path d="M276.50701,363.5 L34.7214817,363.5 L155.614246,154.450833 L276.50701,363.5 Z" stroke="#333333" stroke-width="40"></path>
            </g>
        </g>
    </g>
</svg>