<svg width='166' viewBox="0 0 500 500" version="1.1" xmlns="http://www.w3.org/2000/svg" xmlns:xlink="http://www.w3.org/1999/xlink">
    <defs>
        <path d="M4.88671817,68.0600239 C45.3748391,-65.3443094 353.729114,33.3485642 413.042495,67.2840839 C414.135584,110.17925 405.120101,145.721173 385.502434,167.825138 C347.266027,210.907538 281.704572,216.193397 262.944342,218.220131 C259.424101,217.423458 40.0498566,173.613885 22.7472662,155.799952 C22.7472651,155.799952 -10.8635014,129.313357 4.88671817,68.0600239 Z" id="path-1"></path>
    </defs>
    <g stroke="none" stroke-width="1" fill="none" fill-rule="evenodd">
        <g>
            <g transform="translate(40.000000, 44.000000)">
                <g>
                    <path d="M3.12830413,151.864685 C4.64590212,154.686535 35.4697799,214.96607 12.5474981,314.155487 C0.0477799682,375.503943 -4.77647105,414.284666 35.4697796,429.928243 C46.0317637,433.469969 56.666136,431.533118 60.7855276,430.823397 C84.1636983,426.795622 94.6833525,411.666466 104.26743,395.726663 C126.44936,360.615317 122.506867,316.896717 159.285675,303.613276 C230.439154,282.771012 159.620578,211.10288 262.806504,222.219704" id="Oval-1" stroke="#4e8c5d" stroke-width="24.33024" fill="#FFFFFF" stroke-linecap="round" stroke-linejoin="round"></path>
                    <g stroke-linecap="square" stroke-linejoin="round">
                        <use fill="#FFFFFF" fill-rule="evenodd" xlink:href="#path-1"></use>
                        <path stroke="#4e8c5d" stroke-width="24.33024" d="M14.6619655,164.900312 C23.8096369,173.357576 52.4954,182.454982 103.02983,195.110074 C114.370172,197.949981 126.587809,200.89233 139.564281,203.918417 C165.625791,209.995908 193.454452,216.117385 221.713944,222.08815 C237.867266,225.50108 261.251538,230.309791 260.259135,230.085198 L262.235925,230.532569 L264.250981,230.314876 C264.937668,230.24069 268.450175,229.873105 269.522136,229.758075 C272.006341,229.4915 274.228795,229.238222 276.526461,228.954271 C282.609467,228.202517 288.517785,227.317699 294.572095,226.20419 C310.603909,223.255618 325.920147,219.017129 340.42654,213.038562 C361.932144,204.175386 380.303157,192.010095 394.600948,175.900234 C416.184028,151.581765 426.391401,113.583433 425.203667,66.9741833 L425.029173,60.1266516 L419.083742,56.7250365 C402.342003,47.146429 370.188677,34.2602439 333.596004,22.7263705 C290.819342,9.24332656 245.580633,-1.38996741 203.552287,-7.13348314 C153.260468,-14.0062698 109.31933,-13.7258447 74.4208524,-4.90778427 C32.545577,5.67315604 4.17495386,28.5169618 -6.75408225,64.5270492 L-6.83002436,64.7772709 L-6.89514415,65.0305248 C-14.4723034,94.4984477 -12.3611728,119.523624 -3.1804527,139.897725 C0.115531347,147.212261 4.11153089,153.418477 8.44696942,158.552809 C10.0115216,160.405661 11.5283814,162.006531 12.9550433,163.361876 C13.6146569,163.988516 14.1883244,164.500602 14.6619655,164.900312 Z"></path>
                    </g>
                    <path d="M270.871816,201.272966 C346.174184,192.837664 399.114083,161.901507 395.630347,71.8030433" id="Path-3-Copy" stroke="#4e8c5d" stroke-width="18.24768" stroke-linecap="round" stroke-linejoin="round"></path>
                    <path d="M286.011604,123.854501 C274.808287,140.616566 259.759654,222.566361 259.759654,222.566361" id="Path-3" stroke="#4e8c5d" stroke-width="24.33024" stroke-linecap="round"></path>
                    <path d="M284.14302,128.322213 C284.14302,128.322213 313.329678,60.9943387 418.457791,60.9943387" id="Path-37" stroke="#4e8c5d" stroke-width="24.33024" stroke-linecap="round" stroke-linejoin="bevel"></path>
                    <path d="M6.13210523,37.7640026 C-6.06864775,75.5649812 249.602695,118.431575 282.181804,122.287467" id="Path-41" stroke="#4e8c5d" stroke-width="24.33024" stroke-linecap="round"></path>
                    <path d="M187.548279,213.218919 C143.203902,223.354597 159.836536,254.529033 123.815375,342.941951" id="Path-61" stroke="#4e8c5d" stroke-width="18.24768" stroke-linecap="round" stroke-linejoin="bevel" transform="translate(155.681827, 278.080435) rotate(1.000000) translate(-155.681827, -278.080435) "></path>
                </g>
            </g>
        </g>
    </g>
</svg>