<svg viewBox="0 0 400 400" version="1.1" xmlns="http://www.w3.org/2000/svg" xmlns:xlink="http://www.w3.org/1999/xlink">
    <g id="Page-2" stroke="none" stroke-width="1" fill="none" fill-rule="evenodd">
        <g id="Artboard-3">
            <g id="Group-2">
                <g id="Logo-follow-up-Copy" transform="translate(75.000000, 72.000000)">
                    <g id="upper-part">
                        <g id="White-arrow" transform="translate(125.000000, 93.500000) rotate(-90.000000) translate(-125.000000, -93.500000) translate(31.500000, -31.500000)" fill="#fff">
                            <path d="M0.838721481,67.9675016 L0.838721481,181.462891 L62.8174141,187.945312 L62.8174141,230.056773 C62.8174141,253.931641 82.796875,252.229492 88.8476563,246 C94.8984375,239.770508 181.643369,137.859929 181.643369,137.859929 C187.464469,131.25447 187.52991,120.497388 181.754578,113.80317 C181.754578,113.80317 97.8996582,14.9487305 88.8476562,5.24511719 C79.7956543,-4.45849609 62.8174141,-0.613938894 62.8174141,16.8132324 L62.8174141,59.6386719 L0.838721481,67.9675016 Z" id="Combined-Shape"></path>
                        </g>
                        <path d="M95,154 L86.8608398,93 L160.929199,93 L153,154 L95,154 Z M55,93 L126,38.3777778 L196,93 L55,93 Z" id="green-arrow" fill="#44af62"></path>
                    </g>
                    <path d="M2,155 L249,155 L239.958343,234.079972 C239.205643,240.663222 233.226055,246 226.591395,246 L26.3556032,246 C18.6219244,246 11.6450416,239.781017 10.7689419,232.080001 L2,155 Z M32,155 L41,215 L211,215 L219,155 L32,155 Z" id="lower-part" fill="#fff"></path>
                </g>
            </g>
        </g>
    </g>
</svg>