<svg width="134" viewBox="0 0 61 69" xmlns="http://www.w3.org/2000/svg" fill="#fff">
  <path d="M56.4125,16.6 L43.9125,3.8 C42.3125,2.4 40.5125,1.7 38.3125,1.7 L20.8125,1.7 C21.9125,2.5 26.0125,6.8 33.1125,14.5 C34.7125,15.9 36.6125,16.6 38.7125,16.6 L56.4125,16.6 Z M3.4125,27.7 L7.8125,39.9 C8.3125,41.5 9.5125,42.4 11.3125,42.5 L45.5125,42.5 L42.5125,33.9 C41.5125,31.3 40.5125,29.6 39.4125,28.7 C38.6125,28.1 37.5125,27.8 36.0125,27.8 C14.5125,27.8 3.7125,27.8 3.4125,27.7 Z M13.0125,26.1 L13.0125,12 C6.7125,16.2 3.2125,18.9 2.5125,20.1 C1.8125,21.2 1.7125,22.4 2.0125,23.6 C2.4125,25.2 3.6125,26 5.6125,26.1 L13.0125,26.1 Z M60.4125,18.2 L38.7125,18.2 C35.7125,18.2 33.2125,17.2 31.3125,15.1 L31.3125,26.1 L36.0125,26.1 C38.0125,26.1 39.6125,26.6 40.7125,27.6 C42.0125,28.6 43.1125,30.6 44.1125,33.3 L48.0125,44.1 L31.3125,44.1 L31.3125,69 L28.3125,69 C24.4125,68.7 21.2125,67.7 18.7125,66 C14.9125,63.4 13.0125,59.3 13.0125,53.7 L13.0125,44.1 L11.3125,44.1 C8.7125,44 6.9125,42.8 6.1125,40.4 C2.1125,29.4 0.1125,23.6 0.0125,23 C-0.0875,21.1 0.4125,19.5 1.5125,18.3 C2.7125,17 5.3125,15 9.2125,12.5 C10.8125,11.4 13.0125,11.1 13.0125,9.9 C12.9125,6.1 13.0125,4.2 12.9125,4.2 C12.9125,3 13.2125,2 13.8125,1.3 C14.4125,0.4 15.3125,0 16.4125,0 L38.3125,0 C41.0125,0 43.2125,0.8 45.2125,2.6 L60.4125,18.2 Z" />
</svg>