<svg width='194' viewBox="0 0 2047 2047" version="1.1" xmlns="http://www.w3.org/2000/svg" xmlns:xlink="http://www.w3.org/1999/xlink">
    <defs>
        <path d="M822.197737,283.879299 C874.347577,316.838176 1152.26944,436.033599 1166.99533,444.326268 C1181.72122,452.618938 1866.05383,680.811336 1764.18991,705.060173 C1344.83921,661.062918 1118.29332,728.113881 888.528555,845.967138 C658.763787,963.820395 584.212743,1071.50905 112.51411,1025.46465 C-43.4950606,705.060147 64.0949964,436.309279 191.669488,399.033124 C195.389397,393.490067 123.123767,337.969987 110.960475,267.061982 C385.117468,-282.720904 964.132796,183.869438 1142.18626,203.847129 C1126.31565,251.676947 886.420262,288.482221 822.197737,283.879299 Z" id="loco-path-1"></path>
    </defs>
    <g stroke="none" stroke-width="1" fill="none" fill-rule="evenodd">
        <g id="SVG">
            <g transform="translate(0.000000, 63.000000)">
                <path d="M234.039904,952.307105 L139.671463,942.388582 C90.0180183,974.815511 43.6065166,1010.15685 0.955472302,1048.46994 L129.298731,1061.95936 C164.721989,1032.2723 202.555227,1003.80767 242.481888,976.655466 L234.039904,952.307105 Z M272.874372,956.388772 L273.022377,956.404328 C271.509141,957.382818 269.998626,958.363148 268.490876,959.345296 L272.874372,956.388772 Z M754.893676,707.129523 L796.041699,721.297924 C738.188638,738.512256 681.392456,757.828961 626.100687,779.120815 L556.80767,755.261316 C620.947396,736.314198 687.16312,720.291036 754.893676,707.129523 Z M1880.7219,761.113428 L1901.30556,803.316199 C1871.11547,802.066581 1841.39749,802.024361 1812.18143,803.078407 L1788.96706,755.481905 C1819.4114,756.070745 1849.97613,757.950217 1880.7219,761.113428 Z M1703.44543,757.244497 L1748.38379,807.153604 C1711.60866,810.526603 1675.70831,815.593254 1640.74705,822.113776 L1593.52931,769.673162 C1630.14683,763.616019 1666.74953,759.477224 1703.44543,757.244497 Z M1498.41396,789.702824 L1571.50525,837.168859 C1528.22467,847.925115 1486.56737,860.817332 1446.66995,875.336179 L1374.52879,828.487179 C1416.06053,813.130463 1457.30507,800.208086 1498.41396,789.702824 Z M2025.97058,785.219428 L2031.98333,816.152327 C2007.36149,812.331701 1983.00297,809.346558 1958.92205,807.143643 L1951.82976,770.656964 C1976.39103,774.712775 2001.09461,779.568059 2025.97049,785.219407 Z M990.493385,1031.81357 L1125.02657,1045.95358 C1073.99036,1082.6898 1030.56765,1119.47592 995.642432,1153.01578 L844.274881,1137.10638 C893.989871,1099.13624 942.667143,1064.04568 990.493541,1031.81347 Z M1254.57339,879.183047 L1353.73861,913.328368 C1305.898,935.078361 1261.18818,958.864733 1219.9051,983.584078 L1121.28418,949.626165 C1166.29471,923.481647 1210.66764,900.007066 1254.57339,879.183047 Z" id="Combined-Shape" fill="#CA0707"></path>
                <g transform="translate(1122.093937, 534.549840) rotate(-1.000000) translate(-1122.093937, -534.549840) translate(234.593937, 16.049840)">
                    <g opacity="0.98999995">
                        <use fill="#CC0000" fill-rule="evenodd" xlink:href="#loco-path-1"></use>
                        <path stroke="#FFFFFF" stroke-width="30.79296" d="M1742.70353,687.417084 C1550.07114,668.756091 1392.32171,673.292449 1252.40996,699.690169 C1124.53957,723.815996 1011.99329,765.33463 881.501696,832.267691 C853.250973,846.758336 827.354536,860.981817 791.726189,881.26149 C787.263515,883.801646 759.166237,899.854116 751.171536,904.391332 C736.015109,912.993028 723.773217,919.819001 712.01675,926.185403 C633.489911,968.709528 570.91534,992.638062 490.218846,1007.03125 C395.604248,1023.90691 278.675857,1025.73375 122.62836,1010.96942 C54.991646,868.476162 36.1205323,727.618966 60.8199401,609.219954 C82.388362,505.829627 136.212405,431.277464 195.987647,413.811659 L201.344228,412.246513 L204.453953,407.612695 C206.977524,403.852308 207.605052,399.737278 206.995592,395.873039 C206.664055,393.770953 206.012759,391.9699 205.133563,390.225213 C204.152369,388.278124 202.902567,386.452444 201.245463,384.351008 C199.136213,381.676189 196.773629,379.01246 191.345142,373.07169 C177.448871,357.864039 171.134513,350.625109 162.747878,339.668264 C144.435949,315.744368 132.072333,292.442014 127.072286,269.293004 C181.54555,161.895915 249.772328,91.1140384 330.790464,52.2201049 C403.082926,17.5150578 485.217788,8.25716879 577.870849,20.8765268 C626.873059,27.5506336 678.338161,40.261587 733.465358,58.6151479 C779.399686,73.9081165 826.286242,92.4939581 880.9263,116.413265 C906.231553,127.490927 1005.93316,172.878551 1029.05187,182.828299 C1062.45904,197.205955 1088.65428,207.118594 1110.29187,213.059773 C1104.38342,216.297249 1097.21309,219.579784 1088.89504,222.847009 C1065.43537,232.061669 1033.70477,240.831383 997.178759,248.453688 C930.771376,262.311684 854.92132,270.788672 823.298402,268.522212 L762.144739,264.13924 L813.972176,296.894358 C835.067362,310.226587 889.467978,336.356679 972.961805,374.160936 C976.707604,375.856955 980.509717,377.575381 984.370726,379.317468 C1017.91798,394.453985 1032.55682,400.973341 1101.19798,431.446756 C1140.4479,448.871858 1156.6816,456.188154 1159.44056,457.741819 C1162.26278,459.33111 1169.93194,462.170518 1191.25559,469.768686 C1202.4654,473.763029 1257.20723,493.111648 1260.55434,494.297008 C1339.35421,522.203577 1402.4969,545.002099 1465.23766,568.509371 C1484.8622,575.862155 1503.7231,583.021185 1521.79904,589.984874 C1606.9309,622.781612 1672.5847,650.435638 1714.47736,671.766449 C1725.84041,677.552258 1735.30952,682.815907 1742.70353,687.417084 Z M1762.18523,689.981289 C1762.42427,689.7625 1762.65291,689.584115 1762.86552,689.441699 C1762.8865,689.427647 1762.90732,689.413946 1762.92798,689.40059 C1763.01384,689.345087 1763.06115,689.318397 1763.06923,689.314401 C1763.00885,689.344287 1762.91668,689.385071 1762.79326,689.43419 C1762.76926,689.443741 1762.74408,689.453606 1762.71773,689.463768 C1762.21121,689.659065 1761.50988,689.871442 1760.6244,690.082233 L1762.18523,689.981289 L1762.18523,689.981289 L1765.79646,689.74774 C1764.81859,689.645144 1763.84161,689.543131 1762.86552,689.441699 C1762.84143,689.439196 1762.81734,689.436693 1762.79326,689.43419 C1756.05458,688.7341 1749.35824,688.06175 1742.70353,687.417084 C1750.02587,691.97367 1755.31314,695.880562 1758.38934,699.00149 C1758.94829,699.568559 1759.37471,700.054201 1759.66644,700.43787 C1759.76078,700.561946 1759.82705,700.656975 1759.86615,700.718929 C1759.86234,700.712887 1759.83877,700.670924 1759.79835,700.588224 C1759.57477,700.130718 1759.36488,699.496154 1759.23653,698.66656 C1759.0417,697.407249 1759.10124,696.013885 1759.47447,694.609346 C1759.85492,693.177666 1760.51817,691.90117 1761.35203,690.87319 C1761.63753,690.521215 1761.91789,690.225983 1762.18523,689.981289 L1762.18523,689.981289 Z"></path>
                        <path stroke="#C50000" stroke-width="24.3544315" d="M868.679876,294.968339 C907.167638,292.049006 957.078684,284.989521 1002.81154,275.445918 C1040.72945,267.533149 1073.86479,258.375195 1098.97587,248.511877 C1129.58558,236.488768 1148.43568,223.679461 1153.74383,207.682096 L1158.4758,193.4212 L1143.54403,191.745847 C1120.32149,189.140265 1088.17513,178.25463 1039.9523,157.500656 C1017.16221,147.692339 917.566225,102.352801 891.983898,91.1538463 C836.637246,66.9252197 789.013125,48.0470072 742.175456,32.4532885 C685.524525,13.5924292 632.431615,0.479436581 581.592034,-6.44492053 C483.937567,-19.7454705 396.442073,-9.88335397 318.857165,27.3624082 C230.865523,69.6040749 157.532576,146.380799 100.063025,261.627815 L98.2849046,265.193583 L98.9585553,269.120746 C104.078799,298.970089 118.7893,327.603569 140.852089,356.427831 C149.876133,368.217429 156.568126,375.88929 170.989717,391.671835 C171.454654,392.180647 171.894927,392.663107 172.312335,393.121286 C108.376393,420.850718 55.5026703,499.686144 33.8273326,603.588982 C7.40206787,730.261058 28.283559,880.29189 101.565769,1030.79554 L104.548934,1036.92223 L111.331066,1037.58426 C274.026714,1053.46564 395.950887,1051.85394 495.060535,1034.17654 C578.961365,1019.21182 644.214531,994.258991 725.146952,950.432186 C737.087296,943.96621 749.47901,937.056698 764.781346,928.372195 C772.817862,923.811247 800.936199,907.746746 805.366304,905.225129 C840.676753,885.126403 866.257529,871.076297 894.086161,856.802155 C1022.37799,790.997421 1132.49361,750.375461 1257.5222,726.785808 C1400.17131,699.87162 1562.262,696.118442 1762.91928,717.170915 L1764.98718,717.387875 L1767.00991,716.906361 C1776.95586,714.538717 1783.90252,710.048047 1786.12331,701.690881 C1788.26932,693.615129 1784.80046,686.516987 1778.02707,679.64514 C1769.13728,670.626121 1752.13643,659.999278 1726.98877,647.194651 C1684.03213,625.322083 1617.67005,597.369725 1531.71156,564.25453 C1513.55333,557.259139 1494.61345,550.07013 1474.91203,542.688541 C1411.98396,519.111089 1348.70285,496.262589 1269.75924,468.305114 C1266.37988,467.108331 1211.68162,447.775115 1200.51081,443.794666 C1191.41411,440.553277 1184.81313,438.172093 1180.12702,436.437122 C1177.66423,435.525304 1175.74554,434.797369 1174.37144,434.253621 C1173.40537,433.87134 1172.72716,433.578769 1172.97047,433.715787 C1168.95634,431.455289 1154.71177,425.035466 1112.38637,406.244996 C1043.80518,375.798207 1029.18628,369.287731 995.711069,354.18372 C991.860891,352.44652 988.069752,350.733053 984.335097,349.04208 C935.394127,326.882634 896.347207,308.670124 868.679876,294.968339 Z"></path>
                    </g>
                    <path d="M211.320136,398.781949 C280.497114,458.651694 476.767383,400.751913 634.752854,382.739046 C690.867085,376.341127 745.03462,382.097586 783.570521,404.781036 C796.167468,411.589457 819.462259,421.171577 819.462259,451.809477 C424.775494,256.95731 530.877121,1034.24593 122.911191,1012.01938 C615.420818,1063.91244 495.366198,470.319597 843.085699,456.581515 C854.460815,456.581513 1000.44731,436.593098 1162.43827,461.755477" id="Path-9" stroke="#FFFFFF" stroke-width="30.79296" stroke-linecap="round" stroke-linejoin="round"></path>
                    <path d="M132.7894,260.495651 C160.241948,223.541438 220.689277,123.760269 630.919494,308.696293 C755.7613,129.703032 976.489535,294.027645 1092.01535,214.098084" id="Path-5" stroke="#FFFFFF" stroke-width="32.752512" stroke-linecap="round" stroke-linejoin="round"></path>
                    <path d="M519.59458,15.2104843 C349.009848,19.5335649 267.742614,132.239658 320.944742,386.893926 C246.991381,406.138242 111.39205,573.504019 136.284157,1011.94725" id="Path-6" stroke="#FFFFFF" stroke-width="30.233088" stroke-linecap="round" stroke-linejoin="round"></path>
                    <g transform="translate(277.941523, 309.995126) scale(-1, 1) translate(-277.941523, -309.995126) translate(0.441523, 31.995126)">
                        <ellipse id="Oval-2" cx="244.196433" cy="281.198658" rx="79.0191216" ry="85.8518828"></ellipse>
                        <ellipse id="Oval-2-Copy" stroke="#AF2D2B" stroke-width="20.2032611" fill="#BC3330" cx="261.718278" cy="281.198658" rx="79.0191216" ry="85.8518828"></ellipse>
                        <ellipse id="Oval-2-Copy-2" fill="#FFFFFF" cx="266.582628" cy="281.198658" rx="79.0191216" ry="85.8518828"></ellipse>
                        <polygon id="Star-1" fill="#FFFFFF" transform="translate(261.300461, 281.442851) rotate(-2.000000) translate(-261.300461, -281.442851) " points="261.300461 292.978111 128.734387 401.751994 248.590003 281.442851 128.734387 161.133707 261.300461 269.90759 393.866534 161.133707 274.010918 281.442851 393.866534 401.751994"></polygon>
                        <polygon id="Star-1-Copy" fill="#FFFFFF" opacity="0.786089086" transform="translate(278.445944, 278.004551) rotate(-45.000000) translate(-278.445944, -278.004551) " points="278.445944 301.174064 77.9035487 469.361729 254.164286 278.004551 77.9035487 86.6473736 278.445944 254.835038 478.98834 86.6473736 302.727603 278.004551 478.98834 469.361729"></polygon>
                    </g>
                </g>
                <text font-family="Phosphate-Solid, Phosphate" font-size="800" font-weight="normal" fill="#FFFFFF">
                    <tspan x="19" y="1816">loco</tspan>
                </text>
                <text font-family="Phosphate-Inline, Phosphate" font-size="800" font-weight="normal" fill="#CC0000">
                    <tspan x="19" y="1816">loco</tspan>
                </text>
            </g>
        </g>
    </g>
</svg>