<svg xmlns="http://www.w3.org/2000/svg"><defs><font id="ElegantIcons" horiz-adv-x="512"><font-face units-per-em="512" ascent="480" descent="-32"/><glyph class="hidden" unicode="" d="M0 480L512-32H0z" horiz-adv-x="0"/><glyph unicode="!" d="M272 32c8.832 0 16 7.168 16 16v313.376l68.672-68.672c6.24-6.24 16.384-6.24 22.624 0 6.24 6.24 6.24 16.384 0 22.624l-96 96a15.744 15.744 0 01-5.184 3.424 15.872 15.872 0 01-12.224 0c-1.92-.768-3.616-1.92-5.088-3.36-.032-.032-.064-.032-.128-.064l-96-96c-6.24-6.24-6.24-16.384 0-22.624 6.24-6.24 16.384-6.24 22.624 0L256 361.376V48c0-8.832 7.168-16 16-16z"/><glyph unicode="&quot;" d="M272 416c-8.832 0-16-7.168-16-16V86.624l-68.672 68.672c-6.24 6.24-16.384 6.24-22.624 0-6.24-6.24-6.24-16.384 0-22.624l96-96c.032-.032.096-.032.128-.096 1.44-1.408 3.168-2.592 5.056-3.36a15.872 15.872 0 0112.224 0c1.952.8 3.712 1.984 5.184 3.456l96 96c6.24 6.24 6.24 16.384 0 22.624-6.24 6.24-16.384 6.24-22.624 0L288 86.624V400c0 8.832-7.168 16-16 16z"/><glyph unicode="#" d="M64 239.936c0-2.048.448-4.096 1.248-6.048.768-1.888 1.92-3.584 3.328-5.024l.096-.192 96-96c6.24-6.24 16.384-6.24 22.624 0 6.24 6.24 6.24 16.384 0 22.624L118.624 224H432c8.832 0 16 7.168 16 16s-7.168 16-16 16H118.624l68.672 68.672c6.24 6.24 6.24 16.384 0 22.624-6.24 6.24-16.384 6.24-22.624 0l-96-96c-.032-.032-.064-.128-.096-.16-1.408-1.44-2.56-3.136-3.328-5.024A15.585 15.585 0 0164 240v-.064z"/><glyph unicode="$" d="M64 240c0-8.832 7.168-16 16-16h313.376l-68.672-68.672c-6.24-6.24-6.24-16.384 0-22.624 6.24-6.24 16.384-6.24 22.624 0l96 96a15.831 15.831 0 013.456 5.184c.768 1.952 1.216 4 1.216 6.048V240c0 2.08-.416 4.16-1.248 6.112a15.831 15.831 0 01-3.456 5.184l-96 96c-6.24 6.24-16.384 6.24-22.624 0-6.24-6.24-6.24-16.384 0-22.624L393.376 256H80c-8.832 0-16-7.168-16-16z"/><glyph unicode="%" d="M64 240c0-8.832 7.168-16 16-16s16 7.168 16 16v121.376L420.672 36.704c6.24-6.24 16.384-6.24 22.624 0 6.24 6.24 6.24 16.384 0 22.624L118.624 384H240c8.832 0 16 7.168 16 16s-7.168 16-16 16H80c-2.08 0-4.16-.416-6.112-1.248-1.92-.768-3.616-1.92-5.088-3.36-.032-.032-.064-.032-.128-.064-.032-.064-.064-.16-.096-.192-1.408-1.44-2.56-3.136-3.328-5.024A15.585 15.585 0 0164 400V240z"/><glyph unicode="&amp;" d="M68.672 36.672c6.24-6.24 16.384-6.24 22.624 0L416 361.376V240c0-8.832 7.168-16 16-16s16 7.168 16 16v160c0 2.08-.416 4.16-1.248 6.112-1.632 3.904-4.736 7.04-8.64 8.64A15.585 15.585 0 01432 416H272c-8.832 0-16-7.168-16-16s7.168-16 16-16h121.376L68.672 59.328c-6.24-6.272-6.24-16.384 0-22.656z"/><glyph unicode="'" d="M432 224c-8.832 0-16-7.168-16-16V86.624L91.328 411.328c-6.24 6.24-16.384 6.24-22.624 0-6.24-6.24-6.24-16.384 0-22.624L393.376 64H272c-8.832 0-16-7.168-16-16s7.168-16 16-16h160c2.08 0 4.16.416 6.112 1.248 3.904 1.632 7.04 4.736 8.64 8.64.8 1.952 1.248 4 1.248 6.048V208c0 8.832-7.168 16-16 16z"/><glyph unicode="(" d="M80 224c-8.832 0-16-7.168-16-16V47.936c0-2.08.416-4.128 1.216-6.048.768-1.888 1.92-3.584 3.328-5.024.064-.064.064-.128.128-.192.032-.032.096-.032.128-.096 1.44-1.408 3.168-2.592 5.056-3.36A16.425 16.425 0 0180 32h160c8.832 0 16 7.168 16 16s-7.168 16-16 16H118.624l324.704 324.672c6.24 6.24 6.24 16.384 0 22.624-6.24 6.24-16.384 6.24-22.624 0L96 86.624V208c0 8.832-7.168 16-16 16z"/><glyph unicode=")" d="M324.672 388.672c6.24-6.24 16.384-6.24 22.624 0 6.24 6.24 6.24 16.384 0 22.624l-64 64c-1.472 1.504-3.232 2.656-5.184 3.456a15.872 15.872 0 01-12.224 0c-1.92-.768-3.616-1.92-5.088-3.36-.032-.032-.064-.032-.128-.064l-64-64c-6.24-6.24-6.24-16.384 0-22.624 6.24-6.24 16.384-6.24 22.624 0L256 425.376V22.624l-36.672 36.672c-6.24 6.24-16.384 6.24-22.624 0-6.24-6.24-6.24-16.384 0-22.624l64-64c.032-.032.096-.032.128-.096 1.44-1.408 3.168-2.592 5.056-3.36a15.872 15.872 0 0112.224 0c1.952.8 3.712 1.984 5.184 3.456l64 64c6.24 6.24 6.24 16.384 0 22.624-6.24 6.24-16.384 6.24-22.624 0L288 22.624v402.752l36.672-36.704z"/><glyph unicode="*" d="M292.48-27.488a15.876 15.876 0 0111.36-4.672c4.128 0 8.224 1.536 11.36 4.672l61.632 61.632c6.24 6.24 6.24 16.384 0 22.624s-16.384 6.24-22.624 0L320 22.56v281.28c0 8.832-7.168 16-16 16s-16-7.168-16-16V22.24l-36.864 36.864c-6.24 6.24-16.384 6.24-22.624 0-6.24-6.24-6.24-16.384 0-22.624l63.968-63.968zM208 127.84c8.832 0 16 7.168 16 16v281.6l36.864-36.864c6.24-6.24 16.384-6.24 22.624 0 6.24 6.24 6.24 16.384 0 22.624l-63.968 63.968c-3.136 3.136-7.232 4.672-11.36 4.672-4.128 0-8.224-1.536-11.36-4.672l-61.632-61.632c-6.24-6.24-6.24-16.384 0-22.624 6.24-6.24 16.384-6.24 22.624 0L192 425.12V143.84c0-8.832 7.168-16 16-16z"/><glyph unicode="+" d="M88.928 103.008c6.24 6.24 6.24 16.384 0 22.624L54.56 160H336c8.832 0 16 7.168 16 16s-7.168 16-16 16H54.56l36.704 36.704c6.24 6.24 6.24 16.384 0 22.624-6.24 6.24-16.384 6.24-22.624 0L4.672 187.36C1.536 184.224 0 180.128 0 176c0-4.128 1.536-8.224 4.672-11.36l61.632-61.632c6.272-6.272 16.384-6.272 22.624 0zm418.4 180.032l-61.632 61.632c-6.24 6.24-16.384 6.24-22.624 0s-6.24-16.384 0-22.624l34.368-34.368H176c-8.832 0-16-7.168-16-16s7.168-16 16-16h281.44l-36.704-36.704c-6.24-6.24-6.24-16.384 0-22.624 6.24-6.24 16.384-6.24 22.624 0l63.968 63.968c3.136 3.136 4.672 7.232 4.672 11.36 0 4.128-1.536 8.224-4.672 11.36z"/><glyph unicode="," d="M510.752 214.112a15.831 15.831 0 01-3.456 5.184l-64 64c-6.24 6.24-16.384 6.24-22.624 0-6.24-6.24-6.24-16.384 0-22.624L457.376 224H54.624l36.672 36.672c6.24 6.24 6.24 16.384 0 22.624-6.24 6.24-16.384 6.24-22.624 0l-64-64c-.032-.032-.064-.128-.096-.16-1.408-1.44-2.56-3.136-3.328-5.024A15.585 15.585 0 010 208v-.064c0-2.048.448-4.096 1.248-6.048.768-1.888 1.92-3.584 3.328-5.024l.096-.192 64-64c6.24-6.24 16.384-6.24 22.624 0 6.24 6.24 6.24 16.384 0 22.624L54.624 192h402.752l-36.672-36.672c-6.24-6.24-6.24-16.384 0-22.624 6.24-6.24 16.384-6.24 22.624 0l64 64a15.831 15.831 0 013.456 5.184c.768 1.952 1.216 4 1.216 6.048V208c0 2.08-.416 4.16-1.248 6.112z"/><glyph unicode="-" d="M64 240c0-8.832 7.168-16 16-16s16 7.168 16 16v121.376L393.376 64H272c-8.832 0-16-7.168-16-16s7.168-16 16-16h160c2.08 0 4.16.416 6.112 1.248 3.904 1.632 7.04 4.736 8.64 8.64.8 1.952 1.248 4 1.248 6.048V208c0 8.832-7.168 16-16 16s-16-7.168-16-16V86.624L118.624 384H240c8.832 0 16 7.168 16 16s-7.168 16-16 16H80c-2.08 0-4.16-.416-6.112-1.248-1.92-.768-3.616-1.92-5.088-3.36-.032-.032-.064-.032-.128-.064-.032-.064-.064-.16-.096-.192-1.408-1.44-2.56-3.136-3.328-5.024A15.585 15.585 0 0164 400V240z"/><glyph unicode="." d="M80 224c-8.832 0-16-7.168-16-16V47.936c0-2.08.416-4.128 1.216-6.048.768-1.888 1.92-3.584 3.328-5.024.064-.064.064-.128.128-.192.032-.032.096-.032.128-.096 1.44-1.408 3.168-2.592 5.056-3.36A16.425 16.425 0 0180 32h160c8.832 0 16 7.168 16 16s-7.168 16-16 16H118.624L416 361.376V240c0-8.832 7.168-16 16-16s16 7.168 16 16v160c0 2.08-.416 4.16-1.248 6.112-1.632 3.904-4.736 7.04-8.64 8.64A15.585 15.585 0 01432 416H272c-8.832 0-16-7.168-16-16s7.168-16 16-16h121.376L96 86.624V208c0 8.832-7.168 16-16 16z"/><glyph unicode="/" d="M475.328 443.328c-6.24 6.24-16.384 6.24-22.624 0L320 310.624V400c0 8.832-7.168 16-16 16s-16-7.168-16-16V271.936c0-2.048.448-4.096 1.248-6.048.768-1.888 1.92-3.584 3.328-5.024l.096-.192c.064-.032.096-.032.128-.064 1.44-1.408 3.168-2.592 5.056-3.36A15.857 15.857 0 01304 256h128c8.832 0 16 7.168 16 16s-7.168 16-16 16h-89.376l132.672 132.672c6.272 6.272 6.272 16.384.032 22.656zM36.672 4.672c6.24-6.24 16.384-6.24 22.624 0L192 137.376V48c0-8.832 7.168-16 16-16s16 7.168 16 16v128c0 2.08-.416 4.16-1.248 6.112-1.632 3.904-4.736 7.04-8.64 8.64A15.585 15.585 0 01208 192H80c-8.832 0-16-7.168-16-16s7.168-16 16-16h89.376L36.704 27.328c-6.272-6.272-6.272-16.384-.032-22.656z"/><glyph unicode="0" d="M478.752 438.112c-1.632 3.904-4.736 7.04-8.64 8.64A15.585 15.585 0 01464 448H336c-8.832 0-16-7.168-16-16s7.168-16 16-16h89.376L292.672 283.328c-6.24-6.24-6.24-16.384 0-22.624 6.24-6.24 16.384-6.24 22.624 0L448 393.376V304c0-8.832 7.168-16 16-16s16 7.168 16 16v128c0 2.08-.416 4.16-1.248 6.112zM48 160c-8.832 0-16-7.168-16-16V15.936c0-2.08.416-4.128 1.216-6.048.768-1.888 1.92-3.584 3.328-5.024.064-.064.064-.128.128-.192.032-.032.096-.032.128-.096 1.44-1.408 3.168-2.592 5.056-3.36A16.425 16.425 0 0148 0h128c8.832 0 16 7.168 16 16s-7.168 16-16 16H86.624l132.672 132.672c6.24 6.24 6.24 16.384 0 22.624-6.24 6.24-16.384 6.24-22.624 0L64 54.624V144c0 8.832-7.168 16-16 16z"/><glyph unicode="1" d="M510.752 214.112a15.831 15.831 0 01-3.456 5.184l-64 64c-6.24 6.24-16.384 6.24-22.624 0-6.24-6.24-6.24-16.384 0-22.624L457.376 224H288v169.376l36.672-36.672c6.24-6.24 16.384-6.24 22.624 0 6.24 6.24 6.24 16.384 0 22.624l-64 64c-.032.032-.128.064-.16.096-1.44 1.408-3.136 2.56-5.024 3.328A15.585 15.585 0 01272 448h-.064c-2.048 0-4.096-.448-6.048-1.248-1.888-.768-3.584-1.92-5.024-3.328l-.192-.096-64-64c-6.24-6.24-6.24-16.384 0-22.624 6.24-6.24 16.384-6.24 22.624 0L256 393.376V224H86.624l36.672 36.672c6.24 6.24 6.24 16.384 0 22.624-6.24 6.24-16.384 6.24-22.624 0l-64-64c-.032-.032-.064-.128-.096-.16-1.408-1.44-2.56-3.136-3.328-5.024A15.585 15.585 0 0132 208v-.064c0-2.048.448-4.096 1.248-6.048.768-1.888 1.92-3.584 3.328-5.024l.096-.192 64-64c6.24-6.24 16.384-6.24 22.624 0 6.24 6.24 6.24 16.384 0 22.624L86.624 192H256V22.624l-36.672 36.672c-6.24 6.24-16.384 6.24-22.624 0-6.24-6.24-6.24-16.384 0-22.624l64-64a15.831 15.831 0 015.184-3.456c1.952-.768 4-1.216 6.048-1.216H272c2.08 0 4.16.416 6.112 1.248 1.952.8 3.712 1.984 5.184 3.456l64 64c6.24 6.24 6.24 16.384 0 22.624-6.24 6.24-16.384 6.24-22.624 0L288 22.624V192h169.376l-36.672-36.672c-6.24-6.24-6.24-16.384 0-22.624 6.24-6.24 16.384-6.24 22.624 0l64 64a15.831 15.831 0 013.456 5.184c.768 1.952 1.216 4 1.216 6.048V208c0 2.08-.416 4.16-1.248 6.112z"/><glyph unicode="2" d="M179.488 156.8L272 249.312l92.512-92.512c6.24-6.24 16.384-6.24 22.624 0 6.24 6.24 6.24 16.384 0 22.624L283.36 283.2c-3.136 3.136-7.232 4.672-11.36 4.672-4.128 0-8.224-1.536-11.36-4.672L156.864 179.424c-6.24-6.24-6.24-16.384 0-22.624 6.24-6.24 16.384-6.24 22.624 0z"/><glyph unicode="3" d="M364.512 259.2L272 166.688 179.488 259.2c-6.24 6.24-16.384 6.24-22.624 0-6.24-6.24-6.24-16.384 0-22.624L260.64 132.8a15.876 15.876 0 0111.36-4.672c4.128 0 8.224 1.536 11.36 4.672l103.776 103.776c6.24 6.24 6.24 16.384 0 22.624-6.24 6.24-16.384 6.24-22.624 0z"/><glyph unicode="4" d="M196.8 196.64L300.576 92.864c6.24-6.24 16.384-6.24 22.624 0 6.24 6.24 6.24 16.384 0 22.624L230.688 208l92.512 92.512c6.24 6.24 6.24 16.384 0 22.624-6.24 6.24-16.384 6.24-22.624 0L196.8 219.36c-3.136-3.136-4.672-7.232-4.672-11.36 0-4.128 1.536-8.224 4.672-11.36z"/><glyph unicode="5" d="M220.8 92.864c6.24-6.24 16.384-6.24 22.624 0L347.2 196.64a15.876 15.876 0 014.672 11.36c0 4.128-1.536 8.224-4.672 11.36L243.424 323.136c-6.24 6.24-16.384 6.24-22.624 0-6.24-6.24-6.24-16.384 0-22.624L313.312 208 220.8 115.488c-6.24-6.24-6.24-16.384 0-22.624z"/><glyph unicode="6" d="M375.232 252.608l-107.04 94.688c-3.2 3.2-7.392 4.736-11.584 4.672-4.224.064-8.416-1.472-11.616-4.672l-107.04-94.688c-6.272-6.272-6.272-16.48 0-22.752 6.272-6.272 16.48-6.272 22.752 0l95.872 84.832 95.872-84.832c6.272-6.272 16.48-6.272 22.752 0 6.336 6.272 6.336 16.448.032 22.752zm-107.04-20.064c-3.2 3.2-7.392 4.736-11.584 4.672-4.224.064-8.416-1.472-11.616-4.672l-107.04-94.688c-6.272-6.272-6.272-16.48 0-22.752 6.272-6.272 16.48-6.272 22.752 0l95.872 84.8 95.872-84.8c6.272-6.272 16.48-6.272 22.752 0 6.272 6.272 6.272 16.48 0 22.752l-107.008 94.688z"/><glyph unicode="7" d="M351.296 218.176l-95.872-84.8-95.872 84.8c-6.272 6.272-16.48 6.272-22.752 0-6.272-6.272-6.272-16.48 0-22.752l107.04-94.688c3.2-3.2 7.392-4.736 11.584-4.672 4.192-.064 8.384 1.44 11.584 4.64l107.04 94.688c6.272 6.272 6.272 16.48 0 22.752s-16.48 6.304-22.752.032zm22.752 114.752c-6.272 6.272-16.48 6.272-22.752 0l-95.872-84.8-95.872 84.8c-6.304 6.272-16.512 6.272-22.784 0-6.272-6.272-6.272-16.48 0-22.752l107.04-94.688c3.2-3.2 7.392-4.736 11.584-4.672 4.192-.064 8.416 1.472 11.584 4.672l107.04 94.688c6.336 6.272 6.336 16.448.032 22.752z"/><glyph unicode="8" d="M132.704 212.992l94.688-107.04c6.272-6.272 16.48-6.272 22.752 0s6.272 16.48 0 22.752l-84.8 95.872 84.8 95.872c6.272 6.272 6.272 16.48 0 22.752s-16.48 6.272-22.752 0l-94.688-107.008c-3.2-3.2-4.704-7.392-4.672-11.584-.032-4.192 1.472-8.416 4.672-11.616zm232.224 130.24c-6.272 6.272-16.48 6.272-22.752 0l-94.72-107.04c-3.2-3.2-4.736-7.392-4.672-11.584-.032-4.192 1.472-8.416 4.672-11.616l94.688-107.04c6.272-6.272 16.48-6.272 22.752 0s6.272 16.48 0 22.752l-84.8 95.872 84.8 95.872c6.304 6.304 6.304 16.512.032 22.784z"/><glyph unicode="9" d="M379.296 235.008l-94.688 107.04c-6.272 6.272-16.48 6.272-22.752 0s-6.272-16.48 0-22.752l84.8-95.872-84.8-95.872c-6.272-6.272-6.272-16.48 0-22.752s16.48-6.272 22.752 0l94.688 107.04c3.2 3.2 4.736 7.392 4.672 11.584.032 4.192-1.472 8.384-4.672 11.584zm-232.224-130.24c6.272-6.272 16.48-6.272 22.752 0l94.688 107.04c3.2 3.2 4.736 7.392 4.672 11.584.064 4.192-1.472 8.416-4.672 11.584l-94.656 107.072c-6.272 6.272-16.48 6.272-22.752 0s-6.272-16.48 0-22.752l84.8-95.872-84.8-95.872c-6.304-6.304-6.304-16.512-.032-22.784z"/><glyph unicode=":" d="M283.36 283.2c-3.136 3.136-7.232 4.672-11.36 4.672-4.128 0-8.224-1.536-11.36-4.672L156.864 179.424c-6.24-6.24-6.24-16.384 0-22.624 6.24-6.24 16.384-6.24 22.624 0L272 249.312l92.512-92.512c6.24-6.24 16.384-6.24 22.624 0 6.24 6.24 6.24 16.384 0 22.624L283.36 283.2zm-10.304 162.656c-131.968 0-238.944-106.976-238.944-238.944S141.12-32 273.056-32 512 74.976 512 206.944 405.024 445.856 273.056 445.856zm0-445.856C158.944 0 66.112 92.832 66.112 206.944s92.832 206.944 206.944 206.944S480 321.024 480 206.944 387.168 0 273.056 0z"/><glyph unicode=";" d="M364.512 259.2L272 166.688 179.488 259.2c-6.24 6.24-16.384 6.24-22.624 0-6.24-6.24-6.24-16.384 0-22.624L260.64 132.8a15.876 15.876 0 0111.36-4.672c4.128 0 8.224 1.536 11.36 4.672l103.776 103.776c6.24 6.24 6.24 16.384 0 22.624-6.24 6.24-16.384 6.24-22.624 0zm-91.36 186.528c-131.904 0-238.848-106.944-238.848-238.848C34.272 74.944 141.216-32 273.152-32 405.056-32 512 74.944 512 206.848c0 131.936-106.944 238.88-238.848 238.88zm0-445.728C159.104 0 66.304 92.8 66.304 206.848c0 114.048 92.8 206.848 206.848 206.848C387.2 413.728 480 320.928 480 206.848 480 92.8 387.2 0 273.152 0z"/><glyph unicode="&lt;" d="M323.2 323.136c-6.24 6.24-16.384 6.24-22.624 0L196.8 219.36c-3.136-3.136-4.672-7.232-4.672-11.36 0-4.128 1.536-8.224 4.672-11.36L300.576 92.864c6.24-6.24 16.384-6.24 22.624 0 6.24 6.24 6.24 16.384 0 22.624L230.688 208l92.512 92.512c6.24 6.24 6.24 16.384 0 22.624zM272 448C139.456 448 32 340.544 32 208S139.456-32 272-32 512 75.456 512 208 404.544 448 272 448zm0-448C157.312 0 64 93.312 64 208s93.312 208 208 208 208-93.312 208-208S386.688 0 272 0z"/><glyph unicode="=" d="M347.2 219.36L243.424 323.136c-6.24 6.24-16.384 6.24-22.624 0-6.24-6.24-6.24-16.384 0-22.624L313.312 208 220.8 115.488c-6.24-6.24-6.24-16.384 0-22.624 6.24-6.24 16.384-6.24 22.624 0L347.2 196.64a15.876 15.876 0 014.672 11.36c0 4.128-1.536 8.224-4.672 11.36zm-74.048 226.336c-131.904 0-238.848-106.944-238.848-238.848S141.248-32 273.152-32 512 74.944 512 206.848 405.056 445.696 273.152 445.696zm0-445.696C159.104 0 66.304 92.8 66.304 206.848s92.8 206.848 206.848 206.848S480 320.896 480 206.848 387.2 0 273.152 0z"/><glyph unicode="&gt;" d="M284.192 331.296c-3.2 3.2-7.392 4.736-11.584 4.672-4.224.064-8.416-1.472-11.616-4.672l-107.04-94.688c-6.272-6.272-6.272-16.48 0-22.752 6.272-6.272 16.48-6.272 22.752 0l95.872 84.832 95.872-84.832c6.272-6.272 16.48-6.272 22.752 0 6.272 6.272 6.272 16.48 0 22.752l-107.008 94.688zm0-114.752c-3.2 3.2-7.392 4.736-11.584 4.672-4.224.064-8.416-1.472-11.616-4.672l-107.04-94.688c-6.272-6.272-6.272-16.48 0-22.752 6.272-6.272 16.48-6.272 22.752 0l95.872 84.8 95.872-84.8c6.272-6.272 16.48-6.272 22.752 0 6.272 6.272 6.272 16.48 0 22.752l-107.008 94.688zm-11.04 229.152c-131.904 0-238.848-106.944-238.848-238.848S141.248-32 273.152-32 512 74.944 512 206.848 405.056 445.696 273.152 445.696zm0-445.696C159.104 0 66.304 92.8 66.304 206.848s92.8 206.848 206.848 206.848S480 320.896 480 206.848 387.2 0 273.152 0z"/><glyph unicode="?" d="M367.296 202.176l-95.872-84.8-95.872 84.8c-6.272 6.272-16.48 6.272-22.752 0-6.272-6.272-6.272-16.48 0-22.752l107.04-94.688c3.2-3.2 7.392-4.736 11.584-4.672 4.192-.064 8.416 1.472 11.584 4.672l107.04 94.688c6.272 6.272 6.272 16.48 0 22.752s-16.48 6.272-22.752 0zm0 114.752l-95.872-84.8-95.872 84.8c-6.304 6.272-16.512 6.272-22.784 0-6.272-6.272-6.272-16.48 0-22.752l107.04-94.688c3.2-3.2 7.392-4.736 11.584-4.672 4.192-.064 8.416 1.472 11.584 4.672l107.04 94.688c6.272 6.272 6.272 16.48 0 22.752s-16.448 6.272-22.72 0zm-94.144 128.768c-131.904 0-238.848-106.944-238.848-238.848S141.248-32 273.152-32 512 74.944 512 206.848 405.056 445.696 273.152 445.696zm0-445.696C159.104 0 66.304 92.8 66.304 206.848s92.8 206.848 206.848 206.848S480 320.896 480 206.848 387.2 0 273.152 0z"/><glyph unicode="@" d="M181.344 208.608l84.8 95.872c6.272 6.272 6.272 16.48 0 22.752s-16.48 6.272-22.752 0l-94.688-107.04c-3.2-3.2-4.736-7.392-4.672-11.584-.032-4.192 1.472-8.416 4.672-11.616l94.688-107.04c6.272-6.272 16.48-6.272 22.752 0s6.272 16.48 0 22.752l-84.8 95.904zm199.584 118.624c-6.272 6.272-16.48 6.272-22.752 0l-94.72-107.04c-3.2-3.2-4.736-7.392-4.672-11.584-.032-4.192 1.472-8.416 4.672-11.616l94.688-107.04c6.272-6.272 16.48-6.272 22.752 0s6.272 16.48 0 22.752l-84.8 95.872 84.8 95.872c6.304 6.304 6.304 16.512.032 22.784zM272 448C139.456 448 32 340.544 32 208S139.456-32 272-32 512 75.456 512 208 404.544 448 272 448zm0-448C157.312 0 64 93.312 64 208s93.312 208 208 208 208-93.312 208-208S386.688 0 272 0z"/><glyph unicode="A" d="M395.296 219.008l-94.688 107.04c-6.272 6.272-16.48 6.272-22.752 0s-6.272-16.48 0-22.752l84.8-95.872-84.8-95.872c-6.272-6.272-6.272-16.48 0-22.752s16.48-6.272 22.752 0l94.688 107.04c3.2 3.2 4.736 7.392 4.672 11.584.032 4.192-1.472 8.384-4.672 11.584zm-110.08-11.584c.064 4.192-1.472 8.416-4.672 11.584l-94.688 107.04c-6.272 6.272-16.48 6.272-22.752 0s-6.272-16.48 0-22.752l84.8-95.872-84.8-95.872c-6.272-6.272-6.272-16.48 0-22.752s16.48-6.272 22.752 0l94.688 107.04c3.2 3.168 4.736 7.36 4.672 11.584zM272 448C139.456 448 32 340.544 32 208S139.456-32 272-32 512 75.456 512 208 404.544 448 272 448zm0-448C157.312 0 64 93.312 64 208s93.312 208 208 208 208-93.312 208-208S386.688 0 272 0z"/><glyph unicode="B" d="M143.968 160h223.456c4.576 0 8.64 2.208 11.52 5.632l.064-.064c6.24 6.944 6.24 18.208 0 25.152L267.04 314.784c-6.24 6.944-16.352 6.944-22.56 0-.16-.192-.224-.448-.384-.64L132.352 190.72c-6.24-6.944-6.24-18.208 0-25.152.064-.064.128-.096.192-.16 2.912-3.328 6.912-5.408 11.424-5.408z"/><glyph unicode="C" d="M266.912 165.216c.16.192.224.448.384.64L379.008 289.28c6.24 6.944 6.24 18.208 0 25.152-.064.064-.128.096-.192.128-2.88 3.36-6.912 5.44-11.392 5.44H143.968c-4.576 0-8.64-2.208-11.552-5.632l-.064.064c-6.24-6.944-6.24-18.208 0-25.152L244.32 165.216c6.24-6.944 16.352-6.944 22.592 0z"/><glyph unicode="D" d="M289.28 347.648l-124.064-112c-6.944-6.24-6.944-16.352 0-22.56.192-.16.448-.224.64-.384L289.28 100.992c6.944-6.24 18.208-6.24 25.152 0 .064.064.064.128.128.192 3.36 2.88 5.44 6.912 5.44 11.392v223.456c0 4.576-2.208 8.64-5.632 11.52l.064.064c-6.944 6.24-18.208 6.24-25.152.032z"/><glyph unicode="E" d="M222.304 100.384L344.736 212.64c6.848 6.24 6.848 16.384 0 22.624-.192.16-.448.224-.64.384l-121.792 112c-6.848 6.24-17.984 6.24-24.832 0-.032-.064-.064-.16-.128-.224C194.08 344.544 192 340.512 192 336V112c0-4.576 2.176-8.64 5.536-11.552l-.064-.064c6.88-6.272 17.984-6.272 24.832 0z"/><glyph unicode="F" d="M272 448C139.456 448 32 340.544 32 208S139.456-32 272-32 512 75.456 512 208 404.544 448 272 448zm0-448C157.312 0 64 93.312 64 208s93.312 208 208 208 208-93.312 208-208S386.688 0 272 0zm9.6 282.784c-5.44 6.944-14.304 6.944-19.744 0-.16-.192-.192-.448-.352-.64L163.776 158.72c-5.44-6.944-5.44-18.208 0-25.152.032-.064.128-.064.16-.128 2.528-3.36 6.048-5.44 9.984-5.44h195.52c4 0 7.552 2.208 10.08 5.632l.064-.064c5.44 6.944 5.44 18.208 0 25.152L281.6 282.784z"/><glyph unicode="G" d="M272 448C139.456 448 32 340.544 32 208S139.456-32 272-32 512 75.456 512 208 404.544 448 272 448zm0-448C157.312 0 64 93.312 64 208s93.312 208 208 208 208-93.312 208-208S386.688 0 272 0zm107.744 250.592c-2.528 3.328-6.048 5.408-9.984 5.408H174.24c-4 0-7.552-2.208-10.08-5.632l-.064.064c-5.44-6.944-5.44-18.208 0-25.152l97.984-124.064c5.44-6.944 14.304-6.944 19.744 0 .16.192.192.448.352.64l97.76 123.424c5.44 6.944 5.44 18.208 0 25.152-.064.064-.128.096-.192.16z"/><glyph unicode="H" d="M272 448C139.456 448 32 340.544 32 208S139.456-32 272-32 512 75.456 512 208 404.544 448 272 448zm0-448C157.312 0 64 93.312 64 208s93.312 208 208 208 208-93.312 208-208S386.688 0 272 0zm42.432 316.224c-6.944 5.44-18.208 5.44-25.152 0L165.216 218.24c-6.944-5.44-6.944-14.304 0-19.744.192-.16.448-.192.64-.352l123.424-97.76c6.944-5.44 18.208-5.44 25.152 0 .064.032.064.128.128.16 3.36 2.56 5.44 6.08 5.44 10.016v195.52c0 4-2.208 7.552-5.632 10.08l.064.064z"/><glyph unicode="I" d="M272 448C139.456 448 32 340.544 32 208S139.456-32 272-32 512 75.456 512 208 404.544 448 272 448zm0-448C157.312 0 64 93.312 64 208s93.312 208 208 208 208-93.312 208-208S386.688 0 272 0zm106.144 218.464l-123.424 97.76c-6.944 5.44-18.208 5.44-25.152 0-.064-.064-.096-.128-.16-.16-3.328-2.528-5.408-6.048-5.408-9.984V110.56c0-4 2.208-7.552 5.632-10.08l-.064-.064c6.944-5.44 18.208-5.44 25.152 0L378.784 198.4c6.944 5.44 6.944 14.304 0 19.744-.192.16-.448.192-.64.32z"/><glyph unicode="J" d="M68.672 228.672l96-96c6.24-6.24 16.384-6.24 22.624 0 6.24 6.24 6.24 16.384 0 22.624L118.624 224H352c64 0 96-59.072 96-112 0-8.832 7.168-16 16-16s16 7.168 16 16c0 70.592-32 144-128 144H118.624l68.672 68.672c6.24 6.24 6.24 16.384 0 22.624-6.24 6.24-16.384 6.24-22.624 0l-96-96c-6.24-6.24-6.24-16.352 0-22.624z"/><glyph unicode="K" d="M144 192h256c8.832 0 16 7.168 16 16s-7.168 16-16 16H144c-8.832 0-16-7.168-16-16s7.168-16 16-16z"/><glyph unicode="L" d="M144 192h112V80c0-8.832 7.168-16 16-16s16 7.168 16 16v112h112c8.832 0 16 7.168 16 16s-7.168 16-16 16H288v112c0 8.832-7.168 16-16 16s-16-7.168-16-16V224H144c-8.832 0-16-7.168-16-16s7.168-16 16-16z"/><glyph unicode="M" d="M160.8 96.8c6.24-6.24 16.384-6.24 22.624 0L272 185.376 360.576 96.8c6.24-6.24 16.384-6.24 22.624 0 6.24 6.24 6.24 16.384 0 22.624L294.624 208l88.576 88.576c6.24 6.24 6.24 16.384 0 22.624-6.24 6.24-16.384 6.24-22.624 0L272 230.624 183.424 319.2c-6.24 6.24-16.384 6.24-22.624 0-6.24-6.24-6.24-16.384 0-22.624L249.376 208 160.8 119.424c-6.24-6.24-6.24-16.384 0-22.624z"/><glyph unicode="N" d="M220.608 70.592c.64-.512 1.024-1.216 1.696-1.696.96-.64 2.048-.768 3.072-1.216 1.216-.576 2.4-1.12 3.68-1.472 1.248-.32 2.464-.48 3.744-.576 1.824-.192 3.584-.192 5.376.064.736.128 1.44.32 2.176.512 2.208.544 4.256 1.408 6.272 2.624.352.224.64.48.992.704 1.312.896 2.72 1.568 3.84 2.784.8.864 1.152 1.984 1.792 2.944.032.032.096.064.096.096l190.688 305.632c6.784 10.336 3.872 24.224-6.496 31.008s-24.224 3.872-31.008-6.496L230.4 123.232l-97.408 94.752c-9.088 8.416-23.232 7.872-31.648-1.216-8.384-9.088-7.84-23.264 1.248-31.648L219.776 71.104c.224-.224.544-.288.832-.512z"/><glyph unicode="O" d="M272 448C139.456 448 32 340.544 32 208S139.456-32 272-32 512 75.456 512 208 404.544 448 272 448zm0-448C157.312 0 64 93.312 64 208s93.312 208 208 208 208-93.312 208-208S386.688 0 272 0zm128 224H144c-8.832 0-16-7.168-16-16s7.168-16 16-16h256c8.832 0 16 7.168 16 16s-7.168 16-16 16z"/><glyph unicode="P" d="M272 448C139.456 448 32 340.544 32 208S139.456-32 272-32 512 75.456 512 208 404.544 448 272 448zm0-448C157.312 0 64 93.312 64 208s93.312 208 208 208 208-93.312 208-208S386.688 0 272 0zm128 224H288v112c0 8.832-7.168 16-16 16s-16-7.168-16-16V224H144c-8.832 0-16-7.168-16-16s7.168-16 16-16h112V80c0-8.832 7.168-16 16-16s16 7.168 16 16v112h112c8.832 0 16 7.168 16 16s-7.168 16-16 16z"/><glyph unicode="Q" d="M272 448C139.456 448 32 340.544 32 208S139.456-32 272-32 512 75.456 512 208 404.544 448 272 448zm0-448C157.312 0 64 93.312 64 208s93.312 208 208 208 208-93.312 208-208S386.688 0 272 0zm88.576 319.2l-87.968-87.968-78.88 87.968c-6.24 6.24-16.384 6.24-22.624 0-6.24-6.24-6.24-16.384 0-22.624l78.912-87.968-89.184-89.184c-6.24-6.24-6.24-16.384 0-22.624 6.24-6.24 16.384-6.24 22.624 0l87.968 87.968L350.336 96.8c6.24-6.24 16.384-6.24 22.624 0s6.24 16.384 0 22.624l-78.944 87.968 89.184 89.184c6.24 6.24 6.24 16.384 0 22.624-6.24 6.24-16.384 6.24-22.624 0z"/><glyph unicode="R" d="M257.344 480c-141.376 0-256-114.624-256-256s114.624-256 256-256 256 114.624 256 256-114.624 256-256 256zm0-480c-123.52 0-224 100.48-224 224s100.48 224 224 224 224-100.48 224-224-100.512-224-224-224zm112.128 325.824c-10.336 6.784-24.224 3.872-31.008-6.496L230.432 154.24l-51.648 47.808c-9.088 8.384-23.264 7.84-31.68-1.248s-7.84-23.232 1.248-31.648l71.392-66.048c.256-.224.576-.288.832-.512.64-.512 1.024-1.216 1.696-1.696.96-.64 2.048-.768 3.072-1.216 1.216-.576 2.4-1.12 3.68-1.472 1.248-.32 2.464-.48 3.744-.576 1.824-.192 3.584-.192 5.376.064.736.128 1.44.32 2.176.512 2.208.544 4.256 1.408 6.272 2.624.352.224.64.48.992.704 1.312.896 2.72 1.568 3.84 2.784.8.864 1.152 1.984 1.792 2.944.032.032.096.064.096.096l122.624 187.424c6.784 10.368 3.872 24.256-6.464 31.04z"/><glyph unicode="S" d="M304 480c-114.88 0-208-93.12-208-208 0-49.44 17.312-94.752 46.112-130.464L6.528 5.952c-8.672-8.672-8.672-22.752 0-31.424s22.752-8.672 31.424 0l135.584 135.584C209.248 81.312 254.56 64 304 64c114.88 0 208 93.12 208 208s-93.12 208-208 208zm0-384c-97.056 0-176 78.944-176 176s78.944 176 176 176 176-78.944 176-176S401.056 96 304 96zm96 192H208c-8.832 0-16-7.168-16-16s7.168-16 16-16h192c8.832 0 16 7.168 16 16s-7.168 16-16 16z"/><glyph unicode="T" d="M304 480c-114.88 0-208-93.12-208-208 0-49.44 17.312-94.752 46.112-130.464L6.528 5.952c-8.672-8.672-8.672-22.752 0-31.424s22.752-8.672 31.424 0l135.584 135.584C209.248 81.312 254.56 64 304 64c114.88 0 208 93.12 208 208s-93.12 208-208 208zm0-384c-97.056 0-176 78.944-176 176s78.944 176 176 176 176-78.944 176-176S401.056 96 304 96zm96 192h-80v80c0 8.832-7.168 16-16 16s-16-7.168-16-16v-80h-80c-8.832 0-16-7.168-16-16s7.168-16 16-16h80v-80c0-8.832 7.168-16 16-16s16 7.168 16 16v80h80c8.832 0 16 7.168 16 16s-7.168 16-16 16z"/><glyph unicode="U" d="M304 480c-114.88 0-208-93.12-208-208 0-49.44 17.344-94.816 46.144-130.528L4.672 4c-8.64-8.64-8.64-22.688 0-31.328s22.688-8.64 31.328 0l137.472 137.472C209.184 81.344 254.56 64 304 64c114.88 0 208 93.12 208 208s-93.12 208-208 208zm0-384c-97.056 0-176 78.944-176 176s78.944 176 176 176 176-78.944 176-176S401.056 96 304 96z"/><glyph unicode="V" d="M416 416H96c-17.664 0-32-14.336-32-32V64c0-17.664 14.336-32 32-32h320c17.664 0 32 14.336 32 32v320c0 17.664-14.336 32-32 32zm0-352H96v320h320V64z"/><glyph unicode="W" d="M416 416H96c-17.664 0-32-14.336-32-32V64c0-17.664 14.336-32 32-32h320c17.664 0 32 14.336 32 32v320c0 17.664-14.336 32-32 32zm0-352H96v320h320V64zm-224 64h128c17.664 0 32 14.336 32 32v128c0 17.664-14.336 32-32 32H192c-17.664 0-32-14.336-32-32V160c0-17.664 14.336-32 32-32z"/><glyph unicode="X" d="M128 320V96c0-17.664 14.336-32 32-32h224c17.664 0 32 14.336 32 32v224c0 17.664-14.336 32-32 32H160c-17.664 0-32-14.336-32-32zM384 96H160v224h224V96zm-176 96h128c8.832 0 16 7.168 16 16s-7.168 16-16 16H208c-8.832 0-16-7.168-16-16s7.168-16 16-16z"/><glyph unicode="Y" d="M128 320V96c0-17.664 14.336-32 32-32h224c17.664 0 32 14.336 32 32v224c0 17.664-14.336 32-32 32H160c-17.664 0-32-14.336-32-32zM384 96H160v224h224V96zm-176 96h48v-48c0-8.832 7.168-16 16-16s16 7.168 16 16v48h48c8.832 0 16 7.168 16 16s-7.168 16-16 16h-48v48c0 8.832-7.168 16-16 16s-16-7.168-16-16v-48h-48c-8.832 0-16-7.168-16-16s7.168-16 16-16z"/><glyph unicode="Z" d="M416 64H96v320h236.032L352 416H96c-17.664 0-32-14.336-32-32V64c0-17.664 14.336-32 32-32h320c17.664 0 32 14.336 32 32v211.296L416 224V64zm53.856 380.352A22.33 22.33 0 01457.632 448c-7.296 0-14.464-3.584-18.752-10.144L264.928 186.912l-67.296 76.8c-9.12 8.416-23.264 7.872-31.68-1.216s-7.84-23.264 1.248-31.648l80.896-92.32c.512-.832 1.312-1.472 1.952-2.24l2.048-2.336c.256-.224.576-.288.832-.512.64-.512 1.024-1.216 1.696-1.696 1.376-.896 2.88-1.472 4.384-2.016.352-.128.64-.352.992-.448 2.24-.736 4.576-1.184 6.88-1.184.096 0 .192.064.288.064 6.08-.032 12.128 2.208 16.576 7.008.832.896 1.152 1.984 1.824 2.976l.096.096 190.688 275.104c6.752 10.336 3.872 24.224-6.496 31.008z"/><glyph unicode="[" d="M256 416c-106.048 0-192-85.952-192-192S149.952 32 256 32s192 85.952 192 192-85.952 192-192 192zm0-352c-88.224 0-160 71.776-160 160s71.776 160 160 160 160-71.776 160-160S344.224 64 256 64z"/><glyph unicode="\" d="M256 416c-106.048 0-192-85.952-192-192S149.952 32 256 32s192 85.952 192 192-85.952 192-192 192zm0-352c-88.224 0-160 71.776-160 160s71.776 160 160 160 160-71.776 160-160S344.224 64 256 64zm-96 160a96 96 1260 11192 0 96 96 1260 11-192 0z"/><glyph unicode="]" d="M256 480C114.624 480 0 365.376 0 224S114.624-32 256-32 512 82.624 512 224 397.376 480 256 480zm0-480C132.48 0 32 100.48 32 224s100.48 224 224 224 224-100.48 224-224S379.52 0 256 0zm64 320H192c-17.664 0-32-14.336-32-32V160c0-17.664 14.336-32 32-32h128c17.664 0 32 14.336 32 32v128c0 17.664-14.336 32-32 32z"/><glyph unicode="^" d="M320 128c17.664 0 32 14.336 32 32v128c0 17.664-14.336 32-32 32H192c-17.664 0-32-14.336-32-32V160c0-17.664 14.336-32 32-32h128z"/><glyph unicode="_" d="M256-32c141.376 0 256 114.624 256 256S397.376 480 256 480 0 365.376 0 224 114.624-32 256-32zm0 480c123.52 0 224-100.48 224-224S379.52 0 256 0 32 100.48 32 224s100.48 224 224 224zm-64-320c17.664 0 32 14.336 32 32v128c0 17.664-14.336 32-32 32s-32-14.336-32-32V160c0-17.664 14.336-32 32-32zm128 0c17.664 0 32 14.336 32 32v128c0 17.664-14.336 32-32 32s-32-14.336-32-32V160c0-17.664 14.336-32 32-32z"/><glyph unicode="`" d="M192 320c-17.664 0-32-14.336-32-32V160c0-17.664 14.336-32 32-32s32 14.336 32 32v128c0 17.664-14.336 32-32 32zm96-160c0-17.664 14.336-32 32-32s32 14.336 32 32v128c0 17.664-14.336 32-32 32s-32-14.336-32-32V160z"/><glyph unicode="a" d="M112 224h288c8.832 0 16 7.168 16 16s-7.168 16-16 16H112c-8.832 0-16-7.168-16-16s7.168-16 16-16zm0 96h288c8.832 0 16 7.168 16 16s-7.168 16-16 16H112c-8.832 0-16-7.168-16-16s7.168-16 16-16zm0-192h288c8.832 0 16 7.168 16 16s-7.168 16-16 16H112c-8.832 0-16-7.168-16-16s7.168-16 16-16z"/><glyph unicode="b" d="M480 448H64c-17.664 0-32-14.336-32-32V0c0-17.664 14.336-32 32-32h416c17.664 0 32 14.336 32 32v416c0 17.664-14.336 32-32 32zm0-448H64v416h416V0zM144 192h256c8.832 0 16 7.168 16 16s-7.168 16-16 16H144c-8.832 0-16-7.168-16-16s7.168-16 16-16zm0 96h256c8.832 0 16 7.168 16 16s-7.168 16-16 16H144c-8.832 0-16-7.168-16-16s7.168-16 16-16zm0-192h256c8.832 0 16 7.168 16 16s-7.168 16-16 16H144c-8.832 0-16-7.168-16-16s7.168-16 16-16z"/><glyph unicode="c" d="M272 448C139.456 448 32 340.544 32 208S139.456-32 272-32 512 75.456 512 208 404.544 448 272 448zm0-448C157.312 0 64 93.312 64 208s93.312 208 208 208 208-93.312 208-208S386.688 0 272 0zm128 224H144c-8.832 0-16-7.168-16-16s7.168-16 16-16h256c8.832 0 16 7.168 16 16s-7.168 16-16 16zm0 96H144c-8.832 0-16-7.168-16-16s7.168-16 16-16h256c8.832 0 16 7.168 16 16s-7.168 16-16 16zm0-192H144c-8.832 0-16-7.168-16-16s7.168-16 16-16h256c8.832 0 16 7.168 16 16s-7.168 16-16 16z"/><glyph unicode="d" d="M176 224h256c8.832 0 16 7.168 16 16s-7.168 16-16 16H176c-8.832 0-16-7.168-16-16s7.168-16 16-16zm0 128h256c8.832 0 16 7.168 16 16s-7.168 16-16 16H176c-8.832 0-16-7.168-16-16s7.168-16 16-16zm0-256h256c8.832 0 16 7.168 16 16s-7.168 16-16 16H176c-8.832 0-16-7.168-16-16s7.168-16 16-16zM64 368a16 16 1260 1132 0 16 16 1260 11-32 0zm0-128a16 16 1260 1132 0 16 16 1260 11-32 0zm0-128a16 16 1260 1132 0 16 16 1260 11-32 0z"/><glyph unicode="e" d="M432 256H176c-8.832 0-16-7.168-16-16s7.168-16 16-16h256c8.832 0 16 7.168 16 16s-7.168 16-16 16zm0 128H176c-8.832 0-16-7.168-16-16s7.168-16 16-16h256c8.832 0 16 7.168 16 16s-7.168 16-16 16zm0-256H176c-8.832 0-16-7.168-16-16s7.168-16 16-16h256c8.832 0 16 7.168 16 16s-7.168 16-16 16zM111.36 328.544v78.912h-9.12l-17.248-9.216 2.08-8.128 13.728 7.392h.224v-68.96zM85.984 215.232l-8.352-8.128v-6.56H128v8.864H92.544v.224l6.304 5.824c16.64 16.032 27.2 27.808 27.2 42.368 0 11.296-7.168 22.944-24.16 22.944-9.12 0-16.864-3.392-22.336-8.032l3.392-7.52c3.648 3.04 9.6 6.688 16.768 6.688 11.776 0 15.648-7.392 15.648-15.424-.096-11.872-9.216-22.08-29.376-41.248zm13.12-134.08c-7.392 0-14.432 3.04-17.472 4.96l-2.912-8.256c3.872-2.56 11.648-5.344 20.512-5.344 18.944 0 28.768 11.04 28.768 23.68 0 11.04-7.904 18.336-17.6 20.288v.224c9.728 3.52 14.56 10.432 14.56 18.592 0 9.6-7.04 18.816-22.592 18.816-8.512 0-16.512-3.04-20.64-6.08l2.784-7.776c3.392 2.432 9.472 5.216 15.776 5.216 9.824 0 13.856-5.6 13.856-11.904 0-9.344-9.824-13.344-17.6-13.344h-5.952v-8h5.952c10.336 0 20.288-4.736 20.384-15.776.16-6.56-4.096-15.296-17.824-15.296z"/><glyph unicode="f" d="M432 384h-48c0 17.664-14.336 32-32 32h-32c-17.664 0-32-14.336-32-32H80c-8.832 0-16-7.168-16-16s7.168-16 16-16h208c0-17.664 14.336-32 32-32h32c17.664 0 32 14.336 32 32h48c8.832 0 16 7.168 16 16s-7.168 16-16 16zm-80-32h-32v32h32v-32zm80-96H224c0 17.664-14.336 32-32 32h-32c-17.664 0-32-14.336-32-32H80c-8.832 0-16-7.168-16-16s7.168-16 16-16h48c0-17.664 14.336-32 32-32h32c17.664 0 32 14.336 32 32h208c8.832 0 16 7.168 16 16s-7.168 16-16 16zm-240-32h-32v32h32v-32zm240-96H320c0 17.664-14.336 32-32 32h-32c-17.664 0-32-14.336-32-32H80c-8.832 0-16-7.168-16-16s7.168-16 16-16h144c0-17.664 14.336-32 32-32h32c17.664 0 32 14.336 32 32h112c8.832 0 16 7.168 16 16s-7.168 16-16 16zM288 96h-32v32h32V96z"/><glyph unicode="g" d="M160 352v48c0 8.832-7.168 16-16 16s-16-7.168-16-16v-48c-17.664 0-32-14.336-32-32v-32c0-17.664 14.336-32 32-32V48c0-8.832 7.168-16 16-16s16 7.168 16 16v208c17.664 0 32 14.336 32 32v32c0 17.664-14.336 32-32 32zm-32-32h32v-32h-32v32zm160-128v208c0 8.832-7.168 16-16 16s-16-7.168-16-16V192c-17.664 0-32-14.336-32-32v-32c0-17.664 14.336-32 32-32V48c0-8.832 7.168-16 16-16s16 7.168 16 16v48c17.664 0 32 14.336 32 32v32c0 17.664-14.336 32-32 32zm-32-32h32v-32h-32v32zm160 128v112c0 8.832-7.168 16-16 16s-16-7.168-16-16V288c-17.664 0-32-14.336-32-32v-32c0-17.664 14.336-32 32-32V48c0-8.832 7.168-16 16-16s16 7.168 16 16v144c17.664 0 32 14.336 32 32v32c0 17.664-14.336 32-32 32zm-32-32h32v-32h-32v32z"/><glyph unicode="h" d="M64-32h384c17.664 0 32 14.336 32 32v448c0 17.664-14.336 32-32 32H64c-17.664 0-32-14.336-32-32V0c0-17.664 14.336-32 32-32zm0 480h384V0H64v448zm304-64H240c-8.832 0-16-7.168-16-16s7.168-16 16-16h128c8.832 0 16 7.168 16 16s-7.168 16-16 16zm0-96H144c-8.832 0-16-7.168-16-16s7.168-16 16-16h224c8.832 0 16 7.168 16 16s-7.168 16-16 16zm0-96H144c-8.832 0-16-7.168-16-16s7.168-16 16-16h224c8.832 0 16 7.168 16 16s-7.168 16-16 16zm0-96H144c-8.832 0-16-7.168-16-16s7.168-16 16-16h224c8.832 0 16 7.168 16 16s-7.168 16-16 16z"/><glyph unicode="i" d="M64 32h32V0c0-17.664 14.336-32 32-32h320c17.664 0 32 14.336 32 32v384c0 17.664-14.336 32-32 32h-32v32c0 17.664-14.336 32-32 32H64c-17.664 0-32-14.336-32-32V64c0-17.664 14.336-32 32-32zm320 32H64v384h320V64zm64 320V0H128v32h256c17.664 0 32 14.336 32 32v320h32zm-288-16c0-8.832 7.168-16 16-16h160c8.832 0 16 7.168 16 16s-7.168 16-16 16H176c-8.832 0-16-7.168-16-16zm-48-112h224c8.832 0 16 7.168 16 16s-7.168 16-16 16H112c-8.832 0-16-7.168-16-16s7.168-16 16-16zm0-64h224c8.832 0 16 7.168 16 16s-7.168 16-16 16H112c-8.832 0-16-7.168-16-16s7.168-16 16-16zm0-64h224c8.832 0 16 7.168 16 16s-7.168 16-16 16H112c-8.832 0-16-7.168-16-16s7.168-16 16-16z"/><glyph unicode="j" d="M481.952-1.952L448.32 99.552 176.8 371.072l-16.8-16.8-51.072-51.072 271.52-271.52zM63.68 348.448l67.872 67.872-33.6 33.6c-18.752 18.752-49.12 18.752-67.872 0-18.752-18.72-18.752-49.152 0-67.872l33.6-33.6z"/><glyph unicode="k" d="M329.92 92.512L416 64l-28.512 86.08-164.48 164.48-57.568-57.568zM131.552 290.88l57.568 57.568-42.368 42.368c-15.904 15.904-41.664 15.904-57.568 0-15.904-15.904-15.904-41.664 0-57.568l42.368-42.368zM480 480H32c-17.664 0-32-14.336-32-32V0c0-17.664 14.336-32 32-32h448c17.664 0 32 14.336 32 32v448c0 17.664-14.336 32-32 32zm0-480H32v448h448V0z"/><glyph unicode="l" d="M338.752 141.248l-28.512 86.08-164.48 164.48-57.568-57.568 164.48-164.48zM11.936 468.064c-15.904-15.904-15.904-41.664 0-57.568l42.368-42.368 57.568 57.568-42.368 42.368c-15.904 15.904-41.664 15.904-57.568 0zM480 384H253.152l32-32H480V0H128v194.848l-32 32V0c0-17.664 14.336-32 32-32h352c17.664 0 32 14.336 32 32v352c0 17.664-14.336 32-32 32z"/><glyph unicode="m" d="M480 384H335.488c-17.664 0-37.984-8.992-47.488-32 0 0-4.16-29.344-32-32H32c-17.664 0-32-13.824-32-31.488V0c0-17.664 14.336-32 32-32h448c17.664 0 32 14.336 32 32v352c0 17.664-14.336 32-32 32zm0-95.488V0H32v288h224c1.024 0 2.016.064 3.04.16 30.016 2.848 48.576 23.84 57.152 45.44 8.32 20.896 22.816 18.4 22.816 18.4H480v-63.488z"/><glyph unicode="n" d="M512 320.512V384c0 17.664-14.336 32-32 32H320c-17.664 0-32-14.336-32-32 0 0-4.16-29.344-32-32H32c-17.664 0-32-13.824-32-31.488V288h512v32.512zM32-32h448c17.664 0 32 14.336 32 32v256H0V0c0-17.664 14.336-32 32-32zm0 256h448V0H32v224z"/><glyph unicode="o" d="M480 384H367.488c-17.664 0-37.984-8.992-47.488-32 0 0-4.16-29.344-32-32H64c-17.664 0-32-13.824-32-31.488V0c0-17.664 14.336-32 32-32h416c17.664 0 32 14.336 32 32v352c0 17.664-14.336 32-32 32zm0-95.488V0H64v288h224c1.024 0 2.016.064 3.04.16 30.016 2.848 48.576 23.872 57.152 45.472 8.32 20.864 22.816 18.368 22.816 18.368H480v-63.488zM352 160h-64v64c0 8.832-7.168 16-16 16s-16-7.168-16-16v-64h-64c-8.832 0-16-7.168-16-16s7.168-16 16-16h64V64c0-8.832 7.168-16 16-16s16 7.168 16 16v64h64c8.832 0 16 7.168 16 16s-7.168 16-16 16z"/><glyph unicode="p" d="M256 480C114.624 480 0 365.376 0 224S114.624-32 256-32 512 82.624 512 224 397.376 480 256 480zm0-480C132.48 0 32 100.48 32 224s100.48 224 224 224 224-100.48 224-224S379.52 0 256 0zm0 288c-17.664 0-32-14.336-32-32V96c0-17.664 14.336-32 32-32s32 14.336 32 32v160c0 17.664-14.336 32-32 32zm-32 63.488a32 32 1260 1164 0 32 32 1260 11-64 0z"/><glyph unicode="q" d="M371.424 470.624A31.99 31.99 0 01348.768 480H163.232c-8.48 0-16.64-3.36-22.624-9.376L9.408 339.392C3.36 333.408 0 325.28 0 316.768V131.2c0-8.48 3.36-16.64 9.376-22.624l131.2-131.232A32.094 32.094 0 01163.232-32H348.8c8.48 0 16.64 3.36 22.624 9.376l131.2 131.232c6.016 5.984 9.376 14.112 9.376 22.624v185.536c0 8.48-3.36 16.64-9.376 22.624l-131.2 131.232zM480 131.232L348.768 0H163.232L32 131.232v185.536L163.232 448H348.8L480 316.768V131.232zM256 384c-17.664 0-32-14.336-32-32V192c0-17.664 14.336-32 32-32s32 14.336 32 32v160c0 17.664-14.336 32-32 32zM224 96a32 32 1260 1164 0 32 32 1260 11-64 0z"/><glyph unicode="r" d="M256 480C114.624 480 0 365.376 0 224S114.624-32 256-32 512 82.624 512 224 397.376 480 256 480zm0-480C132.48 0 32 100.48 32 224s100.48 224 224 224 224-100.48 224-224S379.52 0 256 0zm0 384c-17.664 0-32-14.336-32-32V192c0-17.664 14.336-32 32-32s32 14.336 32 32v160c0 17.664-14.336 32-32 32zM224 96.512a32 32 1260 1164 0 32 32 1260 11-64 0z"/><glyph unicode="s" d="M506.24 15.072l-222.016 416A31.956 31.956 0 01256.032 448H256a31.964 31.964 0 01-28.192-16.896L4.8 15.104a32.056 32.056 0 01.736-31.552C11.328-26.08 21.76-32 32.992-32h444.992a32.007 32.007 0 0127.456 15.552c5.792 9.632 6.08 21.6.8 31.52zM32.992 0L256 416 478.016 0H32.992zM224 255.488v-96c0-17.664 14.336-32 32-32s32 14.336 32 32v96c0 17.664-14.336 32-32 32s-32-14.304-32-32zM224 64a32 32 1260 1164 0 32 32 1260 11-64 0z"/><glyph unicode="t" d="M256 480C114.624 480 0 365.376 0 224S114.624-32 256-32 512 82.624 512 224 397.376 480 256 480zm0-480C132.48 0 32 100.48 32 224s100.48 224 224 224 224-100.48 224-224S379.52 0 256 0zm-35.616 63.552a32.96 32.96 1260 1165.92 0 32.96 32.96 1260 11-65.92 0zM253.344 416c-62.048 0-128-45.088-128-128.672 0-17.664 14.304-32 32-32s32 14.336 32 32c0 44.448 33.184 64.672 64 64.672 23.904 0 64-7.008 64-54.016 0-16.672-4.384-36.128-36.768-53.984-22.016-12.064-59.232-43.392-59.232-84 0-17.664 14.304-32 32-32s32 14.336 32 32c0 5.952 12.672 20.576 26.08 27.968 46.368 25.536 69.92 62.56 69.92 110.016 0 81.536-64.288 118.016-128 118.016z"/><glyph unicode="u" d="M220.384 63.552a32.96 32.96 1260 1165.92 0 32.96 32.96 1260 11-65.92 0zm91.04 124.416c46.368 25.536 69.92 62.56 69.92 110.016 0 81.504-64.288 118.016-128 118.016-62.048 0-128-45.088-128-128.672 0-17.664 14.304-32 32-32s32 14.336 32 32c0 44.448 33.184 64.672 64 64.672 23.904 0 64-7.008 64-54.016 0-16.672-4.384-36.128-36.768-53.984-22.016-12.064-59.232-43.392-59.232-84 0-17.664 14.304-32 32-32s32 14.336 32 32c0 5.952 12.64 20.576 26.08 27.968z"/><glyph unicode="v" d="M30.368 9.888C32.992 4.256 38.656.672 44.864.672c45.92 0 84.768 11.168 128.896 37.184 21.408-3.392 63.68-7.584 82.24-7.584 140.096 0 254.048 93.536 254.048 208.544S396.096 447.328 256 447.328 1.952 353.824 1.952 238.816c0-54.208 26.144-106.592 72.16-145.408C63.68 69.728 49.76 47.392 32.608 26.944c-3.968-4.8-4.864-11.456-2.24-17.056zm3.584 228.928c0 97.344 99.616 176.544 222.048 176.544s222.048-79.2 222.048-176.544S378.432 62.272 256 62.272c-18.368 0-66.176 4.928-82.336 8.064a16.566 16.566 0 01-11.36-2.048c-29.824-18.24-55.84-28.672-83.68-33.088 12 18.176 21.984 37.376 29.76 57.376 2.592 6.688.48 14.24-5.248 18.56-44.64 33.792-69.184 79.168-69.184 127.68z"/><glyph unicode="w" d="M446.56 291.36c2.816-12.672 4.448-25.696 4.448-39.072 0-103.296-87.68-189.408-203.136-207.904 24.416-9.856 51.776-15.616 80.928-15.616 27.488 0 53.44 5.056 76.864 13.856 29.664-10.112 62.048-12.736 88.832-12.736-13.92 16.704-23.584 33.088-30.496 47.488 29.696 26.496 48 61.6 48 100.256 0 45.696-25.504 86.432-65.44 113.728zM23.552 73.312c2.784-5.28 8.256-8.576 14.176-8.576.256 0 .544 0 .768.032 16.928.8 50.592 12.032 86.24 34.656 19.072-3.36 61.792-9.696 76.704-9.696 112.544 0 200.672 78.368 200.672 178.432 0 98.4-89.984 178.432-200.672 178.432S.832 366.592.832 268.192c0-45.792 20.16-90.048 55.648-123.168-7.968-19.392-18.528-37.728-31.424-54.528-3.808-4.928-4.384-11.648-1.504-17.184zm9.28 194.88c0 80.736 75.648 146.432 168.672 146.432s168.672-65.696 168.672-146.432c0-83.456-72.512-146.432-168.672-146.432-12.64 0-62.944 7.328-76.768 10.24-4.224.832-8.608.064-12.128-2.336-13.728-9.088-26.656-15.968-37.92-21.024a271.144 271.144 0 0115.808 35.68c2.272 6.368.32 13.472-4.864 17.76-34.048 28-52.8 65.696-52.8 106.112z"/><glyph unicode="x" d="M32 91.936h73.312c5.792-5.76 139.232-118.08 139.232-118.08C251.488-30.368 257.536-32 262.816-32c.8 0 1.6.032 2.368.096 11.84 1.12 20.288 11.04 22.816 21.504v468.768c-2.496 10.496-10.976 20.416-22.816 21.536-.768.064-1.536.096-2.368.096-5.28 0-11.328-1.632-18.272-5.824 0 0-133.44-116.416-139.232-122.176H32c-17.664 0-32-14.336-32-32V123.936c0-17.696 14.336-32 32-32zM32 128v192h73.312c8.192 0 16.384 3.424 22.304 9.056 5.824 5.536 78.144 68.8 128.384 112.64V6.016c-49.92 42.048-122.24 103.136-128.128 108.576-5.984 5.984-14.112 9.312-22.592 9.312H32V128zm474.272 178.848c-7.616 7.616-20 7.616-27.616 0l-55.232-55.232-55.232 55.232c-7.616 7.616-20 7.616-27.616 0s-7.616-20 0-27.616L395.808 224l-55.232-55.232c-7.616-7.616-7.616-20 0-27.616s20-7.616 27.616 0l55.232 55.232 55.232-55.232c7.616-7.616 20-7.616 27.616 0s7.616 20 0 27.616L451.04 224l55.232 55.232c7.648 7.616 7.648 20 0 27.616z"/><glyph unicode="y" d="M326.816 480c-5.28 0-11.328-1.632-18.272-5.824 0 0-133.44-116.416-139.232-122.176H96c-17.664 0-32-14.336-32-32V123.936c0-17.664 14.336-32 32-32h73.312c5.792-5.76 139.232-118.08 139.232-118.08C315.488-30.368 321.536-32 326.816-32c.8 0 1.6.032 2.368.096 11.84 1.12 20.288 11.04 22.816 21.504v468.768c-2.496 10.496-10.976 20.416-22.816 21.504-.768.096-1.536.128-2.368.128zM320 6.016c-49.92 42.048-122.24 103.136-128.128 108.576-5.984 5.984-14.112 9.312-22.592 9.312H96V320h73.312c8.192 0 16.384 3.424 22.304 9.056 5.824 5.536 78.144 68.8 128.384 112.64V6.016zm81.312 162.08c-7.904-4-11.072-13.6-7.104-21.504a16.013 16.013 0 0114.272-8.8c2.432 0 4.864.544 7.2 1.696 32.352 16.32 52.448 48.672 52.448 84.512s-20.096 68.192-52.448 84.512c-7.904 4-17.504.8-21.472-7.104s-.8-17.504 7.104-21.504c21.472-10.816 34.816-32.224 34.816-55.904s-13.344-45.088-34.816-55.904z"/><glyph unicode="z" d="M32 91.936h73.312c5.792-5.76 139.232-118.08 139.232-118.08C251.488-30.368 257.536-32 262.816-32c.8 0 1.6.032 2.368.096 11.84 1.12 20.288 11.04 22.816 21.504v468.768c-2.496 10.496-10.976 20.416-22.816 21.536-.768.064-1.536.096-2.368.096-5.28 0-11.328-1.632-18.272-5.824 0 0-133.44-116.416-139.232-122.176H32c-17.664 0-32-14.336-32-32V123.936c0-17.696 14.336-32 32-32zM32 128v192h73.312c8.192 0 16.384 3.424 22.304 9.056 5.824 5.536 78.144 68.8 128.384 112.64V6.016c-49.92 42.048-122.24 103.136-128.128 108.576-5.984 5.984-14.112 9.312-22.592 9.312H32V128zm305.312 40.096c-7.904-4-11.072-13.6-7.104-21.504a16.013 16.013 0 0114.272-8.8c2.432 0 4.864.544 7.2 1.696 32.352 16.32 52.448 48.672 52.448 84.512s-20.096 68.192-52.448 84.512c-7.904 4-17.504.8-21.472-7.104s-.8-17.504 7.104-21.504c21.472-10.816 34.816-32.224 34.816-55.904s-13.344-45.088-34.816-55.904zM315.296 40.352c1.504-7.648 8.192-12.928 15.68-12.928 1.024 0 2.048.096 3.104.288C427.904 46.016 496 128.576 496 224s-68.096 177.984-161.952 196.288c-8.512 1.728-17.088-3.968-18.752-12.64-1.696-8.672 3.968-17.088 12.64-18.784C406.784 373.504 464 304.16 464 224S406.784 74.496 327.936 59.136c-8.672-1.696-14.336-10.112-12.64-18.784z"/><glyph unicode="{" d="M127.968 270.112c0-27.04 21.12-48.96 47.136-48.96 8.352 0 16.064 2.432 22.88 6.4-2.336-26.176-15.52-64.352-63.84-103.264-6.752-5.472-8-15.584-2.752-22.592 3.072-4.096 7.648-6.24 12.256-6.24 3.328 0 6.656 1.088 9.504 3.392 59.296 47.84 74.112 96.992 76.096 129.824 3.392 41.984-9.344 64.064-20.992 75.584-1.056 1.12-2.048 2.336-3.232 3.328-2.784 2.368-5.28 4.032-7.456 5.28-.096.064-.16.16-.256.192-.16.096-.32.128-.48.192-3.168 1.76-5.44 2.592-5.44 2.592l.16-.384c-5.152 2.112-10.56 3.616-16.448 3.616-26.048 0-47.136-21.92-47.136-48.96zm155.136 0c0-27.04 21.088-48.96 47.136-48.96 8.352 0 16.064 2.432 22.88 6.4-2.336-26.176-15.52-64.352-63.84-103.264-6.784-5.472-8-15.584-2.752-22.592 3.072-4.096 7.648-6.24 12.256-6.24 3.328 0 6.656 1.088 9.504 3.392 59.296 47.84 74.112 96.992 76.096 129.824 3.392 41.984-9.376 64.064-20.992 75.584-1.088 1.12-2.08 2.336-3.264 3.328-2.784 2.368-5.28 4.032-7.456 5.28-.096.064-.16.128-.256.192-.16.096-.32.128-.48.192-3.168 1.728-5.44 2.592-5.44 2.592l.16-.384c-5.152 2.112-10.592 3.616-16.448 3.616-26.016 0-47.104-21.92-47.104-48.96z"/><glyph unicode="|" d="M256 480C114.624 480 0 365.376 0 224S114.624-32 256-32 512 82.624 512 224 397.376 480 256 480zm0-480C132.48 0 32 100.48 32 224s100.48 224 224 224 224-100.48 224-224S379.52 0 256 0zm-50.976 307.584c-2.784 2.368-5.28 4.032-7.456 5.28-.096.064-.16.16-.256.192-.16.096-.32.128-.48.192-3.168 1.76-5.44 2.592-5.44 2.592l.16-.384c-5.152 2.112-10.56 3.616-16.448 3.616-26.048 0-47.136-21.92-47.136-48.96s21.12-48.96 47.136-48.96c8.352 0 16.064 2.432 22.88 6.4-2.336-26.176-15.52-64.352-63.84-103.264-6.752-5.472-8-15.584-2.752-22.592 3.072-4.096 7.648-6.24 12.256-6.24 3.328 0 6.656 1.088 9.504 3.392 59.296 47.84 74.112 96.992 76.096 129.824 3.392 41.984-9.344 64.064-20.992 75.584-1.056 1.12-2.048 2.336-3.232 3.328zm155.136 0c-2.784 2.368-5.28 4.032-7.456 5.28-.096.064-.16.128-.256.192-.16.096-.32.128-.48.192-3.168 1.728-5.44 2.592-5.44 2.592l.16-.384c-5.152 2.112-10.592 3.616-16.448 3.616-26.048 0-47.136-21.92-47.136-48.96s21.088-48.96 47.136-48.96c8.352 0 16.064 2.432 22.88 6.4-2.336-26.176-15.52-64.352-63.84-103.264-6.784-5.472-8-15.584-2.752-22.592 3.072-4.096 7.648-6.24 12.256-6.24 3.328 0 6.656 1.088 9.504 3.392 59.296 47.84 74.112 96.992 76.096 129.824 3.392 41.984-9.376 64.064-20.992 75.584-1.056 1.12-2.048 2.336-3.232 3.328z"/><glyph unicode="}" d="M273.056 445.856c-61.152 0-122.304-23.328-168.96-69.984-93.312-93.312-93.312-244.608 0-337.888C150.784-8.672 211.904-32 273.056-32S395.36-8.672 442.016 37.984c93.312 93.312 93.312 244.608 0 337.888-46.656 46.656-107.808 69.984-168.96 69.984zM419.392 60.608C380.32 21.536 328.352 0 273.056 0 217.792 0 165.824 21.536 126.72 60.608c-39.072 39.072-60.608 91.04-60.608 146.336S87.648 314.176 126.72 353.28c39.072 39.072 91.04 60.608 146.336 60.608 55.264 0 107.232-21.536 146.336-60.608S480 262.208 480 206.944 458.464 99.68 419.392 60.608zM368 224h-80v112.224c0 8.832-7.168 16-16 16s-16-7.168-16-16V208c0-8.832 7.168-16 16-16h96c8.832 0 16 7.168 16 16s-7.168 16-16 16z"/><glyph unicode="~" d="M256 480c-88.352 0-160-72.736-160-162.464V288H64c-17.664 0-32-14.336-32-32V0c0-17.664 14.336-32 32-32h384c17.664 0 32 14.336 32 32v256c0 17.664-14.336 32-32 32h-32v29.536C416 407.264 344.352 480 256 480zM128 317.536C128 389.472 185.408 448 256 448s128-58.528 128-130.464V288H128v29.536zM448 0H64v256h384V0zM320 128c0 35.36-28.64 64-64 64s-64-28.64-64-64 28.64-64 64-64 64 28.64 64 64zm-64-32c-17.632 0-32 14.368-32 32s14.368 32 32 32 32-14.368 32-32-14.368-32-32-32z"/><glyph unicode="" d="M480 0v256c0 17.664-14.336 32-32 32H127.84l.16 13.568C128 387.776 181.248 448 257.536 448c55.84 0 105.6-32.096 129.888-83.776 3.744-8 13.248-11.424 21.28-7.648 8 3.744 11.424 13.28 7.648 21.28C386.752 440.832 325.92 480 257.536 480 163.936 480 96 404.96 96 301.76L95.84 288H64c-17.664 0-32-14.336-32-32V0c0-17.664 14.336-32 32-32h384c17.664 0 32 14.336 32 32zM64 256h384V0H64v256zm192-64c-35.36 0-64-28.64-64-64s28.64-64 64-64 64 28.64 64 64-28.64 64-64 64zm0-96c-17.632 0-32 14.368-32 32s14.368 32 32 32 32-14.368 32-32-14.368-32-32-32z"/><glyph unicode="" d="M176 80c0 9.504-2.048 18.688-6.08 27.232C159.424 129.568 136.672 144 112 144c-35.296 0-64-28.704-64-64 0-6.304 1.184-12.256 2.88-18.016A127.972 127.972 0 0193.984 18.88C99.744 17.184 105.696 16 112 16c35.296 0 64 28.704 64 64zm-64 32c12.352 0 23.712-7.232 28.992-18.4A31.964 31.964 0 00144 80c0-17.632-14.368-32-32-32S80 62.368 80 80s14.368 32 32 32zm384 368h-69.248c-3.776 0-7.424-1.344-10.336-3.776l-226.56-191.328C179.424 286.976 169.6 288 160 288 71.776 288 0 216.224 0 128S71.776-32 160-32s160 71.776 160 160c0 16.832-2.688 33.472-8 49.6l48.704 31.648c4.544 2.944 7.296 8 7.296 13.408V280.8l60.832 3.2c7.936.416 14.336 6.592 15.072 14.496l5.824 61.632 53.152 25.408c5.6 2.688 9.12 8.32 9.12 14.464v64c0 8.832-7.168 16-16 16zm-16-69.92l-52.224-24.96c-5.056-2.432-8.512-7.328-9.024-12.928l-5.376-56.928L351.168 312c-8.512-.48-15.168-7.488-15.168-16v-64.64l-52.224-33.952c-6.496-4.224-9.056-12.512-6.016-19.648C284.576 161.728 288 144.992 288 128 288 57.408 230.592 0 160 0c-24.224 0-46.656 7.136-66.016 18.88A127.972 127.972 0 0050.88 61.984C39.136 81.344 32 103.776 32 128c0 70.592 57.408 128 128 128 9.44 0 19.36-1.312 30.336-3.968 4.96-1.216 10.208 0 14.112 3.328L432.608 448H480v-37.92z"/><glyph unicode="" d="M416 224c-1.12 0-2.176-.288-3.264-.32A160.466 160.466 0 01416 256c0 88.352-71.648 160-160 160S96 344.352 96 256c0-.544.16-1.056.16-1.6C41.888 246.656 0 200.416 0 144 0 87.616 41.792 41.44 96 33.6V32h320c53.024 0 96 42.976 96 96s-42.976 96-96 96zm0-160H106.048a30.957 30.957 0 01-5.472 1.28C61.472 70.912 32 104.768 32 144c0 39.296 29.536 73.12 68.672 78.72 15.904 2.272 27.648 15.968 27.488 32 0 .96-.064 1.92-.16 2.848C128.864 327.456 185.952 384 256 384c70.592 0 128-57.408 128-128 0-8.704-.896-17.408-2.624-25.888-1.984-9.6.576-19.584 6.912-27.072 6.08-7.2 15.04-11.328 24.448-11.328.384 0 .736 0 1.12.032.704-.032 2.208.096 3.456.256C452 191.296 480 162.848 480 128c0-35.296-28.704-64-64-64z"/><glyph unicode="" d="M416.832 224.032c-1.376 0-2.72 0-4.032-.032a162.966 162.966 0 013.2 32c0 88.224-71.776 160-160 160-88.16 0-160-71.072-160.096-158.368 0-.032.256-3.232.256-3.232C41.344 246.56 0 199.104 0 144 0 88.128 40.256 40.064 96 32h80c8.832 0 16 7.168 16 16s-7.168 16-16 16l-77.664-.16C61.152 69.312 32 104.544 32 144c0 39.296 29.504 73.12 68.672 78.72l13.76 1.984c7.872 1.12 13.728 7.872 13.728 15.84l-.256 17.024C128 327.296 185.44 384 256 384c70.592 0 128-57.408 128-128 0-8.672-.864-17.408-2.624-25.888l-4.224-20.352c-1.056-5.088.448-10.336 3.968-14.144 3.52-3.776 8.576-5.728 13.824-4.928.352.032 10.368 1.344 21.888 1.344C451.68 192.032 480 163.328 480 128c0-35.296-28.704-64-64-64H304c-44.8 0-47.84 26.848-48 32v106.176l37.856-37.824c6.24-6.24 16.384-6.24 22.624 0 6.24 6.24 6.24 16.384 0 22.624l-64.384 64.352c-3.136 3.136-7.264 4.672-11.392 4.672-.256 0-.448.128-.704.128-4.608 0-8.672-1.984-11.584-5.088l-64.448-64.384c-6.24-6.24-6.24-16.384 0-22.624 6.24-6.24 16.384-6.24 22.624 0L224 201.408V96c0-22.112 16.704-64 80-64h112c52.928 0 96 43.072 96 96s-42.688 96.032-95.168 96.032z"/><glyph unicode="" d="M418.656 224c29.888 68.64 11.456 112.288-3.552 133.312-22.784 31.904-64.288 49.408-100.736 42.4C251.008 387.616 224 344.672 224 256v-74.048l-37.056 37.056c-6.24 6.24-16.384 6.24-22.624 0s-6.24-16.384 0-22.624l64.384-64.352c3.232-3.232 7.488-4.704 11.712-4.608 4.224-.096 8.48 1.376 11.712 4.608l64.704 64.672c6.24 6.24 6.24 16.384 0 22.624s-16.384 6.24-22.624 0L256 181.152V256c0 92.288 31.776 106.048 64.32 112.288 20.896 3.84 51.136-4.928 68.704-29.568 21.504-30.048 17.376-74.624-11.616-125.44-3.072-5.408-2.752-12.096.832-17.152s9.888-7.616 15.872-6.528c3.872.672 15.424 2.432 22.72 2.432C451.68 192.032 480 163.328 480 128c0-35.296-28.704-64-64-64l-317.664-.192C61.152 69.312 32 104.544 32 144c0 39.296 29.504 73.12 68.672 78.72l13.76 1.984c7.872 1.12 13.728 7.872 13.728 15.84l-.256 17.024c.096 57.312 35.424 104.416 84.096 112 8.704 1.376 14.688 9.536 13.344 18.272-1.376 8.736-9.344 14.656-18.304 13.344-64.32-10.016-111.04-70.4-111.136-143.552 0-.032.256-3.232.256-3.232C41.344 246.56 0 199.104 0 144 0 88.128 40.256 40.064 96 32h320c52.928 0 96 43.072 96 96 0 52.352-41.728 95.04-93.344 96z"/><glyph unicode="" d="M275.648 292.992a44.512 44.512 1260 1189.024 0 44.512 44.512 1260 11-89.024 0zM416 32h32v192l-128-96-160 128-96-96V32h32zm64 384H32c-17.664 0-32-14.336-32-32V0c0-17.664 14.336-32 32-32h448c17.664 0 32 14.336 32 32v384c0 17.664-14.336 32-32 32zm0-416H32v384h448V0z"/><glyph unicode="" d="M480 384h-32v64c0 17.664-14.336 32-32 32H32c-17.664 0-32-14.336-32-32V96c0-17.664 14.336-32 32-32h32V0c0-17.664 14.336-32 32-32h384c17.664 0 32 14.336 32 32v352c0 17.664-14.336 32-32 32zM32 96v352h384V96H32zM480 0H96v64h32V32h320v320h32V0zM236.64 348.992a44.512 44.512 1260 1189.024 0 44.512 44.512 1260 11-89.024 0zM160 320l-96-64V128h320v160l-128-64z"/><glyph unicode="" d="M256 480c-105.856 0-192-86.144-192-192 0-61.888 30.08-120.32 80.512-156.32a37.359 37.359 0 012.368-1.536c11.712-6.88 12.864-29.056 12.608-33.12a42.435 42.435 0 01-.064-1.984V32a31.936 31.936 0 0117.44-28.48l64.576-32.992a32.023 32.023 0 0114.56-3.52c4.96 0 9.888 1.152 14.432 3.424l65.344 32.992A31.973 31.973 0 01353.344 32v62.656c0 31.584 19.296 42.016 19.488 42.112a31 31 0 017.072 4.544C423.168 177.92 448 231.36 448 288c0 105.856-86.144 192-192 192zM191.424 95.008s0 .64.032.992H321.44c0-.48-.128-.832-.128-1.344V64H191.424v31.008zM256-.992L191.456 32h129.888L256-.992zM359.232 165.76s-21.44-10.08-32.064-37.76H186.304c-3.968 11.072-10.848 22.464-23.2 29.728C122.496 186.72 96 234.272 96 288c0 88.352 71.648 160 160 160s160-71.648 160-160c0-49.024-22.048-92.896-56.768-122.24zM272 416c-8.832 0-16-7.168-16-16s7.168-16 16-16c36 0 80-32.736 80-81.504 0-8.832 7.168-16 16-16s16 7.168 16 16C384 375.488 327.008 416 272 416z"/><glyph unicode="" d="M480 352H32c-17.664 0-32-14.336-32-32v-96h32V0c0-17.664 14.336-32 32-32h384c17.664 0 32 14.336 32 32v224h32v96c0 17.664-14.336 32-32 32zM32 320h192v-64H32v64zM64 0v224h160V0H64zm384 0H288.672v224H448V0zm32 256H288.672v64H480v-64zM256 384c0 .064-.032.192-.032.256h.096A.753.753 0 01256 384h128c44.192 0 64 21.504 64 48s-19.808 48-64 48c-41.376 0-73.952-18.624-96-40.224-9.664 5.728-20.832 9.216-32.928 9.216-11.584 0-22.304-3.264-31.712-8.576C201.344 461.76 168.96 480 128 480c-44.192 0-64-21.504-64-48s19.808-48 64-48h128zm160 48c0-13.216-17.408-16-32-16h-72.672c-.256.448-.48.928-.736 1.344C326.848 433.152 351.488 448 384 448c14.592 0 32-2.784 32-16zm-320 0c0 13.216 17.408 16 32 16 31.808 0 55.936-14.24 72.192-29.504-.512-.8-.896-1.664-1.376-2.496H128c-14.592 0-32 2.784-32 16z"/><glyph unicode="" d="M25.984 195.488L64 225.888V0c0-17.664 14.336-32 32-32h96c17.664 0 32 14.336 32 32v128h64V0c0-17.664 14.336-32 32-32h96c17.664 0 32 14.336 32 32v225.888l38.016-30.4A16.01 16.01 0 01496 192c4.704 0 9.344 2.048 12.512 6.016 5.504 6.912 4.384 16.96-2.496 22.496l-240 192a16.021 16.021 0 01-20 0L160 343.712V384c0 17.664-14.336 32-32 32s-32-14.336-32-32v-91.488l-89.984-72c-6.88-5.536-8-15.584-2.496-22.496 5.504-6.912 15.552-8.032 22.464-2.528zM256 379.52l160-128V0h-96v160H192V0H96v251.488L256 379.52z"/><glyph unicode="" d="M40.704 85.504c7.68-11.936 23.808-26.144 57.088-26.144 20.928 0 47.712 6.112 77.536 16.768C188.224 19.296 211.936-32 256-32c44.8 0 68.608 53.056 81.344 111.072 29.888-10.112 56.768-15.936 77.792-15.936 35.2 0 51.712 14.976 59.392 27.52 24.832 40.704-13.92 92.384-60.704 135.104 8.64 8.32 16.768 16.64 23.904 24.736 40.448 46.048 51.744 83.712 33.568 112-7.68 11.936-23.808 26.144-57.088 26.144-20.928 0-47.712-6.112-77.536-16.768C323.776 428.704 300.064 480 256 480c-44.8 0-68.608-53.056-81.344-111.072-29.888 10.144-56.768 15.936-77.792 15.936-35.2 0-51.744-14.976-59.392-27.52C12.64 316.64 51.392 264.96 98.176 222.24c-8.64-8.352-16.768-16.64-23.904-24.736-40.448-46.048-51.744-83.744-33.568-112zM256 0c-20.704 0-39.072 34.592-50.784 88 16.832 7.264 34.24 15.744 52.064 25.44a655.06 655.06 0 0149.984-23.072C295.616 35.616 277.024 0 256 0zm-64 224c0 11.744.352 23.2.832 34.464 9.216 6.528 18.656 12.992 28.544 19.36 11.36 7.296 22.592 14.016 33.728 20.416 11.296-6.144 22.688-12.576 34.208-19.584 10.304-6.304 20.192-12.736 29.792-19.2.544-11.584.896-23.36.896-35.456 0-11.744-.352-23.2-.832-34.464-9.216-6.528-18.656-12.992-28.544-19.36-11.36-7.296-22.592-14.016-33.728-20.416-11.296 6.144-22.688 12.576-34.208 19.584-10.304 6.304-20.192 12.736-29.792 19.2-.544 11.584-.896 23.36-.896 35.456zm-31.84-12.032a665.109 665.109 0 00-13.728 10.72 641.509 641.509 0 0013.664 11.232A757.832 757.832 0 01160 224c0-2.336.064-6.752.16-12.032zm35.584 87.104a607.447 607.447 0 003.264 26.4c7.296-3.104 14.752-6.528 22.368-10.112-5.76-3.52-11.52-6.88-17.312-10.592-2.88-1.888-5.472-3.84-8.32-5.696zm92.736 17.088c8.256 4.16 16.32 8.032 24.224 11.584 1.344-9.056 2.496-18.496 3.488-28.192a667.839 667.839 0 01-10.176 6.4c-5.856 3.584-11.712 6.816-17.536 10.208zm63.36-80.128a665.109 665.109 0 0013.728-10.72c-4.416-3.744-8.992-7.456-13.696-11.232.096 4.288.128 7.904.128 9.92 0 2.336-.064 6.752-.16 12.032zm-35.584-87.104c-.928-9.088-1.984-17.92-3.232-26.4-7.296 3.104-14.784 6.528-22.368 10.112 5.76 3.52 11.52 6.88 17.312 10.592 2.848 1.888 5.44 3.84 8.288 5.696zm-110.272-6.88c5.856-3.584 11.68-6.816 17.536-10.208-8.256-4.16-16.32-8.032-24.224-11.584-1.344 9.024-2.496 18.464-3.488 28.192 4.448-2.816 8.192-5.184 10.176-6.4zm241.216-34.72c-5.056-8.256-16.256-12.192-32.064-12.192-18.464 0-43.392 5.632-71.808 15.616 3.392 21.952 5.504 43.392 6.752 61.696 14.304 10.56 27.52 21.248 40.032 32 45.152-40.992 68.64-78.208 57.088-97.12zM414.208 356.64c14.656 0 25.184-3.68 30.176-11.456 12-18.656-10.656-56.448-54.88-98.528-13.76 11.2-27.328 21.44-39.552 30.112-1.312 18.88-3.488 40.896-7.104 63.392 28.384 10.528 53.184 16.48 71.36 16.48zM256 448c20.704 0 39.072-34.592 50.784-88-16.832-7.264-34.24-15.744-52.064-25.44-17.12 8.768-33.824 16.448-49.984 23.072C216.384 412.384 234.976 448 256 448zM64.8 340.672c5.056 8.256 16.256 12.192 32.064 12.192 18.464 0 43.392-5.632 71.808-15.616-3.424-21.952-5.504-43.36-6.752-61.696-14.304-10.56-27.52-21.248-40.032-32-45.152 40.992-68.64 78.208-57.088 97.12zm97.216-169.408c1.312-18.88 3.488-40.896 7.104-63.392-28.352-10.528-53.152-16.48-71.328-16.48-14.656 0-25.184 3.68-30.176 11.456-12 18.656 10.656 56.448 54.88 98.528 13.728-11.2 27.296-21.472 39.52-30.112z"/><glyph unicode="" d="M384-32c17.664 0 32 14.336 32 32v448c0 17.664-14.336 32-32 32H160c-17.664 0-32-14.336-32-32V0c0-17.664 14.336-32 32-32h224zM256 17.984c0 9.952 8.064 17.984 17.984 17.984s17.984-8.064 17.984-17.984S283.936 0 273.984 0 256 8.064 256 17.984zM336 448c8.832 0 16-7.168 16-16s-7.168-16-16-16h-32c-8.832 0-16 7.168-16 16s7.168 16 16 16h32zm-80-16c0-8.832-7.168-16-16-16s-16 7.168-16 16 7.168 16 16 16 16-7.168 16-16zm-96-48h224V64H160v320z"/><glyph unicode="" d="M416-32c17.664 0 32 14.336 32 32v448c0 17.664-14.336 32-32 32H96c-17.664 0-32-14.336-32-32V0c0-17.664 14.336-32 32-32h320zM256-17.984c-9.952 0-17.984 8.064-17.984 17.984S246.048 17.984 256 17.984 273.984 9.952 273.984 0 265.952-17.984 256-17.984zM128 416h256V32H128v384z"/><glyph unicode="" d="M495.488 96H480v288c0 17.664-14.336 32-32 32H64c-17.664 0-32-14.336-32-32V96H16.512C7.392 96 0 88.832 0 80s7.392-16 16.512-16h478.976C504.608 64 512 71.168 512 80s-7.392 16-16.512 16zM448 384V129.344H64V384h384z"/><glyph unicode="" d="M480 448H32c-17.664 0-32-14.336-32-32V128c0-17.664 14.336-32 32-32h159.968c-.064-23.136-.992-53.184-9.76-64h-6.464C167.04 32 160 24.832 160 16s7.04-16 15.744-16h160.48C344.96 0 352 7.168 352 16s-7.04 16-15.744 16h-6.464c-8.8 10.816-9.696 40.864-9.76 64H480c17.664 0 32 14.336 32 32v288c0 17.664-14.336 32-32 32zM224 96l-.032-.064c0 .032 0 .032.032.064zm64.032-.064L288 96h.032v-.064zM480 160H32v256h448V160z"/><glyph unicode="" d="M480 320h-64s-18.496 0-32 32c-6.88 16.288-14.336 32-32 32H224c-17.664 0-25.344-15.616-32-32-12.992-32-32-32-32-32h-32c0 17.664-14.336 32-32 32H64c-17.664 0-32-14.336-32-32-17.664 0-32-14.336-32-32V32C0 14.336 14.336 0 32 0h448c17.664 0 32 14.336 32 32v256c0 17.664-14.336 32-32 32zm0-288H32v128h145.6c7.84-54.208 54.016-96 110.4-96 57.76 0 104.736 43.872 110.784 100H480V32zM208 176c0 44.128 35.904 80 80 80s80-35.872 80-80c0-44.096-35.904-80-80-80s-80 35.904-80 80zm190.4 16c-7.84 54.208-54.016 96-110.4 96s-102.56-41.792-110.4-96H32v96h128c18.688 0 46.08 13.6 61.632 51.968 2.656 6.496 4.448 10.08 5.632 12.032h121.344c2.144-3.52 4.896-10.016 5.92-12.448C375.232 290.496 409.376 288 416 288h64v-96h-81.6zM64 239.68a16 16 1260 1132 0 16 16 1260 11-32 0z"/><glyph unicode="" d="M480 352H32c-17.664 0-32-14.336-32-32V0c0-17.664 14.336-32 32-32h448c17.664 0 32 14.336 32 32v320c0 17.664-14.336 32-32 32zM181.76 127.136l74.304-50.496 73.856 50.848L457.376 0H54.624L181.76 127.136zM32 22.624V228.96l122.816-83.488L32 22.624zM356.704 145.92L480 230.784V22.624L356.704 145.92zM480 320v-51.776l-.672.96L255.936 115.36 32 267.616V320h448z"/><glyph unicode="" d="M399.456 160l-12.128 32H124.672l-12.128-32L64 32h384l-48.544 128zm-252.672 0h218.464l36.416-96H110.368l36.416 96zm182.048 96h34.24l-12.128 32-65.088 171.552C281.088 471.872 269.216 480 256 480s-25.088-8.128-29.856-20.448L161.088 288l-12.128-32h179.872zM256 448l60.672-160H195.328L256 448zM495.744 0H16.256C7.264 0 0-6.784 0-15.744S7.264-32 16.256-32h479.488C504.736-32 512-24.736 512-15.744S504.736 0 495.744 0z"/><glyph unicode="" d="M83.744-29.568a32.01 32.01 0 0134.88 6.944L256 114.752 393.376-22.624A32.01 32.01 0 01416-32c4.128 0 8.288.8 12.224 2.432C440.192-24.608 448-12.928 448 0v448c0 17.664-14.336 32-32 32H96c-17.664 0-32-14.336-32-32V0c0-12.928 7.808-24.608 19.744-29.568zM256 160L96 0v352h320V0L256 160zm160 288v-64H96v64h320z"/><glyph unicode="" d="M96-32h320c17.664 0 32 14.336 32 32v352c0 17.664-14.336 32-32 32h-64.16c-.768 53.152-43.328 96-95.84 96s-95.072-42.848-95.84-96H96c-17.664 0-32-14.336-32-32V0c0-17.664 14.336-32 32-32zm320 384V0H96v352h320zm-160 96c34.784 0 63.072-28.576 63.84-64H192.16c.768 35.424 29.056 64 63.84 64zm-48-160h96c8.832 0 16 7.168 16 16s-7.168 16-16 16h-96c-8.832 0-16-7.168-16-16s7.168-16 16-16z"/><glyph unicode="" d="M480 416H32c-17.664 0-32-14.336-32-32V64c0-17.664 14.336-32 32-32h448c17.664 0 32 14.336 32 32v320c0 17.664-14.336 32-32 32zm0-352H32v192h448V64zM32 318.656V384h448v-65.344H32zM80 96h160c8.832 0 16 7.168 16 16s-7.168 16-16 16H80c-8.832 0-16-7.168-16-16s7.168-16 16-16zm208 16a16 16 1260 1132 0 16 16 1260 11-32 0zm64 0a16 16 1260 1132 0 16 16 1260 11-32 0zm64 0a16 16 1260 1132 0 16 16 1260 11-32 0z"/><glyph unicode="" d="M96 0a32 32 1260 1164 0 32 32 1260 11-64 0zm288 0a32 32 1260 1164 0 32 32 1260 11-64 0zM-.928 400c0-8.832 7.168-16 16-16H48.32l19.872-84.992L96 160c0-1.152.544-2.144.672-3.264l-16.288-73.28a15.948 15.948 0 013.136-13.472C86.56 66.176 91.136 64 96 64h363.008c8.832 0 16 7.168 16 16s-7.168 16-16 16h-343.04l7.328 32.96c1.6-.256 3.04-.96 4.704-.96h291.68c17.664 0 28.32 3.488 36.832 24l51.968 159.424C517.504 340 497.696 352 480 352H96c-2.496 0-4.672-.864-7.008-1.408l-12.416 53.056A15.99 15.99 0 0160.992 416h-45.92c-8.864 0-16-7.168-16-16zm97.568-80H477.6l-51.072-156.768c-.608-1.376-1.12-2.368-1.504-3.04-1.056-.096-2.72-.192-5.344-.192H128v3.168l-.608 3.104L96.64 320z"/><glyph unicode="" d="M225.216 368.352c-33.888 33.824-76.448 36.672-106.048 7.072-29.6-29.568-26.784-72.192 7.04-106.048L309.376 86.208c6.24-6.24 16.384-6.24 22.624 0s6.24 16.384 0 22.624L148.832 292c-16.416 16.416-26.88 40.992-7.072 60.8 19.776 19.808 44.384 9.312 60.8-7.104L406.208 142.08c58.4-58.464 72.96-85.408 38.176-120.224-35.2-35.168-72.512-26.464-128.704 29.696L89.44 277.856C52.896 314.4 27.296 374.08 75.328 422.08c57.024 57.024 122.144.96 140.704-17.632l207.872-207.904c6.24-6.24 16.384-6.24 22.624 0s6.24 16.384 0 22.624L238.656 427.072c-62.848 62.848-134.112 69.568-185.984 17.632C.256 392.32 5.92 316.16 66.816 255.232L293.088 28.96c19.232-19.232 60.416-60.384 107.776-60.384 21.28 0 43.84 8.352 66.176 30.688 63.584 63.616 4.768 122.496-38.176 165.472L225.216 368.352z"/><glyph unicode="" d="M464.928 447.84h-.864c-.256 0-.48.032-.736 0H262.144c-4.896-.224-16.032-7.872-17.472-9.312L9.344 203.2c-12.48-12.48-12.48-32.704 0-45.184L190.016-22.656A31.915 31.915 0 01212.608-32c8.16 0 16.352 3.104 22.592 9.344l235.328 235.328c1.44 1.44 9.472 11.328 9.472 17.472v201.824c.448 8.928-6.304 15.872-15.072 15.872zM448 236.128c-.48-.736-.96-1.504-1.408-2.112L212.64 0 31.968 180.576l234.016 234.016c.64.448 1.376.928 2.144 1.408H448V236.128zM384 368a16 16 1260 1132 0 16 16 1260 11-32 0z"/><glyph unicode="" d="M465.28 480H294.496c-4.896-.256-16.032-7.904-17.472-9.344L73.344 267.008c-12.48-12.48-12.48-32.704 0-45.184l25.408-25.408-25.408-25.408c-12.48-12.48-12.48-32.704 0-45.184L222.016-22.848c6.24-6.24 14.4-9.344 22.592-9.344 8.16 0 16.352 3.104 22.592 9.344l203.648 203.68c1.472 1.44 9.152 11.296 9.152 17.44v265.824c.448 8.928-5.952 15.904-14.72 15.904zm-16.928-276.32c-.096-.16-.16-.256-.128-.256L244.64-.256 95.968 148.352l25.408 25.408 100.64-100.64c6.24-6.24 14.4-9.344 22.592-9.344 8.16 0 16.352 3.104 22.592 9.344l181.152 181.152V203.68zm0 148.32v-52.32c-.096-.16-.16-.256-.128-.256L244.64 95.744 95.968 244.352l202.304 202.272a29.34 29.34 0 002.08 1.376h148v-96zm-64 48.128a16 16 1260 1132 0 16 16 1260 11-32 0z"/><glyph unicode="" d="M416 448h-64c0 17.664-14.336 32-32 32h-96c-17.664 0-32-14.336-32-32h-64c-17.664 0-32-14.336-32-32h352c0 17.664-14.336 32-32 32zM96 0c0-17.664 14.336-32 32-32h288c17.664 0 32 14.336 32 32v384H96V0zm32 352h288V0H128v352zm48-32c-8.832 0-16-7.168-16-16V48c0-8.832 7.168-16 16-16s16 7.168 16 16v256c0 8.832-7.168 16-16 16zm96 0c-8.832 0-16-7.168-16-16V48c0-8.832 7.168-16 16-16s16 7.168 16 16v256c0 8.832-7.168 16-16 16zm96 0c-8.832 0-16-7.168-16-16V48c0-8.832 7.168-16 16-16s16 7.168 16 16v256c0 8.832-7.168 16-16 16z"/><glyph unicode="" d="M157.248 474.304c-4.352 5.152-11.424 7.04-17.728 4.736-6.304-2.304-10.528-8.32-10.528-15.04V46.496a15.999 15.999 0 0110.976-15.2c1.632-.544 3.328-.8 5.024-.8 4.96 0 9.76 2.304 12.832 6.464l71.552 96.384L279.008-8.64c6.368-18.176 26.272-27.776 44.448-21.408S351.232-3.776 344.864 14.4L296.16 153.696l111.936-21.664c6.688-1.344 13.408 1.76 16.832 7.584 3.424 5.856 2.816 13.216-1.568 18.4L157.248 474.304zM247.2 195.808c-6.048 1.216-12.224-1.216-15.872-6.176l-70.304-94.72v325.216l208.768-248.064L247.2 195.808z"/><glyph unicode="" d="M224 67.072V0h-48c-8.832 0-16-7.168-16-16s7.168-16 16-16h160c8.832 0 16 7.168 16 16s-7.168 16-16 16h-48v67.264C354.656 80.416 416 134.368 416 224v48c0 8.832-7.168 16-16 16s-16-7.168-16-16v-48c0-84.032-64.416-128-128-128-61.664 0-128 40.064-128 128v48c0 8.832-7.168 16-16 16s-16-7.168-16-16v-48c0-90.88 60.256-144.192 128-156.928zM256 128c52.928 0 96 43.072 96 96v160c0 52.928-43.072 96-96 96s-96-43.072-96-96V224c0-52.928 43.072-96 96-96zm-64 256c0 35.36 28.64 64 64 64s64-28.64 64-64V224c0-35.36-28.64-64-64-64s-64 28.64-64 64v160z"/><glyph unicode="" d="M256 480C114.624 480 0 365.376 0 224S114.624-32 256-32 512 82.624 512 224 397.376 480 256 480zm0-480C132.48 0 32 100.48 32 224s100.48 224 224 224 224-100.48 224-224S379.52 0 256 0zm103.52 349.568l-59.552-37.184-39.776-24.8c31.936-2.112 57.28-27.424 59.392-59.392l24.8 39.744 37.184 59.584c3.968 6.304 3.04 14.528-2.24 19.776-5.312 5.312-13.568 6.208-19.808 2.272zm-167.104-129.76l-24.8-39.776-37.184-59.584c-3.968-6.304-3.04-14.528 2.24-19.776A16.097 16.097 0 01144 96c2.944 0 5.888.8 8.48 2.432l59.552 37.184 39.776 24.8c-31.936 2.112-57.28 27.456-59.392 59.392zm67.776 67.776c-1.408.096-2.752.416-4.192.416-35.36 0-64-28.64-64-64 0-1.44.32-2.784.416-4.192 2.112-31.936 27.456-57.28 59.392-59.392 1.408-.096 2.752-.416 4.192-.416 35.36 0 64 28.64 64 64 0 1.44-.32 2.784-.416 4.192-2.112 31.936-27.456 57.28-59.392 59.392zM224 224c0 17.632 14.368 32 32 32s32-14.368 32-32-14.368-32-32-32-32 14.368-32 32z"/><glyph unicode="" d="M243.392 217.216c45.984 0 83.392 37.408 83.392 83.392 0 45.984-37.408 83.392-83.392 83.392S160 346.592 160 300.608c0-45.984 37.408-83.392 83.392-83.392zm0 134.784c28.32 0 51.392-23.04 51.392-51.392s-23.04-51.392-51.392-51.392S192 272.288 192 300.608 215.04 352 243.392 352zM231.744-23.328c2.688-2.976 5.28-4.896 7.776-6.24.032-.032.096-.032.128-.064 1.728-.896 3.424-1.568 5.024-1.568s3.296.672 5.024 1.568c.032.032.096.032.128.064 2.496 1.344 5.088 3.264 7.776 6.24 0 0 148.736 161.76 163.68 301.92.896 7.232 1.504 14.56 1.504 22.016 0 99.072-80.32 179.392-179.392 179.392S64 399.68 64 300.608c0-7.584.608-14.976 1.536-22.304C80.864 138.208 231.744-23.328 231.744-23.328zM243.392 448c81.28 0 147.392-66.112 147.392-147.392 0-5.408-.384-11.168-1.312-18.624C378.016 174.592 277.184 48.576 244.704 10.24c-33.312 38.4-135.584 164.096-147.424 272-.864 7.072-1.28 12.896-1.28 18.368C96 381.888 162.112 448 243.392 448z"/><glyph unicode="" d="M139.04 195.648a32.07 32.07 0 01-7.168-28.352c2.304-10.048 9.344-18.368 18.848-22.336 22.72-9.504 61.344-15.52 105.312-16.736 0-.064-.032-.128-.032-.224V32c0-17.664 7.168-64 16-64s16 46.336 16 64v96c0 .096-.032.16-.032.256 43.968 1.184 82.592 7.232 105.312 16.736 9.504 3.968 16.544 12.288 18.848 22.336 2.304 10.048-.352 20.608-7.168 28.32-13.12 14.88-36.032 23.104-52.96 27.392V388.8c16.736 5.664 30.944 12.768 42.176 21.056 9.6 7.072 14.464 18.944 12.608 30.72s-10.112 21.568-21.44 25.376C369.728 471.2 334.208 480 272 480c-65.76 0-102.08-10.144-114.656-14.496a31.988 31.988 0 01-21.12-25.28c-1.824-11.648 2.944-23.392 12.384-30.528 11.392-8.544 25.952-15.776 43.36-21.472H192V223.04c-16.896-4.256-39.84-12.48-52.96-27.392zm62.912 222.976c-16.704 5.472-27.552 11.712-34.112 16.672C184.864 441.184 219.328 448 272 448c51.648 0 85.856-6.56 103.2-12.384-6.784-4.992-17.536-11.104-33.472-16.512L320 411.744v-213.6l24.128-6.112c17.696-4.48 31.072-11.008 36.8-17.536C366.112 168.32 330.112 160 272 160s-94.112 8.32-108.928 14.496c5.76 6.528 19.136 13.056 36.8 17.536L224 198.144v213.28l-22.048 7.2z"/><glyph unicode="" d="M486.944 415.232l-144 64A31.631 31.631 0 01336 480c-2.08 0-4.192-.192-6.24-.608l-154.048-62.688-136.736 62.528c-2.304.512-4.64.768-6.976.768-7.2 0-14.272-2.432-20-7.04A31.91 31.91 0 010 448V64c0-14.976 10.4-27.968 25.024-31.232l143.328-64a32.136 32.136 0 016.976-.768c2.08 0 4.192.192 6.24.608l154.048 62.688 137.408-62.528A32.576 32.576 0 01480-32c7.2 0 14.304 2.432 20.032 7.04C507.584-18.88 512-9.696 512 0v384c0 15.008-10.432 28-25.056 31.232zM192 390.624L320 441.6v-384L192 6.624v384zM32 448l128-57.152v-384L32 64v384zM480 0L352 56.896v384L480 384V0z"/><glyph unicode="" d="M404.992 448H104c-17.664 0-32-12-40-32L0 192.512V16C0 7.168 7.168 0 16 0h480c8.832 0 16 7.168 16 16v174.528L448 416c-8.992 20-25.312 32-43.008 32zM94.24 405.344C95.712 408.64 99.456 416 104 416h300.992c4.384 0 9.44-4.512 12.992-11.392L478.304 192H336c-8.832 0-16-7.168-16-16v-48H192v48c0 8.832-7.168 16-16 16H33.152L94.24 405.344zM480 32H32v128h128v-48c0-8.832 7.168-16 16-16h160c8.832 0 16 7.168 16 16v48h128V32z"/><glyph unicode="" d="M480 320H352c0-17.664-14.336-32-32-32h160v-64H320c17.664 0 32-14.336 32-32h128V0H32v192h128c0 17.664 14.336 32 32 32H32v64h160c-17.664 0-32 14.336-32 32H32c-17.664 0-32-14.336-32-32V0c0-17.664 14.336-32 32-32h448c17.664 0 32 14.336 32 32v288c0 17.664-14.336 32-32 32zm-288-32h128c17.664 0 32 14.336 32 32v32c0 17.664-14.336 32-32 32H192c-17.664 0-32-14.336-32-32v-32c0-17.664 14.336-32 32-32zm0 64h128v-32H192v32zm-32-160v-32c0-17.664 14.336-32 32-32h128c17.664 0 32 14.336 32 32v32c0 17.664-14.336 32-32 32H192c-17.664 0-32-14.336-32-32zm160-32H192v32h128v-32z"/><glyph unicode="" d="M432.672 480h-352C36.512 480 .768 444.512.128 400.512l-.128.16v-352C0 4.128 36.128-32 80.672-32h272C370.336-32 384-17.664 384 0v336c0 8.832-6.496 16-15.328 16h-288C53.824 352 32 372.512 32 399.328 32 426.176 53.824 448 80.672 448H416V80c0-8.832 7.84-16 16.672-16S448 71.168 448 80v384c0 8.832-6.496 16-15.328 16zm-352-160h271.36l.64-320h-272C53.824 0 32 21.824 32 48.672v286.976C45.44 325.792 62.24 320 80.672 320z"/><glyph unicode="" d="M510.112 390.016c-4.032 13.024-15.744 22.656-30.112 22.656h-32v-49.664c0-26.464-21.536-48-48-48s-48 21.536-48 48v49.664H159.84v-49.664c0-26.464-21.536-48-48-48s-48 21.536-48 48v49.664H32c-14.368 0-26.08-9.632-30.112-22.656H0V0c0-17.664 14.336-32 32-32h448c17.664 0 32 14.336 32 32v390.016h-1.888zM480 0H32v256h448V0zM111.84 347.008c8.832 0 16 7.168 16 16V464c0 8.832-7.168 16-16 16s-16-7.168-16-16V363.008c0-8.832 7.168-16 16-16zm288.16 0c8.832 0 16 7.168 16 16V464c0 8.832-7.168 16-16 16s-16-7.168-16-16V363.008c0-8.832 7.168-16 16-16z"/><glyph unicode="" d="M480 480H32c-17.664 0-32-14.336-32-32V0c0-17.664 14.336-32 32-32h448c17.664 0 32 14.336 32 32v448c0 17.664-14.336 32-32 32zM96 192v-64H32v64h64zm-64 64v64h64v-64H32zm96-96h256V0H128v160zm256 32H128v256h256V192zm32 0h64v-64h-64v64zm0 64v64h64v-64h-64zm0 128v64h64v-64h-64zm-320 0H32v64h64v-64zM32 64h64V0H32v64zm384 0h64V0h-64v64z"/><glyph unicode="" d="M511.456 417.664C510.048 434.144 496.736 448 480 448H32C15.264 448 1.952 434.144.544 417.664H0V0c0-17.664 14.336-32 32-32h448c17.664 0 32 14.336 32 32v417.664h-.544zM192 256v96h128v-96H192zm128-32v-98.656H192V224h128zM160 352v-96H32v96h128zM32 224h128v-98.656H32V224zM32 0v96h128V0H32zm160 0v96h128V0H192zm288 0H352v96h128V0zm0 125.344H352V224h128v-98.656zM480 256H352v96h128v-96z"/><glyph unicode="" d="M416 480H32c-17.664 0-32-14.336-32-32V0c0-17.664 14.336-32 32-32h384c17.664 0 32 14.336 32 32v448c0 17.664-14.336 32-32 32zM32 448h64V0H32v448zM416 0H128v448h288V0zM221.792 308.256a48.448 48.448 1260 1196.896 0 48.448 48.448 1260 11-96.896 0zm49.44-67.808c-43.744 0-79.232-47.584-79.232-106.272s158.496-58.688 158.496 0-35.488 106.272-79.264 106.272zM480 448h32v-96h-32zm0-128h32v-96h-32zm0-128h32V96h-32z"/><glyph unicode="" d="M480 160v64c0 147.072-112.672 224-224 224-108.608 0-224-78.496-224-224v-64c-17.664 0-32-14.336-32-32V64c0-17.664 14.336-32 32-32C32 14.336 46.336 0 64 0s32 14.336 32 32v128c0 17.664-14.336 32-32 32v32c0 126.048 96.608 192 192 192 92.48 0 192-60.064 192-192v-32c-17.664 0-32-14.336-32-32V32c0-17.664 14.336-32 32-32s32 14.336 32 32c17.664 0 32 14.336 32 32v64c0 17.664-14.336 32-32 32z"/><glyph unicode="" d="M256 480c-65.504 0-131.04-24.992-181.024-74.976-99.968-99.968-99.968-262.08 0-362.048C124.96-7.008 190.496-32 256-32S387.04-7.008 437.024 42.976c99.968 99.968 99.968 262.08 0 362.048C387.04 455.008 321.504 480 256 480zm-90.496-346.496C141.312 157.664 128 189.824 128 224c0 34.176 13.312 66.336 37.504 90.496C189.664 338.688 221.824 352 256 352s66.336-13.312 90.496-37.504C370.688 290.336 384 258.176 384 224c0-34.176-13.312-66.336-37.504-90.496C322.336 109.312 290.176 96 256 96s-66.336 13.312-90.496 37.504zM354.976 424.8L305.6 375.424C289.472 380.704 272.8 384 256 384c-15.296 0-30.432-2.912-45.248-7.264l-49.92 49.92C190.272 440.448 222.528 448 256 448c34.944 0 68.544-8.16 98.976-23.2zm-301.6-105.664l49.92-49.92c-9.152-31.04-8.768-64 1.28-94.848L55.2 124.992C40.16 155.456 32 189.056 32 224c0 33.472 7.552 65.728 21.376 95.136zM97.6 65.632c0-.032 0-.032 0 0zm67.104-46.08l50.432 50.432C228.544 66.432 242.208 64 256 64c15.296 0 30.432 2.912 45.248 7.296l49.92-49.92C321.728 7.552 289.472 0 256 0c-32.032 0-62.912 6.88-91.296 19.552zM458.56 128.928l-49.824 49.824c8.288 28.128 8.768 57.792 1.28 86.112l50.336 50.336c26.336-59.232 25.728-127.456-1.792-186.272z"/><glyph unicode="" d="M256-32c82.528 0 155.744 39.232 202.56 99.872L256 224v256C114.624 480 0 365.376 0 224S114.624-32 256-32zm-32 477.728V224c0-9.92 4.608-19.296 12.448-25.344L411.872 63.424C370.304 22.784 314.976 0 256 0 132.48 0 32 100.48 32 224c0 112.64 83.584 206.144 192 221.728zm76 29.984v-228.96l182.784-140.896C501.344 141.216 512 181.312 512 224c0 126.336-91.648 230.816-212 251.712z"/><glyph unicode="" d="M479.584 480c-17.92 0-32.416-14.528-32.416-32.416V372c-36.544 44.256-78.656 108-194.56 108C113.344 480 0 366.688 0 227.392S113.344-25.216 252.608-25.216c109.376 0 205.824 69.856 240.064 173.824 5.664 17.312-3.744 35.968-21.056 41.664-17.312 5.696-35.968-3.712-41.664-21.024C404.672 92.416 333.408 40.8 252.608 40.8c-102.912 0-186.624 83.712-186.624 186.624s83.712 186.24 186.624 186.24c72.864 0 113.344-45.344 146.368-92.896h-81.504c-17.92 0-32.416-14.528-32.416-32.416 0-17.92 14.528-32.416 32.416-32.416h162.112C497.472 255.872 512 270.4 512 288.288v159.296C512 465.472 497.472 480 479.584 480z"/><glyph unicode="" d="M152.928 415.104c18.72 18.72 49.152 18.72 67.872 0l171.616-171.616c8.448 31.968.544 67.36-24.512 92.416l-113.152 113.12c-37.504 37.504-98.272 37.504-135.776 0l-25.44-25.44c-37.504-37.504-37.504-98.272 0-135.776l113.152-113.152c25.056-25.056 60.448-32.96 92.416-24.512L127.488 321.76c-18.72 18.72-18.72 49.152 0 67.872l25.44 25.472zM257.248-1.024c37.504-37.504 98.272-37.504 135.776 0l25.44 25.472c37.504 37.504 37.504 98.272 0 135.776L305.312 273.312c-25.056 25.056-60.448 32.96-92.416 24.512l171.616-171.616c18.72-18.72 18.72-49.152 0-67.872L359.04 32.864c-18.72-18.72-49.152-18.72-67.872 0L119.584 204.512c-8.448-31.968-.544-67.36 24.512-92.416L257.248-1.024z"/><glyph unicode="" d="M120.64 227.68c20.448-20.448 50.528-27.616 77.888-19.456L47.36 359.36c-4.928 4.928-7.52 12.064-7.52 20.576 0 14.08 7.36 32.064 17.12 41.824 12.8 12.8 47.52 26.976 63.68 10.912l151.136-151.168a79.577 79.577 0 013.328 22.752c0 20.864-8.096 40.416-22.784 55.136L149.824 461.856c-30.784 30.784-91.968 19.232-122.08-10.88-17.472-17.472-28.32-44.544-28.32-70.656 0-20.288 6.656-38.112 18.72-50.176L120.64 227.68zm270.72-7.36c-20.448 20.448-50.528 27.616-77.888 19.456L464.64 88.608c4.928-4.928 7.52-12.032 7.52-20.576 0-14.08-7.36-32.064-17.12-41.824-12.8-12.8-47.52-26.976-63.68-10.912l-151.136 151.2a79.577 79.577 0 01-3.328-22.752c0-20.864 8.096-40.416 22.784-55.136L362.144-13.856c30.784-30.784 91.968-19.232 122.08 10.88 17.472 17.472 28.32 44.544 28.32 70.656 0 20.288-6.656 38.112-18.72 50.176L391.36 220.32zM146.624 333.408c-4.096-4.064-6.336-9.504-6.336-15.264s2.24-11.168 6.304-15.232l188.288-188.32c8.416-8.384 22.08-8.384 30.496 0 4.096 4.064 6.304 9.504 6.304 15.264s-2.24 11.168-6.304 15.232l-188.288 188.32c-8.384 8.384-22.08 8.384-30.464 0z"/><glyph unicode="" d="M432.32 114.88a2.912 2.912 1260 115.824 0 2.912 2.912 1260 11-5.824 0zm-64.288-66.336a5.792 5.792 1260 1111.584 0 5.792 5.792 1260 11-11.584 0zM281.376 14.4a8.704 8.704 1260 1117.408 0 8.704 8.704 1260 11-17.408 0zm-93.28 4.576a11.584 11.584 1260 1123.168 0 11.584 11.584 1260 11-23.168 0zM105.344 61.44a14.496 14.496 1260 1128.992 0 14.496 14.496 1260 11-28.992 0zm-57.312 72.192a17.408 17.408 1260 1134.816 0 17.408 17.408 1260 11-34.816 0zm-21.504 88.64a20.288 20.288 1260 1140.576 0 20.288 20.288 1260 11-40.576 0zm17.696 88.064a23.2 23.2 1260 1146.4 0 23.2 23.2 1260 11-46.4 0zm53.088 71.008a26.112 26.112 1260 1152.224 0 26.112 26.112 1260 11-52.224 0zm77.952 40.672a28.992 28.992 1260 1157.984 0 28.992 28.992 1260 11-57.984 0zm87.552 2.528a31.904 31.904 1260 1163.808 0 31.904 31.904 1260 11-63.808 0zm80.16-36.064a34.784 34.784 1260 1169.568 0 34.784 34.784 1260 11-69.568 0zm56.96-67.744a37.696 37.696 1260 1175.392 0 37.696 37.696 1260 11-75.392 0zm22.656-87.744a40.608 40.608 1260 1181.216 0 40.608 40.608 1260 11-81.216 0z"/><glyph unicode="" d="M256 480C114.624 480 0 365.376 0 224S114.624-32 256-32 512 82.624 512 224 397.376 480 256 480zm0-64c105.856 0 192-86.144 192-192 0-41.408-13.312-79.68-35.68-111.072L144.928 380.32C176.32 402.688 214.592 416 256 416zM64 224c0 41.408 13.312 79.68 35.68 111.072L367.072 67.68C335.648 45.312 297.408 32 256 32 150.144 32 64 118.144 64 224z"/><glyph unicode="" d="M480 416H32c-17.664 0-32-14.336-32-32v-64h512v64c0 17.664-14.336 32-32 32zm0-64H32v32h448v-32zM32 0c0-17.664 14.336-32 32-32h384c17.664 0 32 14.336 32 32v288H32V0zm32 256h384V0H64v256zm272-32H176c-8.832 0-16-7.168-16-16s7.168-16 16-16h160c8.832 0 16 7.168 16 16s-7.168 16-16 16z"/><glyph unicode="" d="M511.744 258.656C510.4 337.184 446.688 407.168 368 407.168c-45.504 0-85.6-23.808-112-58.752-26.4 34.944-66.496 58.752-112 58.752-78.688 0-142.4-69.984-143.744-148.512H0c0-.48.096-.928.096-1.408 0-.352-.096-.704-.096-1.088 0-2.208.544-3.872.64-5.984C7.68 50.048 253.984-32 253.984-32s249.92 81.952 257.312 281.856c.128 2.24.704 4 .704 6.304 0 .384-.096.736-.096 1.088 0 .512.096.928.096 1.408h-.256zm-32.416-7.616C473.664 97.44 298.272 19.36 254.048 2.112c-43.84 17.28-216.032 95.008-221.44 249.536-.064 1.6-.224 3.072-.448 4.672.032.576.064 1.184.096 1.792C33.344 321.568 84.512 375.168 144 375.168c32.832 0 64.352-16.768 86.464-46.048 6.048-8 15.488-12.704 25.536-12.704s19.488 4.704 25.536 12.704c22.112 29.28 53.632 46.048 86.464 46.048 59.488 0 110.656-53.6 111.744-117.056 0-.608.032-1.216.096-1.824a54.057 54.057 0 01-.512-5.248z"/><glyph unicode="" d="M510.144 272.864c-3.776 11.584-13.792 20.032-25.824 21.792L346.4 314.688l-61.696 124.96c-5.408 10.944-16.512 17.856-28.704 17.856s-23.296-6.912-28.704-17.856l-61.664-124.96-137.92-20.032c-12.064-1.76-22.08-10.208-25.824-21.792a31.946 31.946 0 018.096-32.8l99.808-97.28L86.24 5.408a32.03 32.03 0 0112.736-31.296C104.512-29.952 111.104-32 117.76-32a31.895 31.895 0 0114.88 3.68L256 36.544 379.36-28.32A31.895 31.895 0 01394.24-32c6.624 0 13.248 2.048 18.816 6.112a32.03 32.03 0 0112.736 31.296L402.24 142.784l99.808 97.28c8.704 8.48 11.84 21.216 8.096 32.8zM367.84 153.952L394.24 0 256 72.672 117.76 0l26.4 153.952L32.32 262.976l154.56 22.464L256 425.504l69.12-140.064 154.56-22.464-111.84-109.024z"/><glyph unicode="" d="M510.144 272.864c-3.776 11.584-13.792 20.032-25.856 21.76l-137.92 20.032-61.664 124.992c-5.408 10.944-16.512 17.856-28.704 17.856s-23.296-6.912-28.704-17.856l-61.664-124.96-137.92-20.032c-12.064-1.76-22.08-10.208-25.824-21.792a31.946 31.946 0 018.096-32.8l99.808-97.28L86.24 5.408a32.03 32.03 0 0112.736-31.296C104.512-29.952 111.104-32 117.76-32a31.895 31.895 0 0114.88 3.68L256 36.544 379.36-28.32A31.895 31.895 0 01394.24-32c6.624 0 13.248 2.048 18.816 6.112a32.03 32.03 0 0112.736 31.296L402.24 142.784l99.808 97.28a31.946 31.946 0 018.096 32.8zM367.84 153.952L394.24 0 256 72.672v352.832l69.12-140.064 154.56-22.464-111.84-109.024z"/><glyph unicode="" d="M332.096 291.712l-78.4 158.848-78.4-158.848L0 266.24l126.848-123.648L96.896-32l156.8 82.432L410.496-32l-29.952 174.592L507.392 266.24z"/><glyph unicode="" d="M256 50.432V450.56l-78.4-158.848L2.304 266.24l126.848-123.648L99.2-32z"/><glyph unicode="" d="M13.568 49.44c-18.752-18.752-18.752-49.12 0-67.872C22.944-27.808 35.232-32.48 47.52-32.48c12.288 0 24.576 4.672 33.952 14.048l157.6 157.6-67.904 67.872-157.6-157.6zm393.888 292.096l68.576 35.488L512 446.496 478.496 480l-69.472-35.968-35.488-68.576-83.584-83.584 33.92-33.92zm15.008-182.176c-2.176.128-4.256.64-6.464.64-11.712 0-22.816-2.4-33.184-6.24L185.76 350.816C189.6 361.184 192 372.288 192 384c0 2.208-.512 4.288-.64 6.464C187.968 440.416 146.816 480 96 480c-14.784 0-28.64-3.616-41.152-9.6l63.776-63.776c3.36-3.36 5.664-7.328 7.2-11.52 4.192-11.36 1.92-24.576-7.2-33.728A31.912 31.912 0 0096 352c-3.776 0-7.52.832-11.104 2.176-4.192 1.568-8.16 3.84-11.52 7.2L9.6 425.152C3.616 412.64 0 398.784 0 384c0-50.816 39.584-91.968 89.536-95.36 2.176-.128 4.256-.64 6.464-.64 11.712 0 22.816 2.4 33.184 6.24L326.24 97.184C322.4 86.816 320 75.712 320 64c0-2.208.512-4.288.64-6.464C324.032 7.584 365.184-32 416-32c14.784 0 28.64 3.616 41.152 9.6l-63.776 63.776c-3.36 3.36-5.664 7.328-7.2 11.52-4.192 11.36-1.92 24.576 7.2 33.728A31.912 31.912 0 00416 96c3.776 0 7.52-.832 11.104-2.176 4.192-1.568 8.16-3.84 11.52-7.2L502.4 22.848C508.384 35.36 512 49.216 512 64c0 50.816-39.584 91.968-89.536 95.36z"/><glyph unicode="" d="M416 96c3.776 0 7.52-.832 11.104-2.176 4.192-1.568 8.16-3.84 11.52-7.2L502.4 22.848C508.384 35.36 512 49.216 512 64c0 50.816-39.584 91.968-89.536 95.36-2.176.128-4.256.64-6.464.64-11.712 0-22.816-2.4-33.184-6.24L185.76 350.816C189.6 361.184 192 372.288 192 384c0 2.208-.512 4.288-.64 6.464C187.968 440.416 146.816 480 96 480c-14.784 0-28.64-3.616-41.152-9.6l63.776-63.776c3.36-3.36 5.664-7.328 7.2-11.52 4.192-11.36 1.92-24.576-7.2-33.728A31.912 31.912 0 0096 352c-3.776 0-7.52.832-11.104 2.176-4.192 1.568-8.16 3.84-11.52 7.2L9.6 425.152C3.616 412.64 0 398.784 0 384c0-50.816 39.584-91.968 89.536-95.36 2.176-.128 4.256-.64 6.464-.64 11.712 0 22.816 2.4 33.184 6.24L326.24 97.184C322.4 86.816 320 75.712 320 64c0-2.208.512-4.288.64-6.464C324.032 7.584 365.184-32 416-32c14.784 0 28.64 3.616 41.152 9.6l-63.776 63.776c-3.36 3.36-5.664 7.328-7.2 11.52-4.192 11.36-1.92 24.576 7.2 33.728A31.912 31.912 0 00416 96z"/><glyph unicode="" d="M440.416 277.088c-4.032 14.016-9.504 27.36-16.448 39.872l31.808 66.912a258.544 258.544 0 01-39.904 39.904l-66.912-31.808c-12.48 6.912-25.856 12.416-39.872 16.448l-24.896 69.952C274.944 479.392 265.536 480 256 480s-18.944-.608-28.192-1.632l-24.896-69.952c-13.984-4.032-27.36-9.536-39.84-16.448l-66.944 31.808a258.544 258.544 0 01-39.904-39.904l31.808-66.912c-6.912-12.48-12.416-25.856-16.448-39.872L1.632 252.192C.608 242.944 0 233.536 0 224s.608-18.944 1.632-28.192l69.984-24.896c4.032-14.016 9.504-27.36 16.448-39.872L56.256 64.128C68.064 49.408 81.44 36 96.16 24.224l66.912 31.808c12.48-6.912 25.856-12.416 39.872-16.448L227.84-30.4c9.216-.992 18.624-1.6 28.16-1.6s18.944.608 28.192 1.632l24.896 69.984c14.016 4.032 27.36 9.504 39.872 16.448l66.912-31.808C430.592 36.064 444 49.44 455.776 64.16l-31.808 66.912c6.912 12.48 12.416 25.856 16.448 39.872L510.4 195.84c.992 9.216 1.6 18.624 1.6 28.16s-.608 18.944-1.632 28.192l-69.952 24.896zM256 96c-70.688 0-128 57.312-128 128s57.312 128 128 128 128-57.312 128-128S326.688 96 256 96zm-64 128a64 64 1260 11128 0 64 64 1260 11-128 0z"/><glyph unicode="" d="M15.648 204.832l55.52 2.048c6.56-8.512 14.144-16.256 22.592-23.168l-3.648-55.584c6.08-3.456 12.352-6.656 18.944-9.504 6.56-2.848 13.216-5.184 19.904-7.264l37.92 40.8c10.848-1.376 21.664-1.568 32.32-.512l36.64-41.792a190.569 190.569 0 0139.328 15.648l-2.016 55.552c8.48 6.56 16.224 14.144 23.136 22.592L351.872 200c3.456 6.08 6.656 12.352 9.504 18.944 2.848 6.56 5.184 13.216 7.264 19.904l-40.8 37.92c1.376 10.848 1.568 21.664.512 32.32l41.792 36.64a190.569 190.569 0 01-15.648 39.328l-55.552-2.016c-6.56 8.48-14.144 16.224-22.592 23.136L280 461.76c-6.08 3.456-12.352 6.656-18.944 9.504-6.56 2.816-13.216 5.184-19.904 7.232l-37.888-40.8c-10.848 1.376-21.664 1.568-32.32.512L134.272 480a190.569 190.569 0 01-39.328-15.648l2.016-55.52c-8.48-6.56-16.224-14.112-23.136-22.56l-55.584 3.616c-3.456-6.08-6.656-12.352-9.504-18.944-2.816-6.56-5.184-13.216-7.232-19.904l40.8-37.92c-1.376-10.848-1.568-21.664-.512-32.32L0 244.16a191.284 191.284 0 0115.648-39.328zm207.424 178.272c48.672-20.992 71.136-77.472 50.144-126.176s-77.472-71.136-126.176-50.144-71.136 77.472-50.144 126.176 77.472 71.136 126.176 50.144zm-86.016-88.16a48 48 1260 1196 0 48 48 1260 11-96 0zm343.616-191.712l-13.248 4.704 6.048 12.736 13.92 29.28a112.766 112.766 0 01-17.472 17.472l-29.28-13.92-12.736-6.048-4.704 13.248-10.88 30.624c-4.032.416-8.16.672-12.32.672s-8.288-.256-12.352-.704l-10.88-30.624-4.704-13.248-12.736 6.048-29.28 13.92a112.766 112.766 0 01-17.472-17.472l13.92-29.28 6.048-12.736-13.248-4.704-30.624-10.88C288.256 88.288 288 84.16 288 80s.256-8.288.704-12.32l30.624-10.88 13.248-4.704-6.048-12.736-13.92-29.28A112.766 112.766 0 01330.08-7.392l29.28 13.92 12.736 6.048L376.8-.672l10.88-30.624c4.032-.448 8.16-.704 12.32-.704s8.288.256 12.352.704l10.88 30.624 4.704 13.248 12.736-6.048 29.28-13.92a112.766 112.766 0 0117.472 17.472l-13.92 29.28-6.048 12.736 13.248 4.704 30.624 10.88c.416 4.032.672 8.16.672 12.32s-.256 8.288-.704 12.352l-30.624 10.88zM400 56c-13.248 0-24 10.752-24 24s10.752 24 24 24 24-10.752 24-24-10.752-24-24-24z"/><glyph unicode="" d="M272 448C139.456 448 32 340.544 32 208S139.456-32 272-32 512 75.456 512 208 404.544 448 272 448zm107.328-219.328c-6.24-6.24-16.384-6.24-22.624 0L288 297.376V48c0-8.832-7.168-16-16-16s-16 7.168-16 16v249.376l-68.672-68.704c-6.24-6.24-16.384-6.24-22.624 0-6.24 6.24-6.24 16.384 0 22.624l96 96c.032.064.064.064.096.096 1.44 1.408 3.168 2.592 5.056 3.36a15.872 15.872 0 0012.224 0 16.017 16.017 0 005.248-3.424l96-96c6.24-6.272 6.24-16.384 0-22.656z"/><glyph unicode="" d="M272 448C139.456 448 32 340.544 32 208S139.456-32 272-32 512 75.456 512 208 404.544 448 272 448zm107.328-283.328l-96-96a15.831 15.831 0 00-5.184-3.456 15.872 15.872 0 00-12.224 0c-1.92.8-3.616 1.952-5.056 3.36-.032.032-.096.032-.128.096l-96 96c-6.24 6.24-6.24 16.384 0 22.624 6.24 6.24 16.384 6.24 22.624 0L256 118.624V368c0 8.832 7.168 16 16 16s16-7.168 16-16V118.624l68.672 68.672c6.24 6.24 16.384 6.24 22.624 0 6.272-6.24 6.272-16.352.032-22.624z"/><glyph unicode="" d="M272 448C139.456 448 32 340.544 32 208S139.456-32 272-32 512 75.456 512 208 404.544 448 272 448zm176-240c0-8.832-7.168-16-16-16H182.624l68.672-68.672c6.24-6.24 6.24-16.384 0-22.624-6.24-6.24-16.384-6.24-22.624 0l-96 96c-.032.032-.064.096-.096.16-1.408 1.44-2.56 3.136-3.328 5.024-.8 1.952-1.248 4-1.248 6.048V208c0 2.08.416 4.16 1.248 6.112.768 1.888 1.92 3.584 3.328 5.024.064.064.064.128.128.192l96 96c6.24 6.24 16.384 6.24 22.624 0 6.24-6.24 6.24-16.384 0-22.624L182.624 224H432c8.832 0 16-7.168 16-16z"/><glyph unicode="" d="M272 448C139.456 448 32 340.544 32 208S139.456-32 272-32 512 75.456 512 208 404.544 448 272 448zm144-240v-.064c0-2.08-.416-4.128-1.216-6.048a15.831 15.831 0 00-3.456-5.184l-96-96c-6.24-6.24-16.384-6.24-22.624 0-6.24 6.24-6.24 16.384 0 22.624L361.376 192H112c-8.832 0-16 7.168-16 16s7.168 16 16 16h249.376l-68.704 68.672c-6.24 6.24-6.24 16.384 0 22.624 6.24 6.24 16.384 6.24 22.624 0l96-96a15.831 15.831 0 003.456-5.184A15.585 15.585 0 00416 208z"/><glyph unicode="" d="M102.304 377.696C8.576 283.968 8.576 132 102.304 38.272c93.728-93.728 245.696-93.728 339.424 0 93.728 93.728 93.728 245.696 0 339.424-93.76 93.728-245.696 93.728-339.424 0zM390.976 89.024c-6.24-6.24-16.384-6.24-22.624 0L192 265.376v-97.152c0-8.832-7.168-16-16-16s-16 7.168-16 16V304c0 2.08.416 4.16 1.248 6.112.768 1.888 1.92 3.584 3.328 5.024.064.064.064.128.128.192.032.032.064.032.096.064 1.44 1.408 3.168 2.592 5.056 3.36A15.857 15.857 0 00176 320h135.776c8.832 0 16-7.168 16-16s-7.168-16-16-16h-97.152l176.32-176.32c6.272-6.272 6.272-16.384.032-22.656z"/><glyph unicode="" d="M102.304 377.696C8.576 283.968 8.576 132 102.304 38.272c93.728-93.728 245.696-93.728 339.424 0 93.728 93.728 93.728 245.696 0 339.424-93.76 93.728-245.696 93.728-339.424 0zM384 304V168.224c0-8.832-7.168-16-16-16s-16 7.168-16 16v97.152L175.68 89.056c-6.24-6.24-16.384-6.24-22.624 0-6.24 6.24-6.24 16.384 0 22.624L329.376 288h-97.152c-8.832 0-16 7.168-16 16s7.168 16 16 16H368c2.08 0 4.16-.416 6.112-1.248 3.904-1.632 7.04-4.736 8.64-8.64A15.585 15.585 0 00384 304z"/><glyph unicode="" d="M102.304 377.696C8.576 283.968 8.576 132 102.304 38.272c93.728-93.728 245.696-93.728 339.424 0 93.728 93.728 93.728 245.696 0 339.424-93.76 93.728-245.696 93.728-339.424 0zM384 112v-.064c0-2.08-.416-4.128-1.216-6.048-1.632-3.904-4.736-7.04-8.64-8.64A15.857 15.857 0 00368 96H232.224c-8.832 0-16 7.168-16 16s7.168 16 16 16h97.152l-176.32 176.32c-6.24 6.24-6.24 16.384 0 22.624s16.384 6.24 22.624 0L352 150.624v97.152c0 8.832 7.168 16 16 16s16-7.168 16-16V112z"/><glyph unicode="" d="M102.304 377.696C8.576 283.968 8.576 132 102.304 38.272c93.728-93.728 245.696-93.728 339.424 0 93.728 93.728 93.728 245.696 0 339.424-93.76 93.728-245.696 93.728-339.424 0zm288.672-73.376L214.624 128h97.152c8.832 0 16-7.168 16-16s-7.168-16-16-16H176c-2.08 0-4.16.416-6.112 1.248-1.92.8-3.616 1.952-5.056 3.36-.032.032-.096.032-.128.096-.064.064-.064.128-.128.192-1.408 1.44-2.56 3.136-3.328 5.024-.8 1.92-1.248 3.968-1.248 6.016v135.84c0 8.832 7.168 16 16 16s16-7.168 16-16v-97.152l176.32 176.32c6.24 6.24 16.384 6.24 22.624 0s6.272-16.352.032-22.624z"/><glyph unicode="" d="M480 480H32c-17.664 0-32-14.336-32-32V0c0-17.664 14.336-32 32-32h448c17.664 0 32 14.336 32 32v448c0 17.664-14.336 32-32 32zM224 176V48c0-8.832-7.168-16-16-16s-16 7.168-16 16v89.376L91.328 36.704c-6.24-6.24-16.384-6.24-22.624 0-6.24 6.24-6.24 16.384 0 22.624L169.376 160H80c-8.832 0-16 7.168-16 16s7.168 16 16 16h128c2.08 0 4.16-.416 6.112-1.248 3.904-1.632 7.04-4.736 8.64-8.64A15.585 15.585 0 00224 176zm208 112c8.832 0 16-7.168 16-16s-7.168-16-16-16H304c-2.08 0-4.16.416-6.112 1.248-1.92.768-3.616 1.92-5.088 3.36-.032.032-.064.032-.128.064l-.096.192c-1.408 1.44-2.56 3.136-3.328 5.024-.8 1.952-1.248 4-1.248 6.048V400c0 8.832 7.168 16 16 16s16-7.168 16-16v-89.376l100.672 100.672c6.24 6.24 16.384 6.24 22.624 0 6.24-6.24 6.24-16.384 0-22.624L342.624 288H432z"/><glyph unicode="" d="M480 480H32c-17.664 0-32-14.336-32-32V0c0-17.664 14.336-32 32-32h448c17.664 0 32 14.336 32 32v448c0 17.664-14.336 32-32 32zM208 64c8.832 0 16-7.168 16-16s-7.168-16-16-16H80c-2.08 0-4.16.416-6.112 1.248-1.92.8-3.616 1.952-5.056 3.36-.032.032-.096.032-.128.096-.064.064-.064.128-.128.192-1.408 1.44-2.56 3.136-3.328 5.024-.8 1.92-1.248 3.968-1.248 6.016V176c0 8.832 7.168 16 16 16s16-7.168 16-16V86.624l100.672 100.672c6.24 6.24 16.384 6.24 22.624 0 6.24-6.24 6.24-16.384 0-22.624L118.624 64H208zm240 336V272c0-8.832-7.168-16-16-16s-16 7.168-16 16v89.376L315.328 260.672c-6.24-6.24-16.384-6.24-22.624 0-6.24 6.24-6.24 16.384 0 22.624L393.376 384H304c-8.832 0-16 7.168-16 16s7.168 16 16 16h128c2.08 0 4.16-.416 6.112-1.248 3.904-1.632 7.04-4.736 8.64-8.64A15.585 15.585 0 00448 400z"/><glyph unicode="" d="M272-32c132.544 0 240 107.456 240 240S404.544 448 272 448 32 340.544 32 208 139.456-32 272-32zM156.864 179.424L260.64 283.2c3.136 3.136 7.232 4.672 11.36 4.672 4.128 0 8.224-1.536 11.36-4.672l103.776-103.776c6.24-6.24 6.24-16.384 0-22.624-6.24-6.24-16.384-6.24-22.624 0L272 249.312 179.488 156.8c-6.24-6.24-16.384-6.24-22.624 0-6.24 6.24-6.24 16.384 0 22.624z"/><glyph unicode="" d="M272 448C139.456 448 32 340.544 32 208S139.456-32 272-32 512 75.456 512 208 404.544 448 272 448zm115.136-211.424L283.36 132.8a15.876 15.876 0 00-11.36-4.672c-4.128 0-8.224 1.536-11.36 4.672L156.864 236.576c-6.24 6.24-6.24 16.384 0 22.624 6.24 6.24 16.384 6.24 22.624 0L272 166.688l92.512 92.512c6.24 6.24 16.384 6.24 22.624 0 6.24-6.24 6.24-16.384 0-22.624z"/><glyph unicode="" d="M272 448C139.456 448 32 340.544 32 208S139.456-32 272-32 512 75.456 512 208 404.544 448 272 448zm51.2-332.512c6.24-6.24 6.24-16.384 0-22.624-6.24-6.24-16.384-6.24-22.624 0L196.8 196.64c-3.136 3.136-4.672 7.232-4.672 11.36 0 4.128 1.536 8.224 4.672 11.36l103.776 103.776c6.24 6.24 16.384 6.24 22.624 0 6.24-6.24 6.24-16.384 0-22.624L230.688 208l92.512-92.512z"/><glyph unicode="" d="M272 448C139.456 448 32 340.544 32 208S139.456-32 272-32 512 75.456 512 208 404.544 448 272 448zm75.2-251.36L243.424 92.864c-6.24-6.24-16.384-6.24-22.624 0-6.24 6.24-6.24 16.384 0 22.624L313.312 208 220.8 300.512c-6.24 6.24-6.24 16.384 0 22.624 6.24 6.24 16.384 6.24 22.624 0L347.2 219.36a15.876 15.876 0 004.672-11.36c0-4.128-1.536-8.224-4.672-11.36z"/><glyph unicode="" d="M272 448C139.456 448 32 340.544 32 208S139.456-32 272-32 512 75.456 512 208 404.544 448 272 448zM391.232 99.072c-6.272-6.272-16.48-6.272-22.752 0l-95.872 84.8-95.872-84.8c-6.272-6.272-16.48-6.272-22.752 0-6.272 6.272-6.272 16.48 0 22.752l107.04 94.688c3.2 3.2 7.392 4.736 11.584 4.672 4.192.096 8.384-1.44 11.584-4.64l107.04-94.688a16.088 16.088 0 000-22.784zm0 114.752c-6.272-6.272-16.48-6.272-22.752 0l-95.904 84.832-95.872-84.832c-6.272-6.272-16.48-6.272-22.752 0-6.272 6.272-6.272 16.48 0 22.752l107.04 94.688c3.2 3.2 7.392 4.736 11.584 4.672 4.224.096 8.416-1.44 11.616-4.64l107.04-94.688a16.088 16.088 0 000-22.784z"/><glyph unicode="" d="M273.056 445.856c-131.968 0-238.944-106.976-238.944-238.944S141.12-32 273.056-32 512 74.976 512 206.944 405.024 445.856 273.056 445.856zm116.992-266.464l-107.04-94.688c-3.2-3.2-7.392-4.736-11.584-4.672-4.224-.032-8.416 1.472-11.616 4.672l-107.04 94.688c-6.272 6.272-6.272 16.48 0 22.752 6.272 6.272 16.48 6.272 22.752 0l95.872-84.8 95.872 84.8c6.272 6.272 16.48 6.272 22.752 0s6.336-16.448.032-22.752zm0 114.752l-107.04-94.688c-3.2-3.2-7.392-4.736-11.584-4.672-4.224-.032-8.416 1.472-11.616 4.672l-107.04 94.688c-6.272 6.272-6.272 16.48 0 22.752 6.272 6.304 16.48 6.304 22.752.032l95.872-84.8 95.872 84.8c6.272 6.272 16.48 6.272 22.752 0s6.336-16.48.032-22.784z"/><glyph unicode="" d="M273.152 445.728c-131.904 0-238.848-106.944-238.848-238.848C34.272 74.944 141.216-32 273.152-32 405.056-32 512 74.944 512 206.848c0 131.936-106.944 238.88-238.848 238.88zm-6.976-355.776c-6.272-6.272-16.48-6.272-22.752 0l-94.72 107.04c-3.2 3.2-4.736 7.424-4.672 11.616-.032 4.192 1.472 8.384 4.672 11.584l94.688 107.04c6.272 6.272 16.48 6.272 22.752 0s6.272-16.48 0-22.752l-84.8-95.872 84.8-95.872c6.304-6.304 6.304-16.512.032-22.784zm114.752 22.752c6.272-6.272 6.272-16.48 0-22.752s-16.48-6.272-22.752 0l-94.72 107.04c-3.2 3.2-4.736 7.424-4.672 11.616-.032 4.192 1.472 8.384 4.672 11.584l94.688 107.04c6.272 6.272 16.48 6.272 22.752 0s6.272-16.48 0-22.752l-84.8-95.872 84.832-95.904z"/><glyph unicode="" d="M273.152 445.696c-131.904 0-238.848-106.944-238.848-238.848S141.248-32 273.152-32 512 74.944 512 206.848 405.056 445.696 273.152 445.696zM163.072 88.768c-6.272 6.272-6.272 16.48 0 22.752l84.8 95.872-84.8 95.872c-6.272 6.304-6.272 16.512 0 22.784s16.48 6.272 22.752 0l94.688-107.04c3.2-3.2 4.736-7.392 4.672-11.584.096-4.224-1.44-8.416-4.64-11.616l-94.688-107.04a16.088 16.088 0 00-22.784 0zm232.224 107.04l-94.688-107.04c-6.272-6.272-16.48-6.272-22.752 0s-6.272 16.48 0 22.752l84.8 95.872-84.8 95.872c-6.272 6.272-6.272 16.48 0 22.752s16.48 6.272 22.752 0l94.688-107.04c3.2-3.2 4.736-7.392 4.672-11.584.032-4.192-1.472-8.384-4.672-11.584z"/><glyph unicode="" d="M272 448C139.456 448 32 340.544 32 208S139.456-32 272-32 512 75.456 512 208 404.544 448 272 448zm107.584-282.432l-.064.064c-2.528-3.424-6.08-5.632-10.08-5.632H173.92c-3.936 0-7.456 2.08-9.984 5.408-.032.064-.096.096-.16.16-5.44 6.944-5.44 18.208 0 25.152l97.76 123.424c.128.192.192.448.352.64 5.44 6.944 14.304 6.944 19.744 0l97.984-124.064c5.44-6.944 5.44-18.208-.032-25.152z"/><glyph unicode="" d="M272 448C139.456 448 32 340.544 32 208S139.456-32 272-32 512 75.456 512 208 404.544 448 272 448zm107.584-222.72l-97.76-123.424c-.128-.192-.192-.448-.352-.64-5.44-6.944-14.304-6.944-19.744 0L163.776 225.28c-5.44 6.944-5.44 18.208 0 25.152l.064-.064c2.528 3.424 6.08 5.632 10.08 5.632h195.52c3.936 0 7.456-2.08 9.984-5.408.064-.064.128-.064.16-.128 5.472-6.976 5.472-18.24 0-25.184z"/><glyph unicode="" d="M272 448C139.456 448 32 340.544 32 208S139.456-32 272-32 512 75.456 512 208 404.544 448 272 448zm48-337.44c0-3.936-2.08-7.456-5.408-9.984-.064-.064-.064-.128-.128-.16-6.944-5.44-18.208-5.44-25.152 0l-123.456 97.728c-.192.16-.448.192-.64.352-6.944 5.44-6.944 14.304 0 19.744l124.064 97.984c6.944 5.44 18.208 5.44 25.152 0l-.064-.064c3.424-2.528 5.632-6.08 5.632-10.08V110.56z"/><glyph unicode="" d="M272 448C139.456 448 32 340.544 32 208S139.456-32 272-32 512 75.456 512 208 404.544 448 272 448zm106.784-249.6L254.72 100.416c-6.944-5.44-18.208-5.44-25.152 0l.064.064c-3.424 2.528-5.632 6.08-5.632 10.08v195.52c0 3.936 2.08 7.456 5.408 9.984.064.032.096.096.16.16 6.944 5.44 18.208 5.44 25.152 0l123.424-97.76c.192-.16.448-.192.64-.352 6.944-5.44 6.944-14.272 0-19.712z"/><glyph unicode="" d="M272 448C139.456 448 32 340.544 32 208S139.456-32 272-32 512 75.456 512 208 404.544 448 272 448zm128-256H144c-8.832 0-16 7.168-16 16s7.168 16 16 16h256c8.832 0 16-7.168 16-16s-7.168-16-16-16z"/><glyph unicode="" d="M272 448C139.456 448 32 340.544 32 208S139.456-32 272-32 512 75.456 512 208 404.544 448 272 448zm128-256H288V80c0-8.832-7.168-16-16-16s-16 7.168-16 16v112H144c-8.832 0-16 7.168-16 16s7.168 16 16 16h112v112c0 8.832 7.168 16 16 16s16-7.168 16-16V224h112c8.832 0 16-7.168 16-16s-7.168-16-16-16z"/><glyph unicode="" d="M272 448C139.456 448 32 340.544 32 208S139.456-32 272-32 512 75.456 512 208 404.544 448 272 448zm111.2-151.424l-89.184-89.184 78.912-87.968c6.24-6.24 6.24-16.384 0-22.624s-16.384-6.24-22.624 0l-78.912 87.968L183.424 96.8c-6.24-6.24-16.384-6.24-22.624 0-6.24 6.24-6.24 16.384 0 22.624l89.184 89.184-78.912 87.968c-6.24 6.24-6.24 16.384 0 22.624 6.24 6.24 16.384 6.24 22.624 0l78.912-87.968 87.968 87.968c6.24 6.24 16.384 6.24 22.624 0 6.24-6.24 6.24-16.384 0-22.624z"/><glyph unicode="" d="M257.344 480c-141.376 0-256-114.624-256-256s114.624-256 256-256 256 114.624 256 256-114.624 256-256 256zm118.592-185.184L253.312 107.392c-.032-.032-.096-.064-.096-.096-.64-.96-.992-2.048-1.792-2.944-1.12-1.216-2.56-1.856-3.84-2.784-.32-.224-.64-.48-.992-.704-1.984-1.248-4.032-2.08-6.272-2.624-.736-.192-1.408-.384-2.176-.512-1.824-.256-3.552-.256-5.376-.064-1.28.096-2.496.256-3.744.576-1.28.352-2.464.896-3.68 1.472-1.024.48-2.112.608-3.072 1.216-.704.448-1.088 1.152-1.696 1.696-.256.224-.576.288-.832.512l-71.392 66.016c-9.088 8.416-9.632 22.592-1.248 31.648s22.56 9.632 31.648 1.248l51.68-47.808 108 165.088c6.784 10.336 20.64 13.248 31.008 6.496 10.368-6.784 13.28-20.672 6.496-31.008z"/><glyph unicode="" d="M304 480c-114.88 0-208-93.12-208-208 0-49.44 17.312-94.752 46.112-130.464L6.528 5.952c-8.672-8.672-8.672-22.752 0-31.424s22.752-8.672 31.424 0l135.584 135.584C209.248 81.312 254.56 64 304 64c114.88 0 208 93.12 208 208s-93.12 208-208 208zm96-224H208c-8.832 0-16 7.168-16 16s7.168 16 16 16h192c8.832 0 16-7.168 16-16s-7.168-16-16-16z"/><glyph unicode="" d="M304 480c-114.88 0-208-93.12-208-208 0-49.44 17.312-94.752 46.112-130.464L6.528 5.952c-8.672-8.672-8.672-22.752 0-31.424s22.752-8.672 31.424 0l135.584 135.584C209.248 81.312 254.56 64 304 64c114.88 0 208 93.12 208 208s-93.12 208-208 208zm96-224h-80v-80c0-8.832-7.168-16-16-16s-16 7.168-16 16v80h-80c-8.832 0-16 7.168-16 16s7.168 16 16 16h80v80c0 8.832 7.168 16 16 16s16-7.168 16-16v-80h80c8.832 0 16-7.168 16-16s-7.168-16-16-16z"/><glyph unicode="" d="M256 480C114.624 480 0 365.376 0 224S114.624-32 256-32 512 82.624 512 224 397.376 480 256 480zm96-320c0-17.664-14.336-32-32-32H192c-17.664 0-32 14.336-32 32v128c0 17.664 14.336 32 32 32h128c17.664 0 32-14.336 32-32V160z"/><glyph unicode="" d="M480 448H64c-17.664 0-32-14.336-32-32V0c0-17.664 14.336-32 32-32h416c17.664 0 32 14.336 32 32v416c0 17.664-14.336 32-32 32zM400 96H144c-8.832 0-16 7.168-16 16s7.168 16 16 16h256c8.832 0 16-7.168 16-16s-7.168-16-16-16zm0 96H144c-8.832 0-16 7.168-16 16s7.168 16 16 16h256c8.832 0 16-7.168 16-16s-7.168-16-16-16zm0 96H144c-8.832 0-16 7.168-16 16s7.168 16 16 16h256c8.832 0 16-7.168 16-16s-7.168-16-16-16z"/><glyph unicode="" d="M272 448C139.456 448 32 340.544 32 208S139.456-32 272-32 512 75.456 512 208 404.544 448 272 448zM400 96H144c-8.832 0-16 7.168-16 16s7.168 16 16 16h256c8.832 0 16-7.168 16-16s-7.168-16-16-16zm0 96H144c-8.832 0-16 7.168-16 16s7.168 16 16 16h256c8.832 0 16-7.168 16-16s-7.168-16-16-16zm0 96H144c-8.832 0-16 7.168-16 16s7.168 16 16 16h256c8.832 0 16-7.168 16-16s-7.168-16-16-16z"/><glyph unicode="" d="M64-32h385.344c17.664 0 32 14.336 32 32v448c0 17.664-14.336 32-32 32H64c-17.664 0-32-14.336-32-32V0c0-17.664 14.336-32 32-32zm176 416h129.344c8.832 0 16-7.168 16-16s-7.168-16-16-16H240c-8.832 0-16 7.168-16 16s7.168 16 16 16zm-96-96h225.344c8.832 0 16-7.168 16-16s-7.168-16-16-16H144c-8.832 0-16 7.168-16 16s7.168 16 16 16zm0-96h225.344c8.832 0 16-7.168 16-16s-7.168-16-16-16H144c-8.832 0-16 7.168-16 16s7.168 16 16 16zm0-96h225.344c8.832 0 16-7.168 16-16s-7.168-16-16-16H144c-8.832 0-16 7.168-16 16s7.168 16 16 16z"/><glyph unicode="" d="M64 32h32V0c0-17.664 14.336-32 32-32h320c17.664 0 32 14.336 32 32v384c0 17.664-14.336 32-32 32h-32v32c0 17.664-14.336 32-32 32H64c-17.664 0-32-14.336-32-32V64c0-17.664 14.336-32 32-32zm384 352V0H128v32h256c17.664 0 32 14.336 32 32v320h32zm-112 32c8.832 0 16-7.168 16-16s-7.168-16-16-16H206.656c-8.832 0-16 7.168-16 16s7.168 16 16 16H336zm-225.344-96H336c8.832 0 16-7.168 16-16s-7.168-16-16-16H110.656c-8.832 0-16 7.168-16 16s7.168 16 16 16zm0-96H336c8.832 0 16-7.168 16-16s-7.168-16-16-16H110.656c-8.832 0-16 7.168-16 16s7.168 16 16 16zm0-96H336c8.832 0 16-7.168 16-16s-7.168-16-16-16H110.656c-8.832 0-16 7.168-16 16s7.168 16 16 16z"/><glyph unicode="" d="M480 480H32c-17.664 0-32-14.336-32-32V0c0-17.664 14.336-32 32-32h448c17.664 0 32 14.336 32 32v448c0 17.664-14.336 32-32 32zM89.184 333.248c-15.904 15.904-15.904 41.664 0 57.568 15.904 15.904 41.664 15.904 57.568 0l42.368-42.368-57.568-57.568-42.368 42.368zM329.92 92.512l-164.48 164.48 57.568 57.568 164.48-164.48L416 64l-86.08 28.512z"/><glyph unicode="" d="M480 384H320c-17.664 0-32-14.336-32-32 0 0-4.16-29.344-32-32H32c-17.664 0-32-13.824-32-31.488V0c0-17.664 14.336-32 32-32h448c17.664 0 32 14.336 32 32v352c0 17.664-14.336 32-32 32z"/><glyph unicode="" d="M480 416H320c-17.664 0-32-14.336-32-32 0 0-4.16-29.344-32-32H32c-17.664 0-32-13.824-32-31.488V288h512v96c0 17.664-14.336 32-32 32zM0 0c0-17.664 14.336-32 32-32h448c17.664 0 32 14.336 32 32v256H0V0z"/><glyph unicode="" d="M480 384H352c-17.664 0-32-14.336-32-32 0 0-4.16-29.344-32-32H64c-17.664 0-32-14.336-32-32V0c0-17.664 14.336-32 32-32h416c17.664 0 32 14.336 32 32v352c0 17.664-14.336 32-32 32zM368 128h-80V48c0-8.832-7.168-16-16-16s-16 7.168-16 16v80h-80c-8.832 0-16 7.168-16 16s7.168 16 16 16h80v80c0 8.832 7.168 16 16 16s16-7.168 16-16v-80h80c8.832 0 16-7.168 16-16s-7.168-16-16-16z"/><glyph unicode="" d="M480 416H320c-17.664 0-32-14.336-32-32 0 0-4.16-29.344-32-32H32c-17.664 0-32-13.824-32-31.488V32C0 14.336 14.336 0 32 0h192.096v160h-67.904l99.904 128L356 160h-67.904V0H480c17.664 0 32 14.336 32 32v352c0 17.664-14.336 32-32 32z"/><glyph unicode="" d="M480 416H320c-17.664 0-32-14.336-32-32 0 0-4.16-29.344-32-32H32c-17.664 0-32-13.824-32-31.488V32C0 14.336 14.336 0 32 0h448c17.664 0 32 14.336 32 32v352c0 17.664-14.336 32-32 32zM256.096.192l-99.904 128h67.904v128c0 17.664 14.336 32 32 32s32-14.336 32-32v-128H356l-99.904-128z"/><glyph unicode="" d="M256 480C114.624 480 0 365.376 0 224S114.624-32 256-32 512 82.624 512 224 397.376 480 256 480zm-32-224c0 17.664 14.336 32 32 32s32-14.336 32-32V96c0-17.664-14.336-32-32-32s-32 14.336-32 32v160zm32 63.488c-17.664 0-32 14.336-32 32s14.336 32 32 32 32-14.336 32-32-14.336-32-32-32z"/><glyph unicode="" d="M256-32c141.376 0 256 114.624 256 256S397.376 480 256 480 0 365.376 0 224 114.624-32 256-32zm32 224c0-17.664-14.336-32-32-32s-32 14.336-32 32v160c0 17.664 14.336 32 32 32s32-14.336 32-32V192zm-32-63.488c17.664 0 32-14.336 32-32s-14.336-32-32-32-32 14.336-32 32 14.336 32 32 32z"/><glyph unicode="" d="M371.424 470.624A31.99 31.99 0 01348.768 480H163.232c-8.48 0-16.64-3.36-22.624-9.376L9.408 339.392C3.36 333.408 0 325.28 0 316.768V131.2c0-8.48 3.36-16.64 9.376-22.624l131.2-131.232A32.094 32.094 0 01163.232-32H348.8c8.48 0 16.64 3.36 22.624 9.376l131.2 131.232c6.016 5.984 9.376 14.112 9.376 22.624v185.536c0 8.48-3.36 16.64-9.376 22.624l-131.2 131.232zM256 160c-17.664 0-32 14.336-32 32v192c0 17.664 14.336 32 32 32s32-14.336 32-32V192c0-17.664-14.336-32-32-32zm32-96c0-17.664-14.336-32-32-32s-32 14.336-32 32 14.336 32 32 32 32-14.336 32-32z"/><glyph unicode="" d="M32.992-32h444.992a32.007 32.007 0 0127.456 15.552c5.792 9.632 6.08 21.6.8 31.52l-222.016 416A31.956 31.956 0 01256.032 448H256a31.964 31.964 0 01-28.192-16.896L4.8 15.104a32.056 32.056 0 01.736-31.552C11.328-26.08 21.76-32 32.992-32zM256 96c17.664 0 32-14.336 32-32s-14.336-32-32-32-32 14.336-32 32 14.336 32 32 32zm-32 63.488v128c0 17.664 14.336 32 32 32s32-14.336 32-32v-128c0-17.664-14.336-32-32-32s-32 14.336-32 32z"/><glyph unicode="" d="M256-32c141.376 0 256 114.624 256 256S397.376 480 256 480 0 365.376 0 224 114.624-32 256-32zm0 448c63.712 0 128-36.48 128-118.016 0-47.456-23.52-84.512-69.888-110.016C300.672 180.576 288 165.952 288 160c0-17.664-14.336-32-32-32s-32 14.336-32 32c0 40.608 37.248 71.936 59.264 84.032C315.616 261.888 320 281.344 320 297.984 320 344.992 279.904 352 256 352c-30.816 0-64-20.224-64-64.672 0-17.664-14.336-32-32-32s-32 14.336-32 32C128 370.912 193.952 416 256 416zm0-385.408c-18.208 0-32.96 14.752-32.96 32.96s14.752 32.96 32.96 32.96 32.96-14.752 32.96-32.96-14.752-32.96-32.96-32.96z"/><glyph unicode="" d="M81.248 88.288C71.872 64.064 55.968 32.384 28.992 0 80.16 0 145.984 6.72 196.704 37.824 215.776 34.144 235.552 32 256 32c141.376 0 256 93.12 256 208S397.376 448 256 448 0 354.88 0 240c0-59.904 31.36-113.76 81.248-151.712z"/><glyph unicode="" d="M446.56 291.36c2.816-12.672 4.448-25.696 4.448-39.072 0-103.296-87.68-189.408-203.136-207.904 24.416-9.856 51.776-15.616 80.928-15.616 27.488 0 53.44 5.056 76.864 13.856 29.664-10.112 62.048-12.736 88.832-12.736-13.92 16.704-23.584 33.088-30.496 47.488 29.696 26.496 48 61.6 48 100.256 0 45.696-25.504 86.432-65.44 113.728zm-43.552-39.072c0 90.4-90.208 163.712-201.504 163.712S0 342.688 0 252.288c0-47.168 24.672-89.536 63.968-119.424-7.392-19.072-19.904-44-41.12-69.504 40.256 0 92.096 5.28 132 29.792 15.008-2.912 30.592-4.608 46.656-4.608 111.296.032 201.504 73.312 201.504 163.744z"/><glyph unicode="" d="M32 91.936h73.44c5.792-5.76 139.232-118.08 139.232-118.08 8.032-4.864 14.848-6.272 20.672-5.728 11.84 1.12 20.16 11.04 22.688 21.504.128 1.024.128 467.712-.032 468.736-2.496 10.496-10.848 20.416-22.656 21.536-5.824.544-12.64-.864-20.672-5.728 0 0-133.44-116.416-139.232-122.176H32c-17.664 0-32-14.336-32-32V123.936c0-17.696 14.336-32 32-32zm474.272 214.912c-7.616 7.616-20 7.616-27.616 0l-55.232-55.232-55.232 55.232c-7.616 7.616-20 7.616-27.616 0s-7.616-20 0-27.616L395.808 224l-55.232-55.232c-7.616-7.616-7.616-20 0-27.616s20-7.616 27.616 0l55.232 55.232 55.232-55.232c7.616-7.616 20-7.616 27.616 0s7.616 20 0 27.616L451.04 224l55.232 55.232c7.648 7.616 7.648 20 0 27.616z"/><glyph unicode="" d="M329.344 479.904c-5.824.544-12.64-.864-20.672-5.728 0 0-133.44-116.416-139.232-122.176H96c-17.664 0-32-14.336-32-32V123.936c0-17.664 14.336-32 32-32h73.44c5.792-5.76 139.232-118.08 139.232-118.08 8.032-4.864 14.848-6.272 20.672-5.728 11.84 1.12 20.16 11.04 22.688 21.504.16 1.024.16 467.744 0 468.736-2.528 10.496-10.88 20.416-22.688 21.536zm71.968-311.808c-7.904-4-11.072-13.6-7.104-21.504a16.013 16.013 0 0114.272-8.8c2.432 0 4.864.544 7.2 1.696 32.352 16.32 52.448 48.672 52.448 84.512s-20.096 68.192-52.448 84.512c-7.904 4-17.504.8-21.472-7.104s-.8-17.504 7.104-21.504c21.472-10.816 34.816-32.224 34.816-55.904s-13.344-45.088-34.816-55.904z"/><glyph unicode="" d="M32 91.936h73.44c5.792-5.76 139.232-118.08 139.232-118.08 8.032-4.864 14.848-6.272 20.672-5.728 11.84 1.12 20.16 11.04 22.688 21.504.128 1.024.128 467.712-.032 468.736-2.496 10.496-10.848 20.416-22.656 21.536-5.824.544-12.64-.864-20.672-5.728 0 0-133.44-116.416-139.232-122.176H32c-17.664 0-32-14.336-32-32V123.936c0-17.696 14.336-32 32-32zm305.312 76.16c-7.904-4-11.072-13.6-7.104-21.504a16.013 16.013 0 0114.272-8.8c2.432 0 4.864.544 7.2 1.696 32.352 16.32 52.448 48.672 52.448 84.512s-20.096 68.192-52.448 84.512c-7.904 4-17.472.8-21.472-7.104-3.968-7.904-.8-17.504 7.104-21.504 21.472-10.816 34.816-32.224 34.816-55.904s-13.344-45.088-34.816-55.904zM315.296 40.352c1.504-7.648 8.192-12.928 15.68-12.928 1.024 0 2.048.096 3.104.288C427.904 46.016 496 128.576 496 224s-68.096 177.984-161.952 196.288c-8.544 1.728-17.088-3.968-18.752-12.64-1.696-8.672 3.968-17.088 12.64-18.784C406.784 373.504 464 304.16 464 224S406.784 74.496 327.936 59.136c-8.672-1.696-14.336-10.112-12.64-18.784z"/><glyph unicode="" d="M256 480C114.624 480 0 365.376 0 224S114.624-32 256-32 512 82.624 512 224 397.376 480 256 480zm128.416-251.328c-1.984-32.832-16.8-81.984-76.096-129.824-2.848-2.272-6.176-3.392-9.504-3.392-4.64 0-9.216 2.144-12.256 6.24-5.248 7.04-4.032 17.152 2.752 22.592 48.288 38.944 61.504 77.088 63.84 103.264-6.816-3.968-14.528-6.4-22.88-6.4-26.048 0-47.136 21.92-47.136 48.96s21.088 48.96 47.136 48.96c5.888 0 11.296-1.536 16.448-3.616l-.192.384s2.272-.832 5.44-2.592c.16-.096.32-.128.48-.192.096-.064.16-.128.256-.192 2.176-1.248 4.672-2.912 7.456-5.28 1.184-1.024 2.176-2.208 3.264-3.328 11.616-11.552 24.352-33.6 20.992-75.584zm-209.312-7.52c-26.048 0-47.136 21.92-47.136 48.96s21.12 48.96 47.136 48.96c5.888 0 11.296-1.536 16.448-3.616l-.16.384s2.272-.832 5.44-2.592c.16-.096.32-.128.48-.192.096-.064.16-.128.256-.192 2.176-1.248 4.672-2.912 7.456-5.28 1.184-1.024 2.176-2.208 3.264-3.328 11.616-11.552 24.384-33.6 20.992-75.616-1.984-32.832-16.8-81.984-76.096-129.824-2.848-2.272-6.176-3.392-9.504-3.392-4.64 0-9.216 2.144-12.256 6.24-5.248 7.04-4.032 17.152 2.752 22.592 48.288 38.944 61.504 77.088 63.84 103.264-6.848-3.904-14.56-6.368-22.912-6.368z"/><glyph unicode="" d="M104.128 375.872c-93.312-93.312-93.312-244.608 0-337.888s244.608-93.312 337.888 0c93.312 93.312 93.312 244.608 0 337.888-93.312 93.312-244.608 93.312-337.888 0zM400 192H272.64c-.224 0-.416-.128-.64-.128-8.832 0-16 7.168-16 16V368c0 8.832 7.168 16 16 16s16-7.168 16-16V224h112c8.832 0 16-7.168 16-16s-7.168-16-16-16z"/><glyph unicode="" d="M256 480c-89.728 0-162.464-72.736-162.464-162.464V288H64c-17.664 0-32-14.336-32-32V0c0-17.664 14.336-32 32-32h384c17.664 0 32 14.336 32 32v256c0 17.664-14.336 32-32 32h-29.536v29.536C418.464 407.264 345.728 480 256 480zm-98.464-162.464C157.536 371.84 201.696 416 256 416s98.464-44.16 98.464-98.464V288H157.536v29.536zM256 64c-35.36 0-64 28.64-64 64s28.64 64 64 64 64-28.64 64-64-28.64-64-64-64z"/><glyph unicode="" d="M416 288H125.536v29.536C125.536 371.84 169.696 416 224 416c35.776 0 66.912-19.328 84.128-47.968.16.192.448.288.64.48 5.792-8.256 14.912-14.016 25.76-14.016 17.664 0 32 14.336 32 32 0 4.32-.896 8.448-2.464 12.224-.128.224-.224.48-.352.704-1.408 3.2-3.424 6.016-5.76 8.544C328.832 451.2 280.064 480 224 480c-89.728 0-162.464-72.736-162.464-162.464V288H32c-17.664 0-32-14.336-32-32V0c0-17.664 14.336-32 32-32h384c17.664 0 32 14.336 32 32v256c0 17.664-14.336 32-32 32zM224 64c-35.36 0-64 28.64-64 64s28.64 64 64 64 64-28.64 64-64-28.64-64-64-64z"/><glyph unicode="" d="M496 480h-64a16.09 16.09 0 01-10.56-3.968L200.576 282.4c-11.424 2.4-29.088 5.6-40.576 5.6C71.776 288 0 216.224 0 128S71.776-32 160-32s160 71.776 160 160c0 26.208-4.992 43.776-10.656 58.368l54.464 18.496c6.624 2.24 11.008 8.544 10.848 15.52l-1.344 60.736 61.12 4.256c8.192.576 14.624 7.264 14.88 15.456l2.272 72.928 47.872 10.624C506.784 385.984 512 392.512 512 400v64c0 8.832-7.168 16-16 16zM112 128c19.2 0 35.776-11.296 43.456-27.584A47.929 47.929 0 00160 80c0-26.496-21.504-48-48-48S64 53.504 64 80s21.504 48 48 48z"/><glyph unicode="" d="M416 224c-1.12 0-2.176-.288-3.264-.32A160.466 160.466 0 01416 256c0 88.352-71.648 160-160 160S96 344.352 96 256c0-.544.16-1.056.16-1.6C41.888 246.656 0 200.416 0 144 0 87.616 41.792 41.44 96 33.6V32h320c53.024 0 96 42.976 96 96s-42.976 96-96 96z"/><glyph unicode="" d="M416 224c-1.12 0-2.176-.288-3.264-.32A160.466 160.466 0 01416 256c0 88.352-71.648 160-160 160S96 344.352 96 256c0-.544.16-1.056.16-1.6C41.888 246.656 0 200.416 0 144 0 82.144 50.144 32 112 32h80.256C209.792 32 224 46.208 224 63.744V160h-67.904L256 288l99.904-128H288V63.744C288 46.208 302.208 32 319.744 32H416c53.024 0 96 42.976 96 96s-42.976 96-96 96z"/><glyph unicode="" d="M416 224c-1.12 0-2.176-.288-3.264-.32A160.466 160.466 0 01416 256c0 88.352-71.648 160-160 160S96 344.352 96 256c0-.544.16-1.056.16-1.6C41.888 246.656 0 200.416 0 144 0 87.616 41.792 41.44 96 33.6V32h160l-99.904 128H224v128c0 17.664 14.336 32 32 32s32-14.336 32-32V160h67.904L256 32h160c53.024 0 96 42.976 96 96s-42.976 96-96 96z"/><glyph unicode="" d="M434.816 221.504c2.272 6.08 4.16 12.352 5.792 18.656.288 1.088.64 2.112.896 3.2 1.44 5.92 2.464 11.968 3.328 18.048.192 1.408.544 2.816.704 4.224.864 7.392 1.344 14.848 1.344 22.368 0 105.856-86.144 192-192 192s-192-86.144-192-192c0-7.52.48-14.976 1.376-22.336.16-1.44.48-2.816.672-4.224.864-6.08 1.888-12.128 3.328-18.048.256-1.088.608-2.144.896-3.2 1.632-6.304 3.52-12.576 5.792-18.656.224-.576.48-1.152.672-1.728 2.528-6.56 5.344-12.992 8.576-19.232.128-.256.256-.48.384-.704a192.684 192.684 0 0111.168-18.816c.128-.192.256-.352.352-.544 4-5.92 8.352-11.584 12.992-17.056.384-.448.736-.864 1.12-1.312 4.224-4.896 8.8-9.536 13.536-14.016 1.056-.992 2.048-1.984 3.136-2.944 1.408-1.248 2.656-2.656 4.128-3.872.864-.736 1.92-1.216 2.88-1.824 3.168-2.624 6.176-5.376 9.536-7.808 1.344-.96 2.176-1.888 3.328-2.848C168.832 110.496 158.048 96 182.624 96h144.512c24.544 0 13.792 14.496 35.904 32.832 1.152.96 1.984 1.856 3.328 2.848 3.36 2.432 6.368 5.184 9.536 7.808.928.64 1.984 1.088 2.88 1.824 1.44 1.216 2.72 2.624 4.128 3.872 1.056.96 2.08 1.984 3.136 2.944 4.736 4.48 9.28 9.12 13.536 14.016.384.448.736.864 1.12 1.312 4.64 5.472 8.992 11.136 12.992 17.056.128.192.256.352.352.544a194.534 194.534 0 0111.136 18.784c.128.224.256.48.384.704 3.232 6.24 6.048 12.672 8.576 19.232.192.608.448 1.152.672 1.728zM368 286.496c-8.832 0-16 7.168-16 16C352 351.264 308 384 272 384c-8.832 0-16 7.168-16 16s7.168 16 16 16c55.008 0 112-40.512 112-113.504 0-8.832-7.168-16-16-16zM252.928 0h-70.304l57.696-29.504a32.023 32.023 0 0114.56-3.52c4.928 0 9.888 1.152 14.432 3.424L327.84 0h-74.912zM352 48c0 8.832-7.168 16-16 16H176c-8.832 0-16-7.168-16-16s7.168-16 16-16h160c8.832 0 16 7.168 16 16z"/><glyph unicode="" d="M480 352H289.344v-96H512v64c0 17.664-14.336 32-32 32zm-448 0c-17.664 0-32-14.336-32-32v-64h224v96H32zm0-128V0c0-17.664 14.336-32 32-32h160v256H32zM448-32c17.664 0 32 14.336 32 32v224H289.344V-32H448zM255.968 384.256h.096A.753.753 0 01256 384h128c44.192 0 64 21.504 64 48s-19.808 48-64 48c-41.376 0-73.952-18.624-96-40.224-9.664 5.728-20.832 9.216-32.928 9.216-11.584 0-22.304-3.264-31.712-8.576C201.344 461.76 168.96 480 128 480c-44.192 0-64-21.504-64-48s19.808-48 64-48h128c0 .064-.032.192-.032.256zM416 432c0-13.216-17.408-16-32-16h-72.672c-.256.448-.48.928-.736 1.344C326.848 433.152 351.488 448 384 448c14.592 0 32-2.784 32-16zm-320 0c0 13.216 17.408 16 32 16 31.808 0 55.936-14.24 72.192-29.504-.512-.8-.896-1.664-1.376-2.496H128c-14.592 0-32 2.784-32 16z"/><glyph unicode="" d="M26.496 195.904L256 394.816l229.504-198.912A16.019 16.019 0 01496 192c4.48 0 8.928 1.888 12.096 5.504 5.792 6.688 5.056 16.768-1.6 22.592l-240 208a15.994 15.994 0 01-20.96 0L160 353.984V384c0 17.664-14.336 32-32 32s-32-14.336-32-32v-85.472L5.504 220.096c-6.656-5.792-7.392-15.904-1.6-22.592 5.824-6.656 15.904-7.392 22.592-1.6zM192 128h128V-32h96c17.664 0 32 14.336 32 32v156.832a31.93 31.93 0 01-11.712 24.736l-160 131.168A31.941 31.941 0 01256 320c-7.2 0-14.4-2.432-20.288-7.264l-160-131.168C68.288 175.52 64 166.432 64 156.832V0c0-17.664 14.336-32 32-32h96v160z"/><glyph unicode="" d="M480 320h-64s-18.496 0-32 32c-6.88 16.288-14.336 32-32 32H224c-17.664 0-25.344-15.616-32-32-12.992-32-32-32-32-32h-32c0 17.664-14.336 32-32 32H64c-17.664 0-32-14.336-32-32-17.664 0-32-14.336-32-32v-64h177.76c22.176 38.112 62.976 64 110.24 64s88.064-25.888 110.24-64H512v64c0 17.664-14.336 32-32 32zm-368-64H48c-8.832 0-16 7.168-16 16s7.168 16 16 16h64c8.832 0 16-7.168 16-16s-7.168-16-16-16zm80-96a96 96 1260 11192 0 96 96 1260 11-192 0zm224 0c0-70.688-57.312-128-128-128S160 89.312 160 160c0 11.104 1.856 21.728 4.512 32H0V32C0 14.336 14.336 0 32 0h448c17.664 0 32 14.336 32 32v160H411.488c2.656-10.272 4.512-20.896 4.512-32z"/><glyph unicode="" d="M480 352H32c-17.664 0-32-14.336-32-32v-53.728l256-102.4 256 102.4V320c0 17.664-14.336 32-32 32zM0 214.016V0c0-17.664 14.336-32 32-32h448c17.664 0 32 14.336 32 32v214.016l-256-102.4-256 102.4z"/><glyph unicode="" d="M347.136 288l-60.992 170.752C281.6 471.488 269.536 480 256 480s-25.6-8.512-30.144-21.248L164.864 288h182.272zm80-224l-45.728 128H130.592L84.864 64zM32 32C14.336 32 0 17.664 0 0s14.336-32 32-32h448c17.664 0 32 14.336 32 32s-14.336 32-32 32H32z"/><glyph unicode="" d="M64 384V0c0-12.928 7.808-24.608 19.744-29.568a32.01 32.01 0 0134.88 6.944L256 114.752 393.376-22.624A32.01 32.01 0 01416-32c4.128 0 8.288.8 12.224 2.432C440.192-24.608 448-12.928 448 0v384H64zm384 32v32c0 17.664-14.336 32-32 32H96c-17.664 0-32-14.336-32-32v-32h384z"/><glyph unicode="" d="M96-32h320c17.664 0 32 14.336 32 32v352c0 17.664-14.336 32-32 32h-64.16c-.768 53.152-43.328 96-95.84 96s-95.072-42.848-95.84-96H96c-17.664 0-32-14.336-32-32V0c0-17.664 14.336-32 32-32zm208 320h-96c-8.832 0-16 7.168-16 16s7.168 16 16 16h96c8.832 0 16-7.168 16-16s-7.168-16-16-16zm-48 160c34.784 0 63.072-28.576 63.84-64H192.16c.768 35.424 29.056 64 63.84 64z"/><glyph unicode="" d="M480 352H96c-2.496 0-4.672-.864-7.008-1.408l-12.416 53.056A15.99 15.99 0 0160.992 416h-45.92c-8.832 0-16-7.168-16-16s7.136-16 16-16H48.32l19.872-84.992L96 160c0-1.152.544-2.144.672-3.264l-16.288-73.28a15.948 15.948 0 013.136-13.472C86.56 66.176 91.136 64 96 64h363.008c8.832 0 16 7.168 16 16s-7.168 16-16 16h-343.04l7.328 32.96c1.6-.256 3.04-.96 4.704-.96h291.68c17.664 0 28.32 3.488 36.832 24l51.968 159.424C517.504 340 497.696 352 480 352zM96 0a32 32 1260 1164 0 32 32 1260 11-64 0zm288 0a32 32 1260 1164 0 32 32 1260 11-64 0z"/><glyph unicode="" d="M464.928 447.84h-.864c-.256 0-.48.032-.736 0H262.144c-4.896-.224-16.032-7.872-17.472-9.312L9.344 203.2c-12.48-12.48-12.48-32.704 0-45.184L190.016-22.656A31.915 31.915 0 01212.608-32c8.16 0 16.352 3.104 22.592 9.344l235.328 235.328c1.44 1.44 9.472 11.328 9.472 17.472v201.824c.448 8.928-6.304 15.872-15.072 15.872zM432 384c-8.832 0-16 7.168-16 16s7.168 16 16 16 16-7.168 16-16-7.168-16-16-16z"/><glyph unicode="" d="M464.928 480h-.864c-.256 0-.48.032-.736 0H294.144c-4.896-.256-16.032-7.904-17.472-9.344L72.992 267.008c-12.48-12.48-12.48-32.704 0-45.184L98.4 196.416l-25.408-25.408c-12.48-12.48-12.48-32.704 0-45.184L221.664-22.848c6.24-6.24 14.4-9.344 22.592-9.344s16.352 3.104 22.592 9.344l203.648 203.68c1.472 1.44 9.504 11.296 9.504 17.44v265.824c.448 8.928-6.304 15.904-15.072 15.904zM432 448.128c8.832 0 16-7.168 16-16s-7.168-16-16-16-16 7.168-16 16 7.168 16 16 16zm15.904-244.704L244.32-.256 95.648 148.352l25.408 25.408 100.64-100.64c6.24-6.24 14.4-9.344 22.592-9.344s16.352 3.104 22.592 9.344L448 254.272V203.68c-.096-.16-.16-.256-.096-.256-.032 0-.032 0 0 0z"/><glyph unicode="" d="M416 448h-64c0 17.664-14.336 32-32 32h-96c-17.664 0-32-14.336-32-32h-64c-17.664 0-32-14.336-32-32h352c0 17.664-14.336 32-32 32zM96 0c0-17.664 14.336-32 32-32h288c17.664 0 32 14.336 32 32v384H96V0zm256 304c0 8.832 7.168 16 16 16s16-7.168 16-16V48c0-8.832-7.168-16-16-16s-16 7.168-16 16v256zm-96 0c0 8.832 7.168 16 16 16s16-7.168 16-16V48c0-8.832-7.168-16-16-16s-16 7.168-16 16v256zm-96 0c0 8.832 7.168 16 16 16s16-7.168 16-16V48c0-8.832-7.168-16-16-16s-16 7.168-16 16v256z"/><glyph unicode="" d="M424.96 139.648c3.424 5.856 2.816 13.216-1.568 18.4L157.248 474.304c-4.352 5.152-11.456 7.04-17.728 4.736-6.304-2.304-10.528-8.32-10.528-15.04V46.496a15.999 15.999 0 0110.976-15.2c1.632-.544 3.328-.8 5.024-.8 4.96 0 9.76 2.304 12.832 6.464l71.552 96.384L279.008-8.64c6.368-18.176 26.272-27.776 44.448-21.408S351.232-3.776 344.864 14.4L296.16 153.696l111.936-21.664c6.752-1.312 13.44 1.792 16.864 7.616z"/><glyph unicode="" d="M224 67.072V0h-48c-8.832 0-16-7.168-16-16s7.168-16 16-16h160c8.832 0 16 7.168 16 16s-7.168 16-16 16h-48v67.264C354.656 80.416 416 134.368 416 224v48c0 8.832-7.168 16-16 16s-16-7.168-16-16v-48c0-84.032-64.416-128-128-128-61.664 0-128 40.064-128 128v48c0 8.832-7.168 16-16 16s-16-7.168-16-16v-48c0-90.88 60.256-144.192 128-156.928zM256 160c35.36 0 64 28.64 64 64v192c0 35.36-28.64 64-64 64s-64-28.64-64-64V224c0-35.36 28.64-64 64-64z"/><glyph unicode="" d="M256 480C114.624 480 0 365.376 0 224S114.624-32 256-32 512 82.624 512 224 397.376 480 256 480zm125.568-152.48l-37.184-59.584-24.8-39.744c.096-1.408.416-2.752.416-4.192 0-35.36-28.64-64-64-64-1.44 0-2.784.32-4.192.416l-39.776-24.8-59.552-37.184A15.884 15.884 0 00144 96c-4.128 0-8.224 1.6-11.328 4.672-5.28 5.28-6.208 13.472-2.24 19.776l37.184 59.584 24.8 39.744c-.096 1.44-.416 2.784-.416 4.224 0 35.36 28.64 64 64 64 1.44 0 2.784-.32 4.192-.416l39.776 24.8 59.552 37.184c6.208 3.936 14.496 3.008 19.776-2.272 5.312-5.248 6.24-13.44 2.272-19.776zM224 224a32 32 1260 1164 0 32 32 1260 11-64 0z"/><glyph unicode="" d="M244.352-23.328c2.688-2.976 5.28-4.896 7.776-6.24.032-.032.096-.032.128-.064 1.728-.896 3.424-1.568 5.024-1.568s3.296.672 5.024 1.568c.032.032.096.032.128.064 2.496 1.344 5.088 3.264 7.776 6.24 0 0 148.736 161.76 163.68 301.92.896 7.232 1.504 14.56 1.504 22.016C435.392 399.68 355.072 480 256 480S76.608 399.68 76.608 300.608c0-7.584.608-14.976 1.536-22.304C93.472 138.208 244.352-23.328 244.352-23.328zM256 416c63.616 0 115.392-51.776 115.392-115.392 0-63.616-51.776-115.392-115.392-115.392s-115.392 51.776-115.392 115.392C140.608 364.224 192.384 416 256 416z"/><glyph unicode="" d="M128 167.776c0-24.544 61.76-37.568 128.032-39.392 0-.128-.032-.256-.032-.384V32c0-17.664 7.168-64 16-64s16 46.336 16 64v96c0 .128-.032.256-.032.384C354.24 130.208 416 143.232 416 167.776c0 26.048-23.584 45.056-64 55.296V388.8c40.416 13.696 64 35.744 64 51.424 0 53.024-288 53.024-288 0 0-17.248 23.584-38.816 64-52V223.072c-40.416-10.272-64-29.248-64-55.296z"/><glyph unicode="" d="M161.344 387.136L32 448V64L161.344 3.136zm32-383.552L320.672 60.96v384l-127.328-57.376zm159.328 56.704L480 0v384l-127.328 60.288z"/><glyph unicode="" d="M448 416c-8.992 20-25.312 32-43.008 32H104c-17.664 0-32-12-40-32L0 160V15.488c0-8.832 7.168-16 16-16h480c8.832 0 16 7.168 16 16v142.528l-.416 1.472L448 416zM94.24 405.344C95.712 408.64 99.456 416 104 416h300.992c4.384 0 9.44-4.512 12.992-11.392l56.352-229.024c0-.064-.096 0-.096-.064 0-8.832-7.168-16-16-16-.032 0-.032-.032-.064-.032H336c-8.832 0-16-7.168-16-16V112c0-8.832-7.168-16-16-16-.32 0-.64-.416-.96-.512h-94.496c-.224.096-.224.512-.544.512-8.832 0-16 7.168-16 16v31.488c0 8.832-7.168 16-16 16H53.824c-.032 0-.032.032-.064.032-8.832 0-16.256 7.168-16.256 16 0 .224-.256.064-.32.224l57.056 229.6z"/><glyph unicode="" d="M480 320H352v32c0 17.664-14.336 32-32 32H192c-17.664 0-32-14.336-32-32v-32H32c-17.664 0-32-14.336-32-32v-64h512v64c0 17.664-14.336 32-32 32zm-288 32h128v-32H192v32zm0-160h128v-32H192zm160-32c0-17.664-14.336-32-32-32H192c-17.664 0-32 14.336-32 32v32H0V0c0-17.664 14.336-32 32-32h448c17.664 0 32 14.336 32 32v192H352v-32z"/><glyph unicode="" d="M80.672-32h302.56c17.664 0 32 14.336 32 32v336c0 8.832-7.168 16-16 16H128c-.8 0-2.368-.128-3.872-.224L80.672 352C53.824 352 32 372.512 32 399.328 32 426.176 53.152 448 80 448h368V80c0-8.832 6.4-16 15.264-16S480 71.168 480 80v384c0 8.832-7.904 16-16.736 16H80.672C36.512 480 .768 444.512.128 400.512l-.128.16v-352C0 4.128 36.128-32 80.672-32z"/><glyph unicode="" d="M32 480c-17.664 0-32-14.336-32-32V0c0-17.664 14.336-32 32-32h32v512H32zm384 0H96V-32h320c17.664 0 32 14.336 32 32v448c0 17.664-14.336 32-32 32zM270.24 356.672c26.752 0 48.416-21.696 48.416-48.416 0-26.752-21.696-48.448-48.416-48.448-26.752 0-48.448 21.696-48.448 48.448s21.696 48.416 48.448 48.416zM192 134.176c0 58.688 35.488 106.24 79.232 106.24s79.232-47.584 79.232-106.24S192 75.52 192 134.176zM480 448h32v-96h-32zm0-128h32v-96h-32zm0-128h32V96h-32z"/><glyph unicode="" d="M480 416H32c-17.664 0-32-14.336-32-32v-64h512v64c0 17.664-14.336 32-32 32zM32 0c0-17.664 14.336-32 32-32h384c17.664 0 32 14.336 32 32v288H32V0zm160 224h128c17.664 0 32-14.336 32-32s-14.336-32-32-32H192c-17.664 0-32 14.336-32 32s14.336 32 32 32z"/><glyph unicode="" d="M511.744 258.656C510.4 337.184 446.688 407.168 368 407.168c-45.504 0-85.6-23.808-112-58.752-26.4 34.944-66.496 58.752-112 58.752-78.688 0-142.4-69.984-143.744-148.512H0c0-.48.096-.928.096-1.408 0-.352-.096-.704-.096-1.088 0-2.208.544-3.872.64-5.984C7.68 50.048 253.984-32 253.984-32s249.92 81.952 257.312 281.856c.128 2.24.704 4 .704 6.304 0 .384-.096.736-.096 1.088 0 .512.096.928.096 1.408h-.256z"/><glyph unicode="" d="M352 384c0 51.392-44.608 96-96 96s-96-44.608-96-96 44.608-96 96-96 96 44.608 96 96zm-96-128c-84.096 0-160-90.72-160-203.456s320-112.736 320 0S340.096 256 256 256z"/><glyph unicode="" d="M224 400c0 42.816-37.184 80-80 80s-80-37.184-80-80 37.184-80 80-80 80 37.184 80 80zm56-304c0 128-66.432 192-140 192S0 224 0 96C0 8.32 280 8.32 280 96zm96 161.76c42.816 0 80 37.184 80 80s-37.184 80-80 80-80-37.184-80-80 37.184-80 80-80zm-4-32c-22.112 0-43.296-6.496-62.496-18.08C321.12 176.448 328 139.424 328 96c0-43.104-28.736-76.672-78.048-95.872C311.104-51.648 512-40.608 512 33.76c0 128-66.432 192-140 192z"/><glyph unicode="" d="M96 256h96c17.664 0 32 14.336 32 32v96c0 17.664-14.336 32-32 32H96c-17.664 0-32-14.336-32-32v-96c0-17.664 14.336-32 32-32zm224 0h96c17.664 0 32 14.336 32 32v96c0 17.664-14.336 32-32 32h-96c-17.664 0-32-14.336-32-32v-96c0-17.664 14.336-32 32-32zM64 64c0-17.664 14.336-32 32-32h96c17.664 0 32 14.336 32 32v96c0 17.664-14.336 32-32 32H96c-17.664 0-32-14.336-32-32V64zm224 0c0-17.664 14.336-32 32-32h96c17.664 0 32 14.336 32 32v96c0 17.664-14.336 32-32 32h-96c-17.664 0-32-14.336-32-32V64z"/><glyph unicode="" d="M64 320h64c17.664 0 32 14.336 32 32v64c0 17.664-14.336 32-32 32H64c-17.664 0-32-14.336-32-32v-64c0-17.664 14.336-32 32-32zm160 0h64c17.664 0 32 14.336 32 32v64c0 17.664-14.336 32-32 32h-64c-17.664 0-32-14.336-32-32v-64c0-17.664 14.336-32 32-32zm160 0h64c17.664 0 32 14.336 32 32v64c0 17.664-14.336 32-32 32h-64c-17.664 0-32-14.336-32-32v-64c0-17.664 14.336-32 32-32zM32 192c0-17.664 14.336-32 32-32h64c17.664 0 32 14.336 32 32v64c0 17.664-14.336 32-32 32H64c-17.664 0-32-14.336-32-32v-64zm160 0c0-17.664 14.336-32 32-32h64c17.664 0 32 14.336 32 32v64c0 17.664-14.336 32-32 32h-64c-17.664 0-32-14.336-32-32v-64zm160 0c0-17.664 14.336-32 32-32h64c17.664 0 32 14.336 32 32v64c0 17.664-14.336 32-32 32h-64c-17.664 0-32-14.336-32-32v-64zM32 32C32 14.336 46.336 0 64 0h64c17.664 0 32 14.336 32 32v64c0 17.664-14.336 32-32 32H64c-17.664 0-32-14.336-32-32V32zm160 0c0-17.664 14.336-32 32-32h64c17.664 0 32 14.336 32 32v64c0 17.664-14.336 32-32 32h-64c-17.664 0-32-14.336-32-32V32zm160 0c0-17.664 14.336-32 32-32h64c17.664 0 32 14.336 32 32v64c0 17.664-14.336 32-32 32h-64c-17.664 0-32-14.336-32-32V32z"/><glyph unicode="" d="M12.768-7.296C36.704-38.368 86.144-40.384 123.2-11.84c15.072 11.616 25.504 26.528 31.296 42.176C157.824 36.928 160 46.272 160 56.96v239.136l288 54.432V224.256c0-44.544-34.08-54.784-46.144-57.056-1.056-.128-2.08-.384-3.136-.576l-1.344-.16.192-.064c-14.272-2.592-28.64-8.576-41.536-18.496-37.056-28.544-47.712-76.864-23.776-107.936 23.936-31.072 73.376-33.12 110.432-4.576 18.752 14.464 30.688 33.984 34.848 53.76 1.44 4.8 2.464 10.08 2.464 16.064v310.592c0 1.952-.384 3.616-.544 5.472.064.96.544 2.048.544 3.008v32c0 17.664-14.336 27.648-32 22.24l-288-54.432c-17.664-5.376-32-24.096-32-41.76v-32c0-.448.224-.768.256-1.184-.032-.96-.256-1.792-.256-2.752V176.992c0-44.608-34.176-54.816-46.208-57.056-.608-.096-1.216-.288-1.856-.384-1.568-.256-2.592-.352-2.592-.352l.352-.16c-14.144-2.656-28.384-8.576-41.152-18.4C-.512 72.096-11.136 23.776 12.768-7.296z"/><glyph unicode="" d="M256 480C114.624 480 0 365.376 0 224S114.624-32 256-32 512 82.624 512 224 397.376 480 256 480zm-32-320c0-17.664-14.336-32-32-32s-32 14.336-32 32v128c0 17.664 14.336 32 32 32s32-14.336 32-32V160zm128 0c0-17.664-14.336-32-32-32s-32 14.336-32 32v128c0 17.664 14.336 32 32 32s32-14.336 32-32V160z"/><glyph unicode="" d="M211.456 350.976c-6.112 70.304-79.456 104.8-82.56 106.208a15.586 15.586 0 01-9.312 1.248c-84.672-14.048-97.408-63.328-97.92-65.376a15.85 15.85 0 01.32-8.64C122.976 71.072 332.864 12.992 401.856-6.112c5.312-1.472 9.696-2.656 13.024-3.744 1.6-.544 3.264-.768 4.928-.768 2.272 0 4.544.48 6.624 1.44 2.112.96 51.968 24.448 64.16 101.056.544 3.328 0 6.784-1.536 9.792-1.088 2.112-27.168 51.744-99.488 69.28-5.056 1.312-10.24-.032-14.144-3.36-22.816-19.488-54.336-40.256-67.936-42.4-91.168 44.576-142.08 130.112-144 146.336-1.12 9.12 19.776 41.152 43.808 67.2 3.04 3.296 4.576 7.776 4.16 12.256z"/><glyph unicode="" d="M96 288h96V96h128l-.672 192H416L256 448zM384 32H128v64H64V-32h384V96h-64z"/><glyph unicode="" d="M256 96l160 160h-96v192H192l.576-192H96zM64 32v-64h384V96h-64V32H128v64H64z"/><glyph unicode="" d="M192.864-32H288.8l.064 256 87.136.032 9.344 88.224H288.8l.128 44.16c0 23.008 1.568 35.328 34.592 35.328h60.992V480h-87.456c-84.768 0-104.288-43.808-104.288-115.776l.096-51.968-64.352-.032V224h64.352V-32z"/><glyph unicode="" d="M497.888 424.32a211.011 211.011 0 00-66.72-25.504C412 419.264 384.704 432 354.496 432c-58.016 0-105.056-47.04-105.056-105.024 0-8.224.928-16.256 2.72-23.936-87.296 4.384-164.704 46.208-216.512 109.76-9.056-15.488-14.208-33.536-14.208-52.8 0-36.448 18.56-68.608 46.72-87.424a105.07 105.07 0 00-47.584 13.184v-1.312c0-50.88 36.224-93.344 84.256-103.008-8.8-2.4-18.08-3.68-27.68-3.68-6.784 0-13.344.672-19.776 1.888 13.376-41.728 52.16-72.096 98.112-72.96-35.936-28.16-81.248-44.96-130.464-44.96-8.48 0-16.832.512-25.056 1.472C46.464 33.408 101.664 16 160.992 16c193.216 0 298.88 160.064 298.88 298.88 0 4.544-.096 9.088-.32 13.6 20.576 14.752 38.4 33.248 52.48 54.304a209.76 209.76 0 00-60.32-16.544c21.696 12.992 38.336 33.6 46.176 58.08z"/><glyph unicode="" d="M128.96 183.904c24.736 43.744-7.968 53.344-13.088 85.056-20.96 129.6 149.504 218.112 238.784 127.552 61.76-62.72 21.088-255.552-78.496-235.52-95.392 19.168 46.72 172.672-29.408 202.784-61.888 24.512-94.752-74.88-65.408-124.288C164.128 154.528 127.072 74.528 142.08-32c48.64 35.296 65.056 102.912 78.496 173.408 24.448-14.88 37.536-30.336 68.704-32.736 114.976-8.928 179.232 114.784 163.488 228.96-13.952 101.184-114.848 152.704-222.432 140.64-85.056-9.536-169.856-78.304-173.376-176.64-2.144-60.032 14.88-105.088 72-117.728z"/><glyph unicode="" d="M137.152 14.368c84.8 0 131.648 48.128 131.648 96.512 0 38.784-11.456 62.048-46.848 87.072-12.096 8.576-35.264 29.408-35.264 41.664 0 14.368 4.096 21.44 25.728 38.336 22.144 17.312 37.824 41.664 37.824 69.952 0 33.696-15.008 66.56-43.2 77.376h42.464l30.016 21.664H145.536c-60.032 0-116.544-45.504-116.544-98.208 0-53.856 40.928-97.344 102.048-97.344 4.256 0 8.384.096 12.416.384-3.968-7.584-6.816-16.128-6.816-25.024 0-14.976 8.064-27.104 18.24-37.024-7.68 0-15.136-.224-23.232-.224C57.248 189.536 0 142.144 0 93.024 0 44.64 62.784 14.368 137.152 14.368zM150.4 265.056c-34.528 1.024-67.328 38.624-73.28 83.936-5.952 45.344 17.184 80.032 51.68 79.008 34.496-1.024 67.328-37.408 73.28-82.72 5.984-45.344-17.184-81.248-51.68-80.224zm-4.576-88.032c12-.128 23.2-2.048 33.344-5.344 27.904-19.36 47.936-30.336 53.568-52.48 1.056-4.48 1.632-9.088 1.632-13.824 0-39.104-25.184-69.664-97.472-69.664-51.424 0-88.544 32.544-88.544 71.648 0 38.336 46.048 70.208 97.472 69.664zM416 352v94.944h-32V352h-96v-32h96v-97.056h32V320h96v32z"/><glyph unicode="" d="M164.736 90.624c0-23.392 2.464-41.28 7.36-53.6 4.928-12.32 13.696-23.968 26.432-34.912 12.672-10.88 28.032-19.36 46.016-25.28C262.56-29.056 276.32-32 299.744-32c20.608 0 39.776 2.08 57.536 6.208 17.728 4.16 36.8 10.176 58.656 20.448v76.992c-25.632-16.864-40.96-20.288-66.88-20.288-14.56 0-27.488 3.392-38.848 10.208-8.544 5.024-16.352 13.728-19.488 22.08-3.168 8.416-2.784 25.536-2.784 55.264L288 256h127.968v96H288v128h-82.56c-3.264-26.4-9.28-48.192-17.952-65.248-8.672-17.12-20.192-31.744-34.56-43.968-14.272-12.192-36.768-21.568-56.864-28.096V256h68.704V90.624z"/><glyph unicode="" d="M352 229.056l-34.016-12-29.984 12V167.04C288 107.072 331.072 64 384 64s96 43.072 96 96v64h-64v-64c0-17.632-14.368-32-32-32-17.632 0-32 14.368-32 39.008v62.048zM128 64c52.928 0 96 43.072 96 96v128c0 17.632 14.368 32 32 32 17.6 0 32-14.336 32-24.96V264l30.016-12L352 264v31.04c0 45.92-43.072 88.96-96 88.96s-96-43.04-96-96V160c0-17.632-14.368-32-32-32-17.632 0-32 14.368-32 32v64H32v-64c0-52.928 43.072-96 96-96z"/><glyph unicode="" d="M256 480C114.624 480 0 365.376 0 224S114.624-32 256-32 512 82.624 512 224 397.376 480 256 480zM36.576 224c0 30.976 6.848 60.416 19.008 86.976L160.256 31.68C87.04 66.304 36.576 139.424 36.576 224zM256 10.272a224.853 224.853 0 00-61.984 8.704l65.824 186.336 67.424-179.968a21.843 21.843 0 011.568-2.976C306.08 14.56 281.568 10.272 256 10.272zm30.176 313.92a461.86 461.86 0 0125.12 2.016c11.84 1.376 10.432 18.272-1.376 17.632 0 0-35.552-2.72-58.464-2.72-21.536 0-57.792 2.72-57.792 2.72-11.84.672-13.216-16.928-1.408-17.632 0 0 11.2-1.344 23.008-2.016l34.176-91.232-48.032-140.256-79.872 231.488c13.248.672 25.12 2.016 25.12 2.016 11.808 1.376 10.432 18.272-1.376 17.632 0 0-35.552-2.72-58.464-2.72-4.096 0-8.96.096-14.112.256 39.2 58.016 106.656 96.352 183.296 96.352 57.12 0 109.12-21.28 148.192-56.096-.96.064-1.856.192-2.848.192-21.568 0-36.864-18.272-36.864-37.92 0-17.632 10.432-32.512 21.536-50.144 8.384-14.272 18.112-32.544 18.112-58.944 0-18.272-7.2-39.52-16.672-69.12l-21.92-71.2-79.36 229.696zM475.424 224c0-78.848-43.872-147.68-109.12-184.672l67.04 188.704c12.512 30.496 16.672 54.848 16.672 76.544 0 7.872-.512 15.168-1.472 21.984 17.12-30.464 26.88-65.408 26.88-102.56z"/><glyph unicode="" d="M488.896 480H23.104C10.368 480 0 469.664 0 456.928V-8.928C0-21.632 10.368-32 23.104-32h465.792C501.632-32 512-21.632 512-8.928v465.856C512 469.664 501.632 480 488.896 480zM345.344 224c0-49.344-40-89.344-89.344-89.344s-89.344 40-89.344 89.344c0 49.344 40 89.344 89.344 89.344s89.344-40 89.344-89.344zM448 32H64v224h42.144c-2.208-10.336-3.488-21.024-3.488-32 0-84.544 68.8-153.344 153.344-153.344S409.344 139.456 409.344 224c0 10.976-1.28 21.664-3.488 32H448V32zm0 288h-96v96h96v-96z"/><glyph unicode="" d="M256 480C114.848 480 0 365.152 0 224S114.848-32 256-32 512 82.848 512 224 397.152 480 256 480zm0-37.664c55.584 0 106.336-20.832 144.96-55.104-3.936-5.6-36.832-49.824-114.592-78.976-35.84 65.824-75.552 119.904-81.6 128a218.206 218.206 0 0051.232 6.08zm-92.96-20.768c5.76-7.904 44.832-62.048 81.056-126.464-102.272-27.168-192.352-26.784-202.144-26.656 14.176 67.872 59.904 124.256 121.088 153.12zM37.312 223.68c0 2.24.032 4.48.096 6.688 9.568-.224 115.552-1.568 224.736 31.104a740.394 740.394 0 0017.728-37.12c-2.88-.8-5.76-1.664-8.608-2.592C158.496 185.312 98.496 85.952 93.536 77.472 58.624 116.224 37.344 167.52 37.312 223.68zM255.968 5.024c-50.528 0-97.12 17.248-134.208 46.144 3.936 8.032 48.224 93.568 171.552 136.544l1.44.48c30.72-79.776 43.392-146.624 46.656-165.824-26.24-11.168-55.104-17.376-85.44-17.344zM378.176 42.4c-2.24 13.312-13.856 77.312-42.464 155.904 68.512 10.976 128.704-6.976 136.192-9.344-9.76-60.832-44.672-113.376-93.728-146.56zm-55.84 190.368c-1.536 3.744-3.104 7.52-4.704 11.296a688.325 688.325 0 01-14.496 31.68C384 308.736 420.64 355.712 425.248 361.952c30.464-37.216 48.896-84.608 49.344-136.224-7.2 1.536-79.488 16.192-152.256 7.04z"/><glyph unicode="" d="M293.696 327.136c58.496 35.104 89.728-14.272 59.776-70.176-29.888-55.872-57.184-92.288-71.488-92.288-14.272 0-25.248 37.376-41.6 102.72-16.896 67.552-16.8 189.216-87.072 175.424C87.072 429.792 0 325.824 0 325.824l20.8-27.264s42.88 33.792 57.184 16.896c14.304-16.896 68.864-220.992 87.072-258.624C180.96 23.808 224.8-19.84 272.928 11.328c48.064 31.168 207.904 167.648 236.544 328.8 28.576 161.12-192.352 127.36-215.776-12.992z"/><glyph unicode="" d="M33.024 320H128V-32H33.024zm289.76-.032c-34.784 0-52.128-16.576-66.784-27.808V320h-95.488V-32H256v221.6s-3.488 44.128 49.408 44.128c31.872 0 46.592-18.144 46.592-44.128V-32h100.608v218.496c0 120-96.608 133.472-129.824 133.472zM32 400a48 48 1260 1196 0 48 48 1260 11-96 0z"/><glyph unicode="" d="M.192 480v-98.176c227.904 0 413.376-185.664 413.376-413.824H512C512 250.24 282.368 480 .192 480zM239.424-32h98.56c.032 186.432-151.616 338.08-337.92 338.08v-98.144c63.904 0 123.968-24.992 169.216-70.272C214.464 92.512 239.424 32.16 239.424-32zm-171.264.64c37.728 0 68.256 30.336 68.256 67.904-.032 37.344-30.528 68.032-68.256 68.032C30.56 104.576 0 73.92 0 36.544 0-1.024 30.56-31.36 68.16-31.36z"/><glyph unicode="" d="M363.872 312.832c-57.312 13.44-119.392 12.864-182.976 3.264a437.584 437.584 0 01-6.848-1.088l-21.12 39.136c-20.576-2.752-39.904-7.04-57.792-12.736l20.128-42.112c-32.896-12.736-59.872-30.88-79.328-52.704-32.128-36.48-44.832-82.4-29.408-127.136 3.104-9.024 7.296-17.568 12.48-25.6l239.04 65.664-66.368 122.912c2.272.448 4.608.896 6.976 1.312 107.328 19.136 166.048-10.432 198.208-41.92l-81.792-19.84-34.144 54.56c-19.52 1.152-42.048-.032-68.128-4.48l60.16-108.448L512 229.248c-2.592 6.144-6.336 12.128-11.328 17.888-24.736 28.64-78.368 54.176-136.8 65.696zM87.36 166.848c-7.392 33.664-1.504 71.264 45.216 96.288l36.576-76.48-81.792-19.808z"/><glyph unicode="" d="M377.376 328.896c14.08-10.656 31.552-17.024 50.56-17.024 46.432 0 84.064 37.632 84.064 84.064C512 442.368 474.368 480 427.936 480c-46.4 0-84.064-37.632-84.064-84.064v-.064l-207.488-100.32c-14.368 11.456-32.544 18.368-52.32 18.368C37.632 313.92 0 276.256 0 229.856s37.632-84.064 84.064-84.064c16.768 0 32.384 4.992 45.504 13.44L343.904 55.616v-.064c0-46.432 37.632-84.064 84.064-84.064 46.432 0 84.064 37.632 84.064 84.064 0 46.432-37.632 84.064-84.064 84.064-19.008 0-36.48-6.368-50.56-17.024l-209.6 101.312c.096 1.28.16 2.528.192 3.808l209.376 101.184z"/><glyph unicode="" d="M252.736 351.776c12.416 12.416 18.656 27.648 18.656 45.664 0 17.536-6.24 32.544-18.656 44.96-12.384 12.384-27.68 18.592-45.696 18.592-17.472 0-32.48-6.208-44.896-18.592-12.416-12.448-18.656-27.424-18.656-44.96 0-18.016 6.24-33.248 18.656-45.664 12.448-12.416 27.424-18.624 44.896-18.624 18.016 0 33.312 6.208 45.696 18.624zm56.992-13.888c7.552-7.552 16.32-13.504 26.304-17.888 9.984-4.352 20.864-6.56 32.512-6.56 11.712 0 22.528 2.208 32.512 6.56 9.984 4.416 18.72 10.336 26.304 17.888 7.552 7.552 13.536 16.32 17.92 26.304 4.384 9.984 6.592 20.8 6.592 32.544 0 11.68-2.176 22.496-6.592 32.512-4.352 9.984-10.368 18.752-17.92 26.304-7.552 7.552-16.288 13.536-26.304 17.888-9.952 4.384-20.8 6.56-32.512 6.56-11.648 0-22.528-2.176-32.512-6.56-9.984-4.352-18.752-10.336-26.304-17.888-7.52-7.584-13.472-16.352-17.888-26.336-4.384-9.984-6.592-20.8-6.592-32.512s2.208-22.528 6.592-32.544c4.416-9.952 10.368-18.72 17.888-26.272zm-224.704 9.856c13.664 0 25.088 4.736 34.368 14.24 9.248 9.536 13.856 21.088 13.856 34.752 0 13.152-4.64 24.48-13.856 33.952-9.28 9.504-20.704 14.272-34.368 14.272-13.6 0-25.216-4.768-34.656-14.272-9.536-9.472-14.272-20.8-14.272-33.952 0-13.664 4.768-25.216 14.272-34.72 9.472-9.504 21.056-14.272 34.656-14.272zM448.96 247.648c-10.208 10.24-22.304 18.272-36.16 24.128-13.92 5.856-28.672 8.768-44.256 8.768s-30.208-2.912-43.808-8.768c-13.664-5.856-25.568-13.664-35.808-23.392-4.864 18.016-14.752 32.96-29.6 44.928-14.88 11.936-32.288 17.92-52.288 17.92-12.672 0-24.576-2.688-35.808-8.032-11.136-5.408-20.928-12.928-29.152-22.656-3.488 12.64-10.24 23.232-20.48 31.776-10.208 8.544-22.4 12.768-36.576 12.768-16.544 0-30.56-5.728-41.984-17.152C31.584 296.512 32 282.464 32 265.92V163.488h84.128V79.616h140.96V-32h225.024v199.296c0 15.584-2.592 30.336-8.704 44.192-6.08 13.888-14.24 25.952-24.448 36.16z"/><glyph unicode="" d="M489.856 222.752c0 129.152-105.28 233.888-235.104 233.888a233.947 233.947 0 01-37.856-3.072c-22.08 14.4-48.352 22.752-76.608 22.752C62.752 476.32 0 413.504 0 336c0-28.192 8.288-54.4 22.592-76.384a233.582 233.582 0 01-2.912-36.864c0-129.184 105.216-233.888 235.072-233.888 14.656 0 28.928 1.44 42.784 3.936 21.536-13.376 46.944-21.152 74.144-21.152 77.536 0 140.32 62.816 140.32 140.32 0 29.28-8.96 56.512-24.352 79.04 1.408 10.4 2.208 20.992 2.208 31.744zM276.736 50.4c-74.72-3.904-109.664 12.64-141.696 42.688-35.776 33.568-21.408 71.84 7.744 73.792 29.12 1.952 46.592-33.024 62.144-42.72 15.52-9.696 74.592-31.776 105.792 3.904 33.984 38.816-22.592 58.912-64.064 64.992-59.2 8.768-133.952 40.768-128.128 103.904 5.824 63.04 53.568 95.424 103.84 99.968 64.064 5.824 105.792-9.696 138.784-37.856 38.144-32.544 17.504-68.896-6.784-71.808-24.224-2.912-51.392 53.504-104.8 54.336-55.04.864-92.224-57.28-24.288-73.792 67.968-16.512 140.736-23.296 166.976-85.408s-40.736-128.096-115.52-132z"/><glyph unicode="" d="M442.752 399.264c-116.576 7.84-254.784 9.984-373.504 0-36.864-4.128-62.112-48.992-64.864-83.072-5.824-71.584-5.824-112.32 0-183.904 2.784-34.08 27.392-79.2 64.896-83.936 120.128-7.872 257.632-8.96 373.504 0 36.288 6.304 62.112 49.856 64.896 83.936 5.824 71.584 5.824 116.768 0 188.384-2.816 34.08-23.168 77.056-64.928 78.592zM192 133.44v183.52l160-91.776-160-91.744z"/><glyph unicode="" d="M128 2.272V229.12L21.056 122.208C42.976 71.68 80.704 29.632 128 2.272zm32-15.648C189.632-25.376 222.048-32 256-32c94.752 0 177.472 51.488 221.728 128H160V-13.376zM213.12 368l-80.384 80.416C53.6 404.864 0 320.704 0 224c0-21.248 2.592-41.888 7.488-61.632L213.12 368zM352 461.376c-29.664 12-62.048 18.624-96 18.624-30.272 0-59.296-5.28-86.24-14.912L352 282.88v178.496zm32-15.648V128h109.376c12 29.664 18.624 62.048 18.624 96 0 94.752-51.488 177.472-128 221.728z"/><glyph unicode="" d="M487.808 192L341.344 445.76H170.656L317.152 192zm-256.064 63.904l-85.312 147.84L0 150.08 85.344 2.24zM144.352-.672h282.304L512 160H236z"/><glyph unicode="" d="M0 225.76a106.656 106.656 1260 11213.312 0A106.656 106.656 1260 110 225.76zm298.688 0a106.656 106.656 1260 11213.312 0 106.656 106.656 1260 11-213.312 0z"/><glyph unicode="" d="M478.912 288h-28.704c-17.568 0-32.992 14.88-34.208 32 0 91.328-73.632 160-165.6 160h-83.904C74.592 480 .064 405.984 0 314.656V133.248C0 41.952 74.592-32 166.496-32h179.2C437.664-32 512 41.952 512 133.28v117.184c0 18.24-14.72 37.536-33.088 37.536zM160 352h96c17.6 0 32-14.4 32-32s-14.4-32-32-32h-96c-17.6 0-32 14.4-32 32s14.4 32 32 32zM352 96H160c-17.6 0-32 14.4-32 32s14.4 32 32 32h192c17.6 0 32-14.4 32-32s-14.4-32-32-32z"/><glyph unicode="" d="M256 480C114.624 480 0 365.376 0 224S114.624-32 256-32 512 82.624 512 224 397.376 480 256 480zM374.272 73.92c-3.2-5.824-9.216-9.12-15.424-9.12-2.88 0-5.76.704-8.48 2.176-40.992 22.592-87.552 34.528-134.592 34.528-28.192 0-56.032-4.192-82.688-12.448-9.28-2.88-19.136 2.336-21.984 11.616-2.88 9.28 2.304 28.96 11.616 31.84 30.048 9.28 61.376 14.016 93.088 14.016 52.96 0 105.376-13.44 151.552-38.88 8.512-4.672 11.616-25.216 6.912-33.728zm32.512 96.448c-3.648-7.04-10.816-18.464-18.24-18.464-3.2 0-6.432.736-9.44 2.336-50.784 26.368-105.728 39.744-163.296 39.744-31.712 0-63.2-4.192-93.6-12.512-10.976-2.976-22.24 3.456-25.216 14.4-2.944 10.944 3.488 29.6 14.432 32.576A397.015 397.015 0 00215.808 242.4c63.328 0 126.336-15.36 182.208-44.384 10.048-5.216 13.984-17.6 8.768-27.648zm34.624 92.672c-4.128-8.224-12.384-15.456-21.024-15.456-3.52 0-7.072.8-10.432 2.464-60.64 30.24-125.952 45.536-194.144 45.536a439.29 439.29 0 01-105.248-12.8c-12.576-3.104-25.28 4.544-28.384 17.12-3.136 12.544 4.544 27.744 17.12 30.848 37.984 9.44 77.184 14.208 116.512 14.208 75.52 0 147.872-16.992 215.04-50.464 11.616-5.792 16.32-19.872 10.56-31.456z"/><glyph unicode="" d="M480 480H22.784C10.24 480 0 469.76 0 457.184V0c0-17.664 14.336-32 32-32h457.216C501.76-32 512-21.76 512-9.184V448c0 17.664-14.336 32-32 32zM256.352 223.264V0H32v224h224v224h224V223.264H256.352z"/><glyph unicode="" d="M256 480C114.624 480 0 365.376 0 224S114.624-32 256-32 512 82.624 512 224c0 141.408-114.624 256-256 256zm66.176-255.968L280.224 224l-.032-153.6h-57.568V224h-38.4v52.928l38.4.032-.064 31.168c0 43.2 11.712 69.472 62.56 69.472h42.368v-52.96h-26.496c-19.808 0-20.768-7.392-20.768-21.184l-.064-26.496h47.616l-5.6-52.928z"/><glyph unicode="" d="M256 480C114.624 480 0 365.376 0 224S114.624-32 256-32 512 82.624 512 224c0 141.408-114.624 256-256 256zm127.36-198.528c.128-2.72.192-5.44.192-8.16 0-83.296-63.392-179.328-179.328-179.328-35.584 0-68.704 10.432-96.608 28.32 4.928-.576 9.952-.896 15.04-.896 29.536 0 56.704 10.08 78.272 26.976-27.584.512-50.848 18.752-58.88 43.776a63.018 63.018 0 0111.872-1.12c5.76 0 11.328.768 16.608 2.208-28.832 5.792-50.56 31.264-50.56 61.792v.8c8.512-4.736 18.208-7.552 28.544-7.904-16.896 11.296-28.032 30.592-28.032 52.448 0 11.552 3.104 22.368 8.512 31.68 31.072-38.144 77.536-63.232 129.92-65.856-1.088 4.608-1.632 9.44-1.632 14.368 0 34.784 28.224 63.008 63.04 63.008 18.112 0 34.496-7.648 46.016-19.904a127.033 127.033 0 0140.032 15.296c-4.704-14.72-14.688-27.072-27.712-34.88 12.736 1.504 24.896 4.928 36.192 9.92-8.448-12.608-19.168-23.712-31.488-32.544z"/><glyph unicode="" d="M256 480C114.624 480 0 365.376 0 224S114.624-32 256-32 512 82.624 512 224c0 141.408-114.624 256-256 256zm19.968-325.216c-18.72 1.44-26.56 10.72-41.216 19.648-8.064-42.304-17.92-82.88-47.104-104.032-9.024 63.904 13.216 111.904 23.552 162.88-17.6 29.664 2.112 89.28 39.232 74.592 45.664-18.08-39.584-110.176 17.664-121.664 59.744-12.032 84.16 103.68 47.104 141.312-53.568 54.336-155.84 1.248-143.264-76.544 3.072-19.008 22.688-24.768 7.84-51.04-34.272 7.584-44.512 34.624-43.2 70.656 2.112 58.976 52.992 100.256 104.032 105.984 64.544 7.232 125.088-23.68 133.472-84.384 9.44-68.512-29.12-142.752-98.112-137.408z"/><glyph unicode="" d="M256 480C114.624 480 0 365.376 0 224S114.624-32 256-32 512 82.624 512 224c0 141.408-114.624 256-256 256zM184.576 51.744c-56.672 0-104.48 23.072-104.48 59.936 0 37.408 43.616 73.536 100.288 73.504 6.176 0 11.84.16 17.696.16-7.744 7.52-13.888 16.768-13.888 28.192 0 6.784 2.176 13.28 5.184 19.072-3.072-.224-6.208-.32-9.44-.32-46.56 0-77.728 33.12-77.728 74.176 0 40.16 43.04 74.816 88.8 74.816h102.08l-22.912-16.512h-32.352c21.472-8.256 32.896-33.28 32.896-58.944 0-21.536-11.936-40.096-28.8-53.28-16.48-12.896-19.584-18.272-19.584-29.216 0-9.344 17.664-25.216 26.88-31.744 26.976-19.072 35.68-36.8 35.68-66.336-.032-36.864-35.712-73.504-100.32-73.504zM448 255.392h-64V191.52h-31.968v63.872H288V288h64.032v64H384v-64h64v-32.608zm-231.392-83.808c-7.744 2.496-16.288 3.968-25.408 4.064-39.168.416-74.24-23.872-74.24-53.088 0-29.792 28.288-54.592 67.456-54.592 55.072 0 74.24 23.296 74.24 53.056 0 3.616-.448 7.104-1.248 10.528-4.288 16.896-19.552 25.28-40.8 40.032zm17.44 132.256c-4.544 34.496-29.536 62.208-55.808 63.008-26.272.768-43.904-25.632-39.36-60.192 4.544-34.528 29.536-63.168 55.84-63.936 26.24-.8 43.904 26.56 39.328 61.12z"/><glyph unicode="" d="M256 480C114.624 480 0 365.376 0 224S114.624-32 256-32 512 82.624 512 224c0 141.408-114.624 256-256 256zm95.968-236.8H275.2l-.032-70.24c0-17.824-.224-28.096 1.664-33.152 1.888-5.024 6.56-10.24 11.68-13.248 6.816-4.096 14.56-6.112 23.296-6.112 15.552 0 24.736 2.048 40.128 12.16V86.4c-13.12-6.176-24.544-9.76-35.2-12.256-10.624-2.496-22.112-3.744-34.496-3.744-14.048 0-22.336 1.76-33.12 5.312-10.784 3.552-20 8.64-27.616 15.168-7.648 6.56-12.896 13.568-15.872 20.96-2.944 7.392-4.416 18.112-4.416 32.16v107.712h-41.184v43.52c12.064 3.904 25.568 9.536 34.144 16.864 8.608 7.328 15.52 16.096 20.736 26.368 5.184 10.208 8.768 23.296 10.752 39.136H275.2v-76.8h76.768v-57.6z"/><glyph unicode="" d="M256 480C114.624 480 0 365.376 0 224S114.624-32 256-32 512 82.624 512 224c0 141.408-114.624 256-256 256zm0-187.392c-12.608 0-22.88-10.272-22.88-22.88V178.24c0-37.824-30.784-68.608-68.608-68.608-37.824 0-68.608 30.784-68.608 68.608V224h45.728v-45.728c0-12.608 10.272-22.88 22.88-22.88 12.608 0 22.88 10.272 22.88 22.88v91.456c0 37.824 30.784 68.608 68.608 68.608s68.608-30.784 68.608-63.616v-22.176L295.296 244l-16.448 8.576v22.176c0 7.584-10.272 17.856-22.848 17.856zm160.064-114.336c0-37.824-30.784-68.608-68.608-68.608s-68.608 30.784-68.608 73.632v44.288l16.448-8.576 29.312 8.576v-44.32c0-17.6 10.272-27.872 22.88-27.872s22.88 10.272 22.88 22.88V224h45.728v-45.728z"/><glyph unicode="" d="M256 480C114.624 480 0 365.376 0 224S114.624-32 256-32 512 82.624 512 224 397.376 480 256 480zM36.576 224c0 30.976 6.848 60.416 19.008 86.976L160.256 31.68C87.04 66.304 36.576 139.424 36.576 224zM256 10.272a224.853 224.853 0 00-61.984 8.704l65.824 186.336 67.424-179.968a21.843 21.843 0 011.568-2.976C306.08 14.56 281.568 10.272 256 10.272zm30.176 313.92a461.86 461.86 0 0125.12 2.016c11.84 1.376 10.432 18.272-1.376 17.632 0 0-35.552-2.72-58.464-2.72-21.536 0-57.792 2.72-57.792 2.72-11.84.672-13.216-16.928-1.408-17.632 0 0 11.2-1.344 23.008-2.016l34.176-91.232-48.032-140.256-79.872 231.488c13.248.672 25.12 2.016 25.12 2.016 11.808 1.376 10.432 18.272-1.376 17.632 0 0-35.552-2.72-58.464-2.72-4.096 0-8.96.096-14.112.256 39.2 58.016 106.656 96.352 183.296 96.352 57.12 0 109.12-21.28 148.192-56.096-.96.064-1.856.192-2.848.192-21.568 0-36.864-18.272-36.864-37.92 0-17.632 10.432-32.512 21.536-50.144 8.384-14.272 18.112-32.544 18.112-58.944 0-18.272-7.2-39.52-16.672-69.12l-21.92-71.2-79.36 229.696zM475.424 224c0-78.848-43.872-147.68-109.12-184.672l67.04 188.704c12.512 30.496 16.672 54.848 16.672 76.544 0 7.872-.512 15.168-1.472 21.984 17.12-30.464 26.88-65.408 26.88-102.56z"/><glyph unicode="" d="M256 480C114.624 480 0 365.376 0 224S114.624-32 256-32 512 82.624 512 224c0 141.408-114.624 256-256 256zM416 75.552C416 69.184 410.816 64 404.448 64H107.552C101.184 64 96 69.184 96 75.552v296.896c0 6.368 5.184 11.552 11.552 11.552h296.896c6.368 0 11.552-5.184 11.552-11.552V75.552zM192 224a64 64 1260 11128 0 64 64 1260 11-128 0zm128 128h64v-64h-64zm31.2-128c0-52.512-42.72-95.2-95.2-95.2s-95.2 42.688-95.2 95.2c0 6.816.8 9.568 2.144 16H128V96h256v144h-34.944c1.376-6.432 2.144-9.184 2.144-16z"/><glyph unicode="" d="M315.648 204.768c21.408-58.816 30.112-106.72 31.776-116.672 36.704 24.832 62.848 64.16 70.144 109.696-5.568 1.76-50.624 15.2-101.92 6.976zm-31.712-7.936c-92.288-32.16-125.44-96.192-128.384-102.208C183.296 72.992 218.176 60.096 256 60.096c22.688-.032 44.32 4.608 63.936 12.992-2.432 14.368-11.936 64.416-34.912 124.096a10.822 10.822 0 01-1.088-.352zm7.328 65.888a509.566 509.566 0 0010.848-23.712c1.184-2.816 2.368-5.664 3.52-8.448 54.464 6.848 108.576-4.128 113.952-5.28-.32 38.624-14.144 74.112-36.928 101.952-3.424-4.64-30.848-39.808-91.392-64.512zm-23.84-40.384c2.144.672 4.288 1.344 6.432 1.92-4.096 9.312-8.576 18.624-13.248 27.776-81.728-24.448-161.056-23.424-168.224-23.264a259.654 259.654 0 01-.064-4.992c.032-42.048 15.936-80.416 42.08-109.44 3.712 6.336 48.608 80.704 133.024 108zm-20.32 54.88c-27.136 48.224-56.352 88.736-60.672 94.656-45.792-21.6-80.032-63.808-90.624-114.592 7.328-.096 74.752-.384 151.296 19.936zm117.376 68.96c-28.896 25.632-66.88 41.248-108.48 41.248-13.184 0-26.048-1.568-38.336-4.544 4.512-6.08 34.24-46.56 61.056-95.808 58.208 21.792 82.816 54.912 85.76 59.104zM256 480C114.624 480 0 365.376 0 224S114.624-32 256-32 512 82.624 512 224c0 141.408-114.624 256-256 256zm0-447.584C150.368 32.416 64.416 118.368 64.416 224S150.368 415.584 256 415.584 447.584 329.632 447.584 224 361.632 32.416 256 32.416z"/><glyph unicode="" d="M256 480C114.624 480 0 365.376 0 224S114.624-32 256-32 512 82.624 512 224c0 141.408-114.624 256-256 256zm152.064-186.336c-17.184-96.704-113.088-178.592-141.92-197.28-28.864-18.688-55.168 7.488-64.736 27.296-10.912 22.592-43.648 145.056-52.224 155.2-8.576 10.144-34.304-10.144-34.304-10.144l-12.48 16.352s52.256 62.368 92 70.208c42.144 8.288 42.08-64.736 52.224-105.248 9.824-39.2 16.384-61.632 24.96-61.632s24.96 21.856 42.88 55.36c17.984 33.536-.768 63.168-35.872 42.112 14.08 84.192 146.624 104.448 129.472 7.776z"/><glyph unicode="" d="M256 480C114.624 480 0 365.376 0 224S114.624-32 256-32 512 82.624 512 224c0 141.408-114.624 256-256 256zm-64-380h-64v224h64V100zm-30.016 237.728c-16.576 0-29.984 13.44-29.984 30.016s13.44 30.016 29.984 30.016C178.56 397.728 192 384.288 192 367.744c0-16.576-13.44-30.016-30.016-30.016zM416 100h-64v138.496c0 16.224-4.64 27.584-24.576 27.584-33.056 0-39.424-27.584-39.424-27.584V100h-64v224h64v-21.408c9.152 7.008 32 21.376 64 21.376 20.768 0 64-12.416 64-87.424V100z"/><glyph unicode="" d="M256 480C114.624 480 0 365.376 0 224S114.624-32 256-32 512 82.624 512 224c0 141.408-114.624 256-256 256zM138.08 64.768c-23.008 0-41.696 18.56-41.696 41.536 0 22.848 18.688 41.632 41.696 41.632 23.072 0 41.728-18.784 41.76-41.632 0-22.976-18.656-41.536-41.76-41.536zm104.768-.384c0 39.264-15.264 76.16-42.912 103.776-27.648 27.712-64.416 43.008-103.488 43.008V271.2c113.952 0 206.72-92.768 206.72-206.816h-60.32zm106.528.032c0 139.584-113.44 253.152-252.864 253.152V377.6C269.12 377.6 409.6 237.056 409.6 64.416h-60.224z"/><glyph unicode="" d="M256 480C114.624 480 0 365.376 0 224S114.624-32 256-32 512 82.624 512 224c0 141.408-114.624 256-256 256zm17.664-296.64l-40.48 72.992c17.536 3.008 32.704 3.776 45.856 3.008l22.976-36.704L357.056 236c-21.632 21.184-61.152 41.088-133.408 28.224-1.6-.288-3.168-.608-4.704-.896l44.672-82.72-160.864-44.192a79.346 79.346 0 00-8.384 17.216c-10.4 30.112-1.856 61.024 19.776 85.568 13.088 14.688 31.264 26.912 53.376 35.456l-13.536 28.352c12.032 3.84 25.056 6.72 38.88 8.576l14.208-26.336c1.536.256 3.072.512 4.64.736 42.784 6.464 84.576 6.848 123.136-2.208 39.328-7.744 75.424-24.928 92.064-44.224 3.36-3.872 5.888-7.904 7.616-12.032l-160.864-44.16zm-124.928 2.176l55.04 13.344-24.608 51.456c-31.424-16.832-35.392-42.144-30.432-64.8z"/><glyph unicode="" d="M256 480C114.624 480 0 365.376 0 224S114.624-32 256-32 512 82.624 512 224c0 141.408-114.624 256-256 256zm53.152-314.016c7.904 5.984 17.76 9.568 28.448 9.568 26.112 0 47.296-21.152 47.296-47.296 0-26.112-21.184-47.296-47.296-47.296s-47.264 21.152-47.264 47.296v.032l-120.608 58.304c-7.392-4.768-16.16-7.584-25.6-7.584-26.112 0-47.296 21.184-47.296 47.296s21.184 47.296 47.296 47.296c11.136 0 21.344-3.872 29.44-10.304l116.736 56.384v.032c0 26.112 21.184 47.296 47.264 47.296 26.112 0 47.296-21.152 47.296-47.296s-21.184-47.296-47.296-47.296c-10.688 0-20.512 3.584-28.448 9.568l-117.76-56.896c0-.704-.064-1.44-.096-2.144l117.888-56.96z"/><glyph unicode="" d="M256 480C114.624 480 0 365.376 0 224S114.624-32 256-32 512 82.624 512 224c0 141.408-114.624 256-256 256zm9.088-127.744c2.752 6.24 6.464 11.744 11.168 16.448 4.736 4.736 10.176 8.448 16.448 11.2 6.24 2.752 13.056 4.096 20.32 4.096 7.328 0 14.08-1.344 20.32-4.096 6.24-2.72 11.712-6.464 16.416-11.2 4.736-4.704 8.48-10.208 11.2-16.448 2.752-6.24 4.128-12.992 4.128-20.32 0-7.328-1.376-14.08-4.128-20.32a52.997 52.997 0 00-11.2-16.448 53.97 53.97 0 00-16.416-11.2c-6.24-2.72-12.992-4.096-20.32-4.096-7.296 0-14.08 1.376-20.32 4.096-6.24 2.752-11.712 6.464-16.448 11.2-4.704 4.736-8.416 10.208-11.168 16.448-2.752 6.24-4.128 13.024-4.128 20.32 0 7.328 1.376 14.08 4.128 20.32zm-81.056 8.256c7.776 7.744 17.12 11.616 28.064 11.616 11.264 0 20.8-3.872 28.544-11.616 7.776-7.776 11.648-17.152 11.648-28.128 0-11.264-3.904-20.768-11.68-28.544-7.712-7.744-17.248-11.616-28.512-11.616-10.912 0-20.288 3.872-28.064 11.648s-11.68 17.28-11.68 28.544c.032 10.944 3.904 20.32 11.68 28.096zm-69.856-7.328c5.92 5.952 13.152 8.928 21.664 8.928 8.544 0 15.68-2.976 21.472-8.928 5.76-5.92 8.64-12.992 8.64-21.216 0-8.544-2.912-15.744-8.64-21.696-5.792-5.952-12.928-8.928-21.472-8.928-8.512 0-15.744 2.976-21.664 8.896-5.952 5.952-8.928 13.184-8.928 21.696 0 8.224 2.976 15.328 8.928 21.248zM384 64H243.36v64h-88.096v64h-52.576v58.208c0 10.336-.256 19.104 6.912 26.24 7.136 7.136 15.904 10.72 26.24 10.72 8.832 0 16.48-2.656 22.848-8 6.4-5.344 10.624-11.936 12.8-19.872 5.152 6.08 11.264 10.784 18.24 14.176 7.008 3.328 14.464 5.024 22.368 5.024 12.48 0 23.36-3.744 32.672-11.2 9.28-7.456 15.456-16.832 18.496-28.064 6.4 6.08 13.824 10.976 22.4 14.592 8.512 3.648 17.664 5.472 27.392 5.472 9.76 0 18.976-1.824 27.648-5.472 8.64-3.648 16.192-8.672 22.592-15.072 6.4-6.4 11.488-13.92 15.264-22.592 3.808-8.64 5.44-17.856 5.44-27.616V64z"/><glyph unicode="" d="M256 480C114.624 480 0 365.376 0 224S114.624-32 256-32 512 82.624 512 224c0 141.408-114.624 256-256 256zm69.408-407.392c-16.32 0-31.552 4.672-44.48 12.704-8.32-1.504-16.864-2.368-25.664-2.368-77.92 0-141.056 62.816-141.056 140.32 0 7.52.608 14.912 1.76 22.112C107.36 258.56 102.4 274.304 102.4 291.2c0 46.496 37.664 84.16 84.16 84.192 16.96 0 32.704-5.024 45.952-13.664a139.547 139.547 0 0022.72 1.856c77.888 0 141.056-62.848 141.056-140.32 0-6.464-.48-12.8-1.312-19.04 9.248-13.536 14.624-29.856 14.624-47.424 0-46.496-37.664-84.192-84.192-84.192zm-87.84 177.664c-40.768 9.92-18.464 44.8 14.56 44.288 32.064-.512 48.352-34.368 62.88-32.608 14.56 1.76 26.944 23.552 4.064 43.072-19.776 16.896-44.8 26.208-83.264 22.72-30.144-2.72-58.784-22.144-62.304-59.968-3.488-37.856 41.376-57.088 76.896-62.368 24.896-3.648 58.816-15.712 38.432-39.008-18.72-21.408-54.176-8.16-63.488-2.336-9.312 5.856-19.808 26.816-37.28 25.664-17.504-1.184-26.112-24.128-4.64-44.288 19.232-18.016 40.192-27.968 85.024-25.6 44.864 2.336 85.056 41.92 69.312 79.2s-59.424 41.344-100.192 51.232z"/><glyph unicode="" d="M256 480C114.624 480 0 365.376 0 224S114.624-32 256-32 512 82.624 512 224c0 141.408-114.624 256-256 256zm157.28-313.312c-1.728-21.312-17.888-48.512-40.544-52.448-72.416-5.6-158.368-4.928-233.44 0-23.424 2.944-38.816 31.168-40.544 52.448-3.648 44.736-3.648 70.208 0 114.944 1.728 21.28 17.504 49.344 40.544 51.904 74.208 6.24 160.576 4.896 233.44 0 26.112-.96 38.816-27.808 40.544-49.12 3.616-44.736 3.616-72.992 0-117.728zM224 160l96 64-96 64z"/><glyph unicode="" d="M256 480C114.624 480 0 365.376 0 224S114.624-32 256-32 512 82.624 512 224c0 141.408-114.624 256-256 256zm0-64c25.472 0 49.76-4.96 72-13.952V268.16L191.328 404.832A192.301 192.301 0 00256 416zM69.6 177.792A192.744 192.744 0 0064 224c0 72.544 40.192 135.648 99.552 168.32L223.84 332 69.6 177.792zM160 57.696c-35.488 20.512-63.776 52.064-80.192 89.952L160 227.84V57.696zM256 32c-25.472 0-49.76 4.96-72 13.984V128h238.304C389.088 70.624 327.072 32 256 32zm178.016 120H352v238.304c57.376-33.216 96-95.232 96-166.304 0-25.472-4.96-49.76-13.984-72z"/><glyph unicode="" d="M256 480C114.624 480 0 365.376 0 224S114.624-32 256-32 512 82.624 512 224c0 141.408-114.624 256-256 256zm49.376-127.712l84.736-146.816h-98.72l-84.768 146.816h98.752zm-197.472-171.04L192.608 328l49.344-85.536-84.704-146.752-49.344 85.536zM354.72 95.712H191.424l49.344 85.536h163.328L354.72 95.712z"/><glyph unicode="" d="M256 480C114.624 480 0 365.376 0 224S114.624-32 256-32 512 82.624 512 224c0 141.408-114.624 256-256 256zm-94.208-320.128c-35.872 0-64.928 29.056-64.928 64.928s29.056 64.928 64.928 64.928 64.928-29.056 64.928-64.928-29.056-64.928-64.928-64.928zm189.088 0c-35.872 0-64.928 29.056-64.928 64.928s29.056 64.928 64.928 64.928 64.928-29.056 64.928-64.928-29.056-64.928-64.928-64.928z"/><glyph unicode="" d="M315.84 184.096H196.16c-10.976 0-19.936-8.992-19.936-19.936s8.992-19.936 19.936-19.936h119.68c10.976 0 19.936 8.992 19.936 19.936s-8.96 19.936-19.936 19.936zm-119.68 79.808H256c10.976 0 19.936 8.992 19.936 19.936 0 10.976-8.992 19.936-19.936 19.936h-59.84c-10.976 0-19.936-8.992-19.936-19.936-.032-10.976 8.96-19.936 19.936-19.936zM256 480C114.624 480 0 365.376 0 224S114.624-32 256-32 512 82.624 512 224c0 141.408-114.624 256-256 256zm159.584-312.544c0-56.928-46.336-103.04-103.68-103.04H200.192c-57.28 0-103.808 46.112-103.808 103.008v113.088c.032 56.928 46.496 103.072 103.808 103.072h52.32c57.344 0 103.232-42.816 103.232-99.744.768-10.656 10.368-19.936 21.312-19.936h17.888c11.456 0 20.64-12.032 20.64-23.392v-73.056z"/><glyph unicode="" d="M225.856 314.72c-29.504 0-58.88-3.584-87.392-10.656-9.44-2.336-15.168-13.728-12.832-23.136s11.872-15.168 21.312-12.832c25.728 6.368 52.288 9.6 78.944 9.6 51.136 0 100.128-11.488 145.6-34.176 2.528-1.248 5.184-1.856 7.84-1.856 6.464 0 12.672 5.408 15.776 11.584 4.32 8.672.8 19.264-7.904 23.584-50.432 25.152-104.704 37.888-161.344 37.888zm0-148.832a237.124 237.124 0 01-69.824-10.496c-6.976-2.144-10.848-16.928-8.704-23.872 2.144-6.976 9.536-10.88 16.512-8.704 20 6.208 40.896 9.344 62.016 9.344 35.264 0 70.176-8.96 100.928-25.888a13.017 13.017 0 016.368-1.632c4.672 0 9.184 2.464 11.552 6.848 3.52 6.368 1.216 21.792-5.184 25.312-34.624 19.008-73.952 29.088-113.664 29.088zm136.672 38.624c-41.888 21.76-89.152 33.28-136.64 33.28-26.496 0-52.864-3.52-78.304-10.464-8.192-2.24-13.024-16.224-10.784-24.416 2.24-8.192 10.688-13.024 18.912-10.784a267.218 267.218 0 0070.176 9.376c43.2 0 84.384-10.048 122.464-29.824a15.182 15.182 0 017.072-1.728c5.568 0 10.912 8.576 13.664 13.824 3.904 7.52.96 16.832-6.56 20.736zM256 480C114.624 480 0 365.376 0 224S114.624-32 256-32 512 82.624 512 224c0 141.408-114.624 256-256 256zm0-448C149.952 32 64 117.952 64 224s85.952 192 192 192 192-85.952 192-192S362.048 32 256 32z"/><glyph unicode="" d="M256 480C114.624 480 0 365.376 0 224S114.624-32 256-32 512 82.624 512 224c0 141.408-114.624 256-256 256zm160-256.352V75.392C416 69.12 410.88 64 404.608 64H112c-8.832 0-16 7.168-16 16v292.608C96 378.88 101.12 384 107.392 384H400c8.832 0 16-7.168 16-16V223.648zm-288 0h128.192V96H128zM256.192 352H384V223.648H256.192z"/><glyph unicode="" d="M416 480H96c-53.024 0-96-42.976-96-96V64c0-53.024 42.976-96 96-96h320c53.024 0 96 42.976 96 96v320c0 53.024-42.976 96-96 96zm-93.824-255.968L280.224 224l-.032-153.6h-57.568V224h-38.4v52.928l38.4.032-.064 31.168c0 43.2 11.712 69.472 62.56 69.472h42.368v-52.96h-26.496c-19.808 0-20.768-7.392-20.768-21.184l-.064-26.496h47.616l-5.6-52.928z"/><glyph unicode="" d="M416 480H96c-53.024 0-96-42.976-96-96V64c0-53.024 42.976-96 96-96h320c53.024 0 96 42.976 96 96v320c0 53.024-42.976 96-96 96zm-32.64-198.528c.128-2.72.192-5.44.192-8.16 0-83.296-63.392-179.328-179.328-179.328-35.584 0-68.704 10.432-96.608 28.32 4.928-.576 9.952-.896 15.04-.896 29.536 0 56.704 10.08 78.272 26.976-27.584.512-50.848 18.752-58.88 43.776a63.018 63.018 0 0111.872-1.12c5.76 0 11.328.768 16.608 2.208-28.832 5.792-50.56 31.264-50.56 61.792v.8c8.512-4.736 18.208-7.552 28.544-7.904-16.896 11.296-28.032 30.592-28.032 52.448 0 11.552 3.104 22.368 8.512 31.68 31.072-38.144 77.536-63.232 129.92-65.856-1.088 4.608-1.632 9.44-1.632 14.368 0 34.784 28.224 63.008 63.04 63.008 18.112 0 34.496-7.648 46.016-19.904a127.033 127.033 0 0140.032 15.296c-4.704-14.72-14.688-27.072-27.712-34.88 12.736 1.504 24.896 4.928 36.192 9.92-8.448-12.608-19.168-23.712-31.488-32.544z"/><glyph unicode="" d="M416 480H96c-53.024 0-96-42.976-96-96V64c0-53.024 42.976-96 96-96h320c53.024 0 96 42.976 96 96v320c0 53.024-42.976 96-96 96zM275.968 154.784c-18.72 1.44-26.56 10.72-41.216 19.648-8.064-42.304-17.92-82.88-47.104-104.032-9.024 63.904 13.216 111.904 23.552 162.88-17.6 29.664 2.112 89.28 39.232 74.592 45.664-18.08-39.584-110.176 17.664-121.664 59.744-12.032 84.16 103.68 47.104 141.312-53.568 54.336-155.84 1.248-143.264-76.544 3.072-19.008 22.688-24.768 7.84-51.04-34.272 7.584-44.512 34.624-43.2 70.656 2.112 58.976 52.992 100.256 104.032 105.984 64.544 7.232 125.088-23.68 133.472-84.384 9.44-68.512-29.12-142.752-98.112-137.408z"/><glyph unicode="" d="M416 480H96c-53.024 0-96-42.976-96-96V64c0-53.024 42.976-96 96-96h320c53.024 0 96 42.976 96 96v320c0 53.024-42.976 96-96 96zM184.576 51.744c-56.672 0-104.48 23.072-104.48 59.936 0 37.408 43.616 73.536 100.288 73.504 6.176 0 11.84.16 17.696.16-7.744 7.52-13.888 16.768-13.888 28.192 0 6.784 2.176 13.28 5.184 19.072-3.072-.224-6.208-.32-9.44-.32-46.56 0-77.728 33.12-77.728 74.176 0 40.16 43.04 74.816 88.8 74.816h102.08l-22.912-16.512h-32.352c21.472-8.256 32.896-33.28 32.896-58.944 0-21.536-11.936-40.096-28.8-53.28-16.48-12.896-19.584-18.272-19.584-29.216 0-9.344 17.664-25.216 26.88-31.744 26.976-19.072 35.68-36.8 35.68-66.336-.032-36.864-35.712-73.504-100.32-73.504zM448 255.392h-64V191.52h-31.968v63.872H288V288h64.032v64H384v-64h64v-32.608zM234.048 303.84c-4.544 34.496-29.536 62.208-55.808 63.008-26.272.768-43.904-25.632-39.36-60.192 4.544-34.528 29.536-63.168 55.84-63.936 26.24-.8 43.904 26.56 39.328 61.12zm-17.44-132.256c-7.744 2.496-16.288 3.968-25.408 4.064-39.168.416-74.24-23.872-74.24-53.088 0-29.792 28.288-54.592 67.456-54.592 55.072 0 74.24 23.296 74.24 53.056 0 3.616-.448 7.104-1.248 10.528-4.288 16.896-19.552 25.28-40.8 40.032z"/><glyph unicode="" d="M416 480H96c-53.024 0-96-42.976-96-96V64c0-53.024 42.976-96 96-96h320c53.024 0 96 42.976 96 96v320c0 53.024-42.976 96-96 96zm-64.032-236.8H275.2l-.032-70.24c0-17.824-.224-28.096 1.664-33.152 1.888-5.024 6.56-10.24 11.68-13.248 6.816-4.096 14.56-6.112 23.296-6.112 15.552 0 24.736 2.048 40.128 12.16V86.4c-13.12-6.176-24.544-9.76-35.2-12.256-10.624-2.496-22.112-3.744-34.496-3.744-14.048 0-22.336 1.76-33.12 5.312-10.784 3.552-20 8.64-27.616 15.168-7.648 6.56-12.896 13.568-15.872 20.96-2.944 7.392-4.416 18.112-4.416 32.16v107.712h-41.184v43.52c12.064 3.904 25.568 9.536 34.144 16.864 8.608 7.328 15.52 16.096 20.736 26.368 5.184 10.208 8.768 23.296 10.752 39.136H275.2v-76.8h76.768v-57.6z"/><glyph unicode="" d="M416 480H96c-53.024 0-96-42.976-96-96V64c0-53.024 42.976-96 96-96h320c53.024 0 96 42.976 96 96v320c0 53.024-42.976 96-96 96zM256 292.608c-12.608 0-22.88-10.272-22.88-22.88V178.24c0-37.824-30.784-68.608-68.608-68.608-37.824 0-68.608 30.784-68.608 68.608V224h45.728v-45.728c0-12.608 10.272-22.88 22.88-22.88 12.608 0 22.88 10.272 22.88 22.88v91.456c0 37.824 30.784 68.608 68.608 68.608s68.608-30.784 68.608-63.616v-22.176L295.296 244l-16.448 8.576v22.176c0 7.584-10.272 17.856-22.848 17.856zm160.064-114.336c0-37.824-30.784-68.608-68.608-68.608s-68.608 30.784-68.608 73.632v44.288l16.448-8.576 29.312 8.576v-44.32c0-17.6 10.272-27.872 22.88-27.872s22.88 10.272 22.88 22.88V224h45.728v-45.728z"/><glyph unicode="" d="M416 480H96c-53.024 0-96-42.976-96-96V64c0-53.024 42.976-96 96-96h320c53.024 0 96 42.976 96 96v320c0 53.024-42.976 96-96 96zM58.88 224c0 27.84 6.144 54.272 17.088 78.112L169.984 51.2C104.224 82.336 58.88 148 58.88 224zM256 32c-19.36 0-38.016 2.752-55.68 7.808l61.696 161.184 58.048-155.456c.384-.96.896-1.824 1.408-2.656C300.992 35.84 278.976 32 256 32zm27.104 282.016a411.492 411.492 0 0122.56 1.824c10.656 1.248 9.376 16.416-1.248 15.84 0 0-31.936-2.432-52.544-2.432-19.36 0-51.904 2.432-51.904 2.432-10.592.576-11.84-15.232-1.248-15.84 0 0 10.048-1.216 20.672-1.792l30.72-81.984-47.104-126.048-67.808 208a411.492 411.492 0 0122.56 1.824c10.624 1.248 9.376 16.416-1.248 15.84 0 0-31.936-2.432-52.544-2.432-3.68 0-8.064.096-12.672.224C126.56 381.568 187.136 416 256 416c51.328 0 98.048-19.136 133.12-50.4-.864.064-1.664.16-2.56.16-19.392 0-33.12-16.416-33.12-34.08 0-15.84 9.376-29.216 19.36-45.056 7.52-12.8 12.864-19.872 12.864-43.584 0-16.416-6.464-35.52-14.976-62.08l-19.68-63.968-67.904 197.024zM355.072 58.08l60.224 169.536c11.232 27.392 14.976 49.28 14.976 68.768 0 7.072-.448 13.632-1.312 19.744 15.392-27.36 24.16-58.752 24.16-92.128 0-70.848-39.424-132.672-98.048-165.92z"/><glyph unicode="" d="M416 480H96c-53.024 0-96-42.976-96-96V64c0-53.024 42.976-96 96-96h320c53.024 0 96 42.976 96 96v320c0 53.024-42.976 96-96 96zm0-404.448C416 69.184 410.816 64 404.448 64H107.552C101.184 64 96 69.184 96 75.552v296.896c0 6.368 5.184 11.552 11.552 11.552h296.896c6.368 0 11.552-5.184 11.552-11.552V75.552zM320 352h64v-64h-64zM192 224a64 64 1260 11128 0 64 64 1260 11-128 0zm159.2 0c0-52.512-42.72-95.2-95.2-95.2s-95.2 42.688-95.2 95.2c0 6.816.8 9.568 2.144 16H128V96h256v144h-34.944c1.376-6.432 2.144-9.184 2.144-16z"/><glyph unicode="" d="M247.104 277.216c-27.136 48.224-56.352 88.736-60.672 94.656-45.792-21.6-80.032-63.808-90.624-114.592 7.328-.096 74.752-.384 151.296 19.936zM416 480H96c-53.024 0-96-42.976-96-96V64c0-53.024 42.976-96 96-96h320c53.024 0 96 42.976 96 96v320c0 53.024-42.976 96-96 96zM256 32.416C150.368 32.416 64.416 118.368 64.416 224S150.368 415.584 256 415.584 447.584 329.632 447.584 224 361.632 32.416 256 32.416zm11.424 189.92c2.144.672 4.288 1.344 6.432 1.92-4.096 9.312-8.576 18.624-13.248 27.776-81.728-24.448-161.056-23.424-168.224-23.264a259.654 259.654 0 01-.064-4.992c.032-42.048 15.936-80.416 42.08-109.44 3.712 6.336 48.608 80.704 133.024 108zm23.84 40.384a509.566 509.566 0 0010.848-23.712c1.184-2.816 2.368-5.664 3.52-8.448 54.464 6.848 108.576-4.128 113.952-5.28-.32 38.624-14.144 74.112-36.928 101.952-3.424-4.64-30.848-39.808-91.392-64.512zm-7.328-65.888c-92.288-32.16-125.44-96.192-128.384-102.208C183.296 72.992 218.176 60.096 256 60.096c22.688-.032 44.32 4.608 63.936 12.992-2.432 14.368-11.936 64.416-34.912 124.096a10.822 10.822 0 01-1.088-.352zm80.544 149.344c-28.896 25.632-66.88 41.248-108.48 41.248-13.184 0-26.048-1.568-38.336-4.544 4.512-6.08 34.24-46.56 61.056-95.808 58.208 21.792 82.816 54.912 85.76 59.104zm-48.832-141.408c21.408-58.816 30.112-106.72 31.776-116.672 36.704 24.832 62.848 64.16 70.144 109.696-5.568 1.76-50.624 15.2-101.92 6.976z"/><glyph unicode="" d="M416 480H96c-53.024 0-96-42.976-96-96V64c0-53.024 42.976-96 96-96h320c53.024 0 96 42.976 96 96v320c0 53.024-42.976 96-96 96zm-7.936-186.336c-17.184-96.704-113.088-178.592-141.92-197.28-28.864-18.688-55.168 7.488-64.736 27.296-10.912 22.592-43.648 145.056-52.224 155.2-8.576 10.144-34.304-10.144-34.304-10.144l-12.48 16.352s52.256 62.368 92 70.208c42.144 8.288 42.08-64.736 52.224-105.248 9.824-39.2 16.384-61.632 24.96-61.632s24.96 21.856 42.88 55.36c17.984 33.536-.768 63.168-35.872 42.112 14.08 84.192 146.624 104.448 129.472 7.776z"/><glyph unicode="" d="M416 480H96c-53.024 0-96-42.976-96-96V64c0-53.024 42.976-96 96-96h320c53.024 0 96 42.976 96 96v320c0 53.024-42.976 96-96 96zM192 100h-64v224h64V100zm-30.016 237.728c-16.576 0-29.984 13.44-29.984 30.016s13.44 30.016 29.984 30.016C178.56 397.728 192 384.288 192 367.744c0-16.576-13.44-30.016-30.016-30.016zM416 100h-64v138.496c0 16.224-4.64 27.584-24.576 27.584-33.056 0-39.424-27.584-39.424-27.584V100h-64v224h64v-21.408c9.152 7.008 32 21.376 64 21.376 20.768 0 64-12.416 64-87.424V100z"/><glyph unicode="" d="M416 480H96c-53.024 0-96-42.976-96-96V64c0-53.024 42.976-96 96-96h320c53.024 0 96 42.976 96 96v320c0 53.024-42.976 96-96 96zM138.08 64.768c-23.008 0-41.696 18.56-41.696 41.536 0 22.848 18.688 41.632 41.696 41.632 23.072 0 41.728-18.784 41.76-41.632 0-22.976-18.656-41.536-41.76-41.536zm104.768-.384c0 39.264-15.264 76.16-42.912 103.776-27.648 27.712-64.416 43.008-103.488 43.008V271.2c113.952 0 206.72-92.768 206.72-206.816h-60.32zm106.528.032c0 139.584-113.44 253.152-252.864 253.152V377.6C269.12 377.6 409.6 237.056 409.6 64.416h-60.224z"/><glyph unicode="" d="M416 480H96c-53.024 0-96-42.976-96-96V64c0-53.024 42.976-96 96-96h320c53.024 0 96 42.976 96 96v320c0 53.024-42.976 96-96 96zM273.664 183.36l-40.48 72.992c17.536 3.008 32.704 3.776 45.856 3.008l22.976-36.704L357.056 236c-21.632 21.184-61.152 41.088-133.408 28.224-1.6-.288-3.168-.608-4.704-.896l44.672-82.72-160.864-44.192a79.346 79.346 0 00-8.384 17.216c-10.4 30.112-1.856 61.024 19.776 85.568 13.088 14.688 31.264 26.912 53.376 35.456l-13.536 28.352c12.032 3.84 25.056 6.72 38.88 8.576l14.208-26.336c1.536.256 3.072.512 4.64.736 42.784 6.464 84.576 6.848 123.136-2.208 39.328-7.744 75.424-24.928 92.064-44.224 3.36-3.872 5.888-7.904 7.616-12.032l-160.864-44.16zm-124.928 2.176l55.04 13.344-24.608 51.456c-31.424-16.832-35.392-42.144-30.432-64.8z"/><glyph unicode="" d="M416 480H96c-53.024 0-96-42.976-96-96V64c0-53.024 42.976-96 96-96h320c53.024 0 96 42.976 96 96v320c0 53.024-42.976 96-96 96zM309.152 165.984c7.904 5.984 17.76 9.568 28.448 9.568 26.112 0 47.296-21.152 47.296-47.296 0-26.112-21.184-47.296-47.296-47.296s-47.264 21.152-47.264 47.296v.032l-120.608 58.304c-7.392-4.768-16.16-7.584-25.6-7.584-26.112 0-47.296 21.184-47.296 47.296s21.184 47.296 47.296 47.296c11.136 0 21.344-3.872 29.44-10.304l116.736 56.384v.032c0 26.112 21.184 47.296 47.264 47.296 26.112 0 47.296-21.152 47.296-47.296s-21.184-47.296-47.296-47.296c-10.688 0-20.512 3.584-28.448 9.568l-117.76-56.896c0-.704-.064-1.44-.096-2.144l117.888-56.96z"/><glyph unicode="" d="M416 480H96c-53.024 0-96-42.976-96-96V64c0-53.024 42.976-96 96-96h320c53.024 0 96 42.976 96 96v320c0 53.024-42.976 96-96 96zM265.088 352.256c2.752 6.24 6.464 11.744 11.168 16.448 4.736 4.736 10.176 8.448 16.448 11.2 6.24 2.752 13.056 4.096 20.32 4.096 7.328 0 14.08-1.344 20.32-4.096 6.24-2.72 11.712-6.464 16.416-11.2 4.736-4.704 8.48-10.208 11.2-16.448 2.752-6.24 4.128-12.992 4.128-20.32 0-7.328-1.376-14.08-4.128-20.32a52.997 52.997 0 00-11.2-16.448 53.97 53.97 0 00-16.416-11.2c-6.24-2.72-12.992-4.096-20.32-4.096-7.296 0-14.08 1.376-20.32 4.096-6.24 2.752-11.712 6.464-16.448 11.2-4.704 4.736-8.416 10.208-11.168 16.448-2.752 6.24-4.128 13.024-4.128 20.32 0 7.328 1.376 14.08 4.128 20.32zm-81.056 8.256c7.776 7.744 17.12 11.616 28.064 11.616 11.264 0 20.8-3.872 28.544-11.616 7.776-7.776 11.648-17.152 11.648-28.128 0-11.264-3.904-20.768-11.68-28.544-7.712-7.744-17.248-11.616-28.512-11.616-10.912 0-20.288 3.872-28.064 11.648s-11.68 17.28-11.68 28.544c.032 10.944 3.904 20.32 11.68 28.096zm-69.856-7.328c5.92 5.952 13.152 8.928 21.664 8.928 8.544 0 15.68-2.976 21.472-8.928 5.76-5.92 8.64-12.992 8.64-21.216 0-8.544-2.912-15.744-8.64-21.696-5.792-5.952-12.928-8.928-21.472-8.928-8.512 0-15.744 2.976-21.664 8.896-5.952 5.952-8.928 13.184-8.928 21.696 0 8.224 2.976 15.328 8.928 21.248zM384 64H243.36v64h-88.096v64h-52.576v58.208c0 10.336-.256 19.104 6.912 26.24 7.136 7.136 15.904 10.72 26.24 10.72 8.832 0 16.48-2.656 22.848-8 6.4-5.344 10.624-11.936 12.8-19.872 5.152 6.08 11.264 10.784 18.24 14.176 7.008 3.328 14.464 5.024 22.368 5.024 12.48 0 23.36-3.744 32.672-11.2 9.28-7.456 15.456-16.832 18.496-28.064 6.4 6.08 13.824 10.976 22.4 14.592 8.512 3.648 17.664 5.472 27.392 5.472 9.76 0 18.976-1.824 27.648-5.472 8.64-3.648 16.192-8.672 22.592-15.072 6.4-6.4 11.488-13.92 15.264-22.592 3.808-8.64 5.44-17.856 5.44-27.616V64z"/><glyph unicode="" d="M416 480H96c-53.024 0-96-42.976-96-96V64c0-53.024 42.976-96 96-96h320c53.024 0 96 42.976 96 96v320c0 53.024-42.976 96-96 96zM325.408 72.608c-16.32 0-31.552 4.672-44.48 12.704-8.32-1.504-16.864-2.368-25.664-2.368-77.92 0-141.056 62.816-141.056 140.32 0 7.52.608 14.912 1.76 22.112C107.36 258.56 102.4 274.304 102.4 291.2c0 46.496 37.664 84.16 84.16 84.192 16.96 0 32.704-5.024 45.952-13.664a139.547 139.547 0 0022.72 1.856c77.888 0 141.056-62.848 141.056-140.32 0-6.464-.48-12.8-1.312-19.04 9.248-13.536 14.624-29.856 14.624-47.424 0-46.496-37.664-84.192-84.192-84.192zm-87.84 177.664c-40.768 9.92-18.464 44.8 14.56 44.288 32.064-.512 48.352-34.368 62.88-32.608 14.56 1.76 26.944 23.552 4.064 43.072-19.776 16.896-44.8 26.208-83.264 22.72-30.144-2.72-58.784-22.144-62.304-59.968-3.488-37.856 41.376-57.088 76.896-62.368 24.896-3.648 58.816-15.712 38.432-39.008-18.72-21.408-54.176-8.16-63.488-2.336-9.312 5.856-19.808 26.816-37.28 25.664-17.504-1.184-26.112-24.128-4.64-44.288 19.232-18.016 40.192-27.968 85.024-25.6 44.864 2.336 85.056 41.92 69.312 79.2s-59.424 41.344-100.192 51.232z"/><glyph unicode="" d="M224 160l96 64-96 64zm192 320H96c-53.024 0-96-42.976-96-96V64c0-53.024 42.976-96 96-96h320c53.024 0 96 42.976 96 96v320c0 53.024-42.976 96-96 96zm-2.72-313.312c-1.728-21.312-17.888-48.512-40.544-52.448-72.416-5.6-158.368-4.928-233.44 0-23.424 2.944-38.816 31.168-40.544 52.448-3.648 44.736-3.648 70.208 0 114.944 1.728 21.28 17.504 49.344 40.544 51.904 74.208 6.24 160.576 4.896 233.44 0 26.112-.96 38.816-27.808 40.544-49.12 3.616-44.736 3.616-72.992 0-117.728z"/><glyph unicode="" d="M416 480H96c-53.024 0-96-42.976-96-96V64c0-53.024 42.976-96 96-96h320c53.024 0 96 42.976 96 96v320c0 53.024-42.976 96-96 96zm-160-64c25.472 0 49.76-4.96 72-13.952V268.16L191.328 404.832A192.301 192.301 0 00256 416zM64 224c0 72.544 40.192 135.648 99.552 168.32L223.84 332 69.6 177.792A192.744 192.744 0 0064 224zm96-166.304c-35.488 20.512-63.776 52.064-80.192 89.952L160 227.84V57.696zM256 32c-25.472 0-49.76 4.96-72 13.984V128h238.304C389.088 70.624 327.072 32 256 32zm178.016 120H352v238.304c57.376-33.216 96-95.232 96-166.304 0-25.472-4.96-49.76-13.984-72z"/><glyph unicode="" d="M416 480H96c-53.024 0-96-42.976-96-96V64c0-53.024 42.976-96 96-96h320c53.024 0 96 42.976 96 96v320c0 53.024-42.976 96-96 96zM305.376 352.288l84.736-146.816h-98.72l-84.768 146.816h98.752zm-197.472-171.04L192.608 328l49.344-85.536-84.704-146.752-49.344 85.536zM354.72 95.712H191.424l49.344 85.536h163.328L354.72 95.712z"/><glyph unicode="" d="M416 480H96c-53.024 0-96-42.976-96-96V64c0-53.024 42.976-96 96-96h320c53.024 0 96 42.976 96 96v320c0 53.024-42.976 96-96 96zM161.792 159.872c-35.872 0-64.928 29.056-64.928 64.928s29.056 64.928 64.928 64.928 64.928-29.056 64.928-64.928-29.056-64.928-64.928-64.928zm189.088 0c-35.872 0-64.928 29.056-64.928 64.928s29.056 64.928 64.928 64.928 64.928-29.056 64.928-64.928-29.056-64.928-64.928-64.928z"/><glyph unicode="" d="M416 480H96c-53.024 0-96-42.976-96-96V64c0-53.024 42.976-96 96-96h320c53.024 0 96 42.976 96 96v320c0 53.024-42.976 96-96 96zm-.416-312.544c0-56.928-46.336-103.04-103.68-103.04H200.192c-57.28 0-103.808 46.112-103.808 103.008v113.088c.032 56.928 46.496 103.072 103.808 103.072h52.32c57.344 0 103.232-42.816 103.232-99.744.768-10.656 10.368-19.936 21.312-19.936h17.888c11.456 0 20.64-12.032 20.64-23.392v-73.056zm-99.744 16.64H196.16c-10.976 0-19.936-8.992-19.936-19.936s8.992-19.936 19.936-19.936h119.68c10.976 0 19.936 8.992 19.936 19.936s-8.96 19.936-19.936 19.936zm-119.68 79.808H256c10.976 0 19.936 8.992 19.936 19.936 0 10.976-8.992 19.936-19.936 19.936h-59.84c-10.976 0-19.936-8.992-19.936-19.936-.032-10.976 8.96-19.936 19.936-19.936z"/><glyph unicode="" d="M362.528 204.512c-41.888 21.76-89.152 33.28-136.64 33.28-26.496 0-52.864-3.52-78.304-10.464-8.192-2.24-13.024-16.224-10.784-24.416 2.24-8.192 10.688-13.024 18.912-10.784a267.218 267.218 0 0070.176 9.376c43.2 0 84.384-10.048 122.464-29.824a15.182 15.182 0 017.072-1.728c5.568 0 10.912 8.576 13.664 13.824 3.904 7.52.96 16.832-6.56 20.736zM416 480H96c-53.024 0-96-42.976-96-96V64c0-53.024 42.976-96 96-96h320c53.024 0 96 42.976 96 96v320c0 53.024-42.976 96-96 96zM256 32C149.952 32 64 117.952 64 224s85.952 192 192 192 192-85.952 192-192S362.048 32 256 32zm-30.144 282.72c-29.504 0-58.88-3.584-87.392-10.656-9.44-2.336-15.168-13.728-12.832-23.136s11.872-15.168 21.312-12.832c25.728 6.368 52.288 9.6 78.944 9.6 51.136 0 100.128-11.488 145.6-34.176 2.528-1.248 5.184-1.856 7.84-1.856 6.464 0 12.672 5.408 15.776 11.584 4.32 8.672.8 19.264-7.904 23.584-50.432 25.152-104.704 37.888-161.344 37.888zm0-148.832a237.124 237.124 0 01-69.824-10.496c-6.976-2.144-10.848-16.928-8.704-23.872 2.144-6.976 9.536-10.88 16.512-8.704 20 6.208 40.896 9.344 62.016 9.344 35.264 0 70.176-8.96 100.928-25.888a13.017 13.017 0 016.368-1.632c4.672 0 9.184 2.464 11.552 6.848 3.52 6.368 1.216 21.792-5.184 25.312-34.624 19.008-73.952 29.088-113.664 29.088z"/><glyph unicode="" d="M256.192 352H384V223.648H256.192zM416 480H96c-53.024 0-96-42.976-96-96V64c0-53.024 42.976-96 96-96h320c53.024 0 96 42.976 96 96v320c0 53.024-42.976 96-96 96zm0-256.352V75.392C416 69.12 410.88 64 404.608 64H112c-8.832 0-16 7.168-16 16v292.608C96 378.88 101.12 384 107.392 384H400c8.832 0 16-7.168 16-16V223.648zm-288 0h128.192V96H128z"/><glyph unicode="" d="M480 320h-32v128c0 17.664-14.336 32-32 32H96c-17.664 0-32-14.336-32-32V320H32c-17.664 0-32-14.336-32-32V128c0-17.664 14.336-32 32-32h32V0c0-17.664 14.336-32 32-32h320c17.664 0 32 14.336 32 32v96h32c17.664 0 32 14.336 32 32v160c0 17.664-14.336 32-32 32zM96 160h320V0H96v160zm320 32H96c-17.664 0-32-14.336-32-32v-32H32v160h448V128h-32v32c0 17.664-14.336 32-32 32zM96 448h320V320H96v128zm256-208a16 16 180 1132 0 16 16 180 11-32 0zm-288 0a16 16 180 1132 0 16 16 180 11-32 0zm352 0a16 16 180 1132 0 16 16 180 11-32 0zm-32-128c0 8.832-7.168 16-16 16H144c-8.832 0-16-7.168-16-16s7.168-16 16-16h224c8.832 0 16 7.168 16 16zm-16-48H144c-8.832 0-16-7.168-16-16s7.168-16 16-16h224c8.832 0 16 7.168 16 16s-7.168 16-16 16z"/><glyph unicode="" d="M96-32h320c17.664 0 32 14.336 32 32v448c0 17.664-14.336 32-32 32H96c-17.664 0-32-14.336-32-32V0c0-17.664 14.336-32 32-32zm0 480h320V0H96v448zm256-32H160c-17.664 0-32-14.336-32-32v-32c0-17.664 14.336-32 32-32h192c17.664 0 32 14.336 32 32v32c0 17.664-14.336 32-32 32zm0-64H160v32h192v-32zm-224-96a32 32 180 1164 0 32 32 180 11-64 0zm0-96a32 32 180 1164 0 32 32 180 11-64 0zm0-96a32 32 180 1164 0 32 32 180 11-64 0zm96 192a32 32 180 1164 0 32 32 180 11-64 0zm0-96a32 32 180 1164 0 32 32 180 11-64 0zm0-96a32 32 180 1164 0 32 32 180 11-64 0zm96 192a32 32 180 1164 0 32 32 180 11-64 0zm0-96a32 32 180 1164 0 32 32 180 11-64 0zm0-96a32 32 180 1164 0 32 32 180 11-64 0z"/><glyph unicode="" d="M320 416h32v-32h-32zm64 0h32v-32h-32zm-64-64h32v-32h-32zm64 0h32v-32h-32zm-64-64h32v-32h-32zm64 0h32v-32h-32zm-64-64h32v-32h-32zm64 0h32v-32h-32zm-64-64h32v-32h-32zm64 0h32v-32h-32zm64 320H288c-17.664 0-32-14.336-32-32v-96H96c-17.664 0-32-14.336-32-32V0c0-17.664 14.336-32 32-32h352c17.664 0 32 14.336 32 32v448c0 17.664-14.336 32-32 32zM192 0h-32v64h32V0zm32 0v96h-96V0H96v320h160V0h-32zm160 0h-32v64h32V0zm64 0h-32v96h-96V0h-32v448h160V0zM128 288h32v-32h-32zm64 0h32v-32h-32zm-64-64h32v-32h-32zm64 0h32v-32h-32zm-64-64h32v-32h-32zm64 0h32v-32h-32z"/><glyph unicode="" d="M384 480H32c-17.664 0-32-14.336-32-32V0c0-17.664 14.336-32 32-32h448c17.664 0 32 14.336 32 32v384l-96 96h-32zm0-32V320h-64v128h64zm-96 0V320H128v128h160zM128 0v192h256V0H128zm352 0h-64v192c0 17.664-14.336 32-32 32H128c-17.664 0-32-14.336-32-32V0H32v448h64V320c0-17.664 14.336-32 32-32h256c17.664 0 32 14.336 32 32v114.752l64-64V0z"/><glyph unicode="" d="M480 416c-1.984 31.328-28.64 64-64 64H96c-35.36 0-62.016-32.672-64-64L0 73.344c0-1.504.352-3.36.448-4.96C.352 66.912 0 65.504 0 64V32C0-3.36 28.64-32 64-32h384c35.36 0 64 28.64 64 64v32c0 1.504-.352 2.912-.448 4.352.096 1.632.448 3.488.448 4.992L480 416zM32 32v32c0 17.632 14.368 32 32 32h384c17.632 0 32-14.368 32-32V32c0-17.632-14.368-32-32-32H64C46.368 0 32 14.368 32 32zm31.936 381.952C64.928 429.696 79.168 448 96 448h320c16.832 0 31.072-18.304 32.128-34.976l27.2-291.392C467.04 125.6 457.824 128 448 128H64c-9.824 0-19.04-2.4-27.36-6.368l27.296 292.32zM416 48a16 16 180 1132 0 16 16 180 11-32 0zm-64 0a16 16 180 1132 0 16 16 180 11-32 0zM80 32h224c8.832 0 16 7.168 16 16s-7.168 16-16 16H80c-8.832 0-16-7.168-16-16s7.168-16 16-16z"/><glyph unicode="" d="M32 0h288c17.664 0 32 14.336 32 32v43.2a112.344 112.344 0 0119.168 11.68l98.208-98.208c3.136-3.136 7.232-4.672 11.328-4.672s8.192 1.568 11.328 4.672c6.24 6.24 6.24 16.384 0 22.624l-98.272 98.272C407.552 128.192 416 151.04 416 176c0 44.608-26.272 82.784-64 100.8V448c0 17.664-14.336 32-32 32H32c-17.664 0-32-14.336-32-32V32C0 14.336 14.336 0 32 0zm272 96c-44.096 0-80 35.904-80 80s35.904 80 80 80 80-35.904 80-80-35.904-80-80-80zM32 448h288V288H84.576C73.216 288 64 280.832 64 272s9.216-16 20.576-16h141.216c-17.184-16.768-28.576-39.104-32.192-64H80c-8.832 0-16-7.168-16-16s7.168-16 16-16h113.6c7.84-54.208 54.016-96 110.4-96 5.472 0 10.72.864 16 1.6V32H32v416zm48-96h192c8.832 0 16 7.168 16 16s-7.168 16-16 16H80c-8.832 0-16-7.168-16-16s7.168-16 16-16z"/><glyph unicode="" d="M480 384H32c-17.664 0-32-14.336-32-32V64c0-17.664 14.336-32 32-32h448c17.664 0 32 14.336 32 32v288c0 17.664-14.336 32-32 32zM32 352h448V64H32v288zm402.656-128H240c-8.832 0-16-7.168-16-16s7.168-16 16-16h194.656c8.832 0 16 7.168 16 16s-7.168 16-16 16zm0-64H240c-8.832 0-16-7.168-16-16s7.168-16 16-16h194.656c8.832 0 16 7.168 16 16s-7.168 16-16 16zm0 128H240c-8.832 0-16-7.168-16-16s7.168-16 16-16h194.656c8.832 0 16 7.168 16 16s-7.168 16-16 16zM89.28 281.344a38.656 38.656 180 1177.312 0 38.656 38.656 180 11-77.312 0zm39.488-54.112c-34.944 0-63.232-37.952-63.232-84.8S192 95.616 192 142.432s-28.32 84.8-63.232 84.8z"/><glyph unicode="" d="M480 384H320v-64c0-17.664-14.336-32-32-32h16c26.496 0 48 21.504 48 48 0 6.08-.096 11.36-.288 16H480V0H32v352h128.288c-.192-4.64-.288-9.92-.288-16 0-26.496 21.504-48 48-48h16c-17.664 0-32 14.336-32 32v64H32c-17.664 0-32-14.336-32-32V0c0-17.664 14.336-32 32-32h448c17.664 0 32 14.336 32 32v352c0 17.664-14.336 32-32 32zm-45.344-224H240c-8.832 0-16-7.168-16-16s7.168-16 16-16h194.656c8.832 0 16 7.168 16 16s-7.168 16-16 16zm0-64H240c-8.832 0-16-7.168-16-16s7.168-16 16-16h194.656c8.832 0 16 7.168 16 16s-7.168 16-16 16zM240 192h194.656c8.832 0 16 7.168 16 16s-7.168 16-16 16H240c-8.832 0-16-7.168-16-16s7.168-16 16-16zM89.28 217.344a38.656 38.656 180 1177.312 0 38.656 38.656 180 11-77.312 0zm39.488-54.112c-34.944 0-63.232-37.952-63.232-84.8S192 31.616 192 78.432s-28.32 84.8-63.232 84.8zM192 320c0-17.664 14.336-32 32-32h64c17.664 0 32 14.336 32 32v128c0 17.664-14.336 32-32 32h-64c-17.664 0-32-14.336-32-32V320zm96 0h-64v128h64V320z"/><glyph unicode="" d="M179.968 104.896c-14.4 0-27.808 5.632-37.76 15.84-27.392 28.224-61.344 15.904-69.376-21.472C59.872 38.784 61.12.032 76.672-19.232c8.928-11.072 19.424-11.904 22.4-11.904L432.992-32c43.456 0 78.848 34.048 78.848 75.904v209.6l.096 10.016c.288 25.76.608 52.384-13.088 66.208-9.056 9.184-22.112 11.136-36.896 4.832-27.328-11.68-56.96-13.248-95.456-5.696-9.632 1.92-13.44 5.056-13.312 4.64 0 .032.64 2.848 6.432 7.968 17.216 15.264 27.104 36.704 27.104 58.944C386.688 444.32 349.6 480 304 480c-45.568 0-82.656-35.68-82.656-79.552 0-21.824 9.984-42.304 29.664-60.96.928-.928 2.816-2.72 4.288-4.384-3.2-1.568-9.568-3.872-21.728-5.92-31.808-5.344-63.136 2.208-87.104 7.872-26.752 6.304-43.776 8.384-53.664-1.664-11.072-11.2-35.104-45.472-19.872-122.464 2.304-11.776 9.408-47.616 36.64-47.616 13.472 0 23.552 9.76 29.792 15.744 39.616 38.112 91.296 10.848 91.296-28.608-.032-26.208-22.752-47.552-50.688-47.552zm0 127.136c-22.4 0-43.52-9.376-63.616-28.672-1.088-1.088-3.52-3.392-5.472-4.864-1.568 2.688-4.16 8.576-6.56 20.64-11.52 58.24 3.136 83.84 9.408 91.68 5.408-.16 15.104-2.464 25.408-4.896 19.872-4.672 44.608-10.496 71.936-10.496 9.6 0 18.976.736 27.808 2.208 18.304 3.072 43.328 9.376 49.12 28.352 5.312 17.472-8.928 30.976-15.072 36.768-13.184 12.512-19.584 24.8-19.584 37.696 0 26.208 22.72 47.552 50.656 47.552s50.688-21.344 50.688-47.552c0-13.248-5.792-25.664-16.288-34.944-17.984-15.872-18.752-30.24-16.224-39.488 3.808-14.08 17.728-24.48 38.08-28.48 44.8-8.768 81.088-6.496 114.24 7.616 1.024.48 1.824.704 2.24.928 3.552-7.168 3.296-30.56 3.168-42.176l-.096-220C479.808 19.712 458.816 0 432.992 0l-330.88.288c-.16.128-15.04 13.184 1.984 92.256 1.76 8.288 5.024 11.968 5.856 12.352 0 0 3.2-.16 9.28-6.432 16-16.48 37.568-25.536 60.672-25.536 45.568 0 82.656 35.68 82.656 79.552s-37.024 79.552-82.592 79.552z"/><glyph unicode="" d="M433.6 320H288v83.008c1.152 44.928-8.992 76.928-47.008 76.928C200 479.936 192 445.92 192 445.92 184.512 325.44 64 288 64 288V32l46.752-1.984C231.808 30.016 159.168-32 358.08-32 509.12-32 512 100.928 512 192s-41.504 128-78.4 128zM358.08 0C257.024 0 235.616 16.096 216.704 30.304c-23.904 17.952-46.848 31.68-104.384 31.68h-.192L96 62.656v203.84c39.904 18.624 119.2 68.544 127.648 173.344 1.248 2.56 5.376 8.096 17.344 8.096 2.848 0 6.528-.32 8.096-1.92 1.312-1.312 7.744-9.632 6.912-43.008V288h177.6c23.072 0 46.4-32.96 46.4-96C480 67.488 460.576 0 358.08 0zM16 0c8.832 0 16 7.168 16 16v286.656c0 8.832-7.168 16-16 16s-16-7.168-16-16V16C0 7.168 7.168 0 16 0z"/><glyph unicode="" d="M78.4 127.936H224V44.928C222.88.032 232.992-32 271.008-32 312-32 320 2.016 320 2.016c7.488 120.48 128 157.92 128 157.92v256l-46.752 1.984c-121.056 0-48.416 62.016-247.328 62.016C2.88 479.936 0 347.008 0 255.936s41.504-128 78.4-128zm75.52 320c101.056 0 122.464-16.096 141.376-30.304 23.872-17.952 46.848-31.68 104.384-31.68h.192L416 385.28V181.472c-39.904-18.656-119.2-68.544-127.648-173.376C287.104 5.536 282.976 0 271.008 0c-2.848 0-6.528.32-8.096 1.92-1.312 1.344-7.744 9.632-6.912 43.008v115.008H78.4c-23.072 0-46.4 32.96-46.4 96 0 124.512 19.424 192 121.92 192zm342.08 0c-8.832 0-16-7.168-16-16V145.28c0-8.832 7.168-16 16-16s16 7.168 16 16v286.656c0 8.832-7.168 16-16 16z"/><glyph unicode="" d="M414.24 319.936c.896 13.376 1.44 24.224 1.728 30.72.352 8.704-2.848 17.184-8.864 23.488S392.704 384 384 384H32c-8.704 0-17.056-3.552-23.104-9.856S-.32 359.36.032 350.656C1.792 308.384 13.696 94.72 74.656 40.16A32.014 32.014 0 0196 32h224a32.014 32.014 0 0121.344 8.16c19.104 17.12 33.408 49.856 44.064 88.064 15.84.064 26.784.096 28.064.096 54.432 0 98.56 39.68 98.56 95.84-.032 76.256-65.952 95.488-97.792 95.776zM320 64H96c-53.984 48.32-64 288-64 288h352s-10.016-239.68-64-288zm93.44 96.32l-10.08-.032c-2.88 0-6.304-.032-10.176-.032 9.536 43.808 15.264 90.56 18.56 127.744h1.696c2.72 0 66.56-.736 66.56-63.84 0-36.992-28-63.84-66.56-63.84z"/><glyph unicode="" d="M272 448C139.456 448 32 340.544 32 208S139.456-32 272-32 512 75.456 512 208 404.544 448 272 448zm0-448C157.312 0 64 93.312 64 208s93.312 208 208 208 208-93.312 208-208S386.688 0 272 0zm27.424 320C328.416 320 352 298.464 352 272c0-8.832 7.168-16 16-16s16 7.168 16 16c0 44.128-37.952 80-84.576 80H288v16c0 8.832-7.168 16-16 16s-16-7.168-16-16v-16h-11.424C197.952 352 160 316.128 160 272s37.952-80 84.576-80H256V96h-11.424C215.584 96 192 117.536 192 144c0 8.832-7.168 16-16 16s-16-7.168-16-16c0-44.128 37.952-80 84.576-80H256V48c0-8.832 7.168-16 16-16s16 7.168 16 16v16h11.424C346.048 64 384 99.872 384 144s-37.952 80-84.576 80H288v96h11.424zm0-128C328.416 192 352 170.464 352 144s-23.584-48-52.576-48H288v96h11.424zM256 224h-11.424C215.584 224 192 245.536 192 272s23.584 48 52.576 48H256v-96z"/><glyph unicode="" d="M480 256v96c0 17.664-14.336 32-32 32h-9.536l-10.784 66.56a15.826 15.826 0 01-6.432 10.4 15.574 15.574 0 01-11.904 2.816L61.44 407.328c-8.736-1.408-14.656-9.632-13.216-18.368l.8-4.96H32c-17.664 0-32-14.336-32-32V0c0-17.664 14.336-32 32-32h416c17.664 0 32 14.336 32 32v96c17.664 0 32 14.336 32 32v96c0 17.664-14.336 32-32 32zM32 352h416v-96H320c-17.664 0-32-14.336-32-32v-96c0-17.664 14.336-32 32-32h128V0H32v352zm85.376 32l281.28 45.664L406.048 384H117.376zM320 128v96h160v-96H320zm32 48a16 16 180 1132 0 16 16 180 11-32 0z"/><glyph unicode="" d="M64 384V128l4.736-11.84L128-32l64 160-.16.064c.096.096.064.256.16.352V416c0 35.36-28.64 64-64 64s-64-28.64-64-64v-32zm32 32c0 17.632 14.368 32 32 32s32-14.368 32-32v-32H96v32zm32-361.824L111.52 95.36l-6.4 16-.48 1.184 23.36 11.68 23.36-11.68-.48-1.216-6.4-16L128 54.176zM160 144l-32 16-32-16v208h64V144zm242.944 240.672L372.288 464l-.288-.096C369.76 473.056 361.856 480 352 480c-10.592 0-18.944-7.936-20.416-18.112l-.576.128-29.952-77.344L288 352V32c0-35.36 28.64-64 64-64s64 28.64 64 64c17.664 0 32 14.336 32 32v96c0 17.664-14.336 32-32 32v160l-13.056 32.672zM384 160V32c0-17.632-14.368-32-32-32s-32 14.368-32 32v320h64V160zm-15.264 224h-33.472L352 425.824 368.736 384z"/><glyph unicode="" d="M144.48 216a16.01 16.01 0 0112.64 6.176l70.464 90.72 48.256-56.672c3.072-3.552 6.528-5.12 12.256-5.632 4.64.032 9.12 2.08 12.16 5.728l112 133.408c5.696 6.752 4.8 16.832-1.984 22.528-6.752 5.728-16.832 4.768-22.528-1.984l-99.84-118.912-48.704 57.28c-3.168 3.648-8.992 5.344-12.544 5.6-4.832-.128-9.344-2.368-12.288-6.176l-82.528-106.24c-5.44-6.976-4.16-17.056 2.816-22.464 2.912-2.272 6.368-3.36 9.824-3.36zm351.168 264H48.352C39.328 480 32 472.832 32 464s7.328-16 16.352-16H64V160c0-17.664 14.336-32 32-32h160V78.048L165.248-4.16c-6.528-5.92-7.04-16.032-1.088-22.592 5.984-6.528 16.096-7.04 22.592-1.088L256 34.88V-16c0-8.832 7.168-16 16-16s16 7.168 16 16v50.88l69.248-62.72A15.951 15.951 0 01368-32c4.352 0 8.672 1.792 11.84 5.248 5.952 6.56 5.44 16.672-1.088 22.592L288 78.048V128h160c17.664 0 32 14.336 32 32v288h15.648c9.024 0 16.352 7.168 16.352 16s-7.328 16-16.352 16zM448 160H96v288h352V160z"/><glyph unicode="" d="M480 160v64c0 17.664-14.336 32-32 32H288v64h96c17.664 0 32 14.336 32 32v32c0 17.664-14.336 32-32 32H160c-17.664 0-32-14.336-32-32v-32c0-17.664 14.336-32 32-32h96v-64H96c-17.664 0-32-14.336-32-32v-64c-17.664 0-32-14.336-32-32V64c0-17.664 14.336-32 32-32h32c17.664 0 32 14.336 32 32v64c0 17.664-14.336 32-32 32v64h160v-64c-17.664 0-32-14.336-32-32V64c0-17.664 14.336-32 32-32h32c17.664 0 32 14.336 32 32v64c0 17.664-14.336 32-32 32v64h160v-64c-17.664 0-32-14.336-32-32V64c0-17.664 14.336-32 32-32h32c17.664 0 32 14.336 32 32v64c0 17.664-14.336 32-32 32zM160 384h224v-32H160v32zM96 96V64H64v64h32V96zm192-32h-32v64h32V64zm160 32v32h32V64h-32v32z"/><glyph unicode="" d="M32 0c0-17.664 14.336-32 32-32h384c17.664 0 32 14.336 32 32v448c0 17.664-14.336 32-32 32H64c-17.664 0-32-14.336-32-32V0zm32 448h384V0H64v448zm64-256h64V64h-64zm96 160h64V64h-64zm96-64h64V64h-64z"/><glyph unicode="" d="M480 352h-96v64c0 17.664-14.336 32-32 32H160c-17.664 0-32-14.336-32-32v-64H32c-17.664 0-32-14.336-32-32V32C0 14.336 14.336 0 32 0h448c17.664 0 32 14.336 32 32v288c0 17.664-14.336 32-32 32zM32 320h448V32H32v288zm128 96h192v-64H160v64z"/><glyph unicode="" d="M247.2-30.752c2.88-.832 5.856-1.248 8.8-1.248s5.92.416 8.8 1.248C462.848 25.824 492 226.016 479.776 324c-2.016 15.968-15.648 28-31.776 28-4.576.352-32 5.088-32 64 0 8.48-3.36 16.64-9.376 22.624C399.712 445.536 360 480 256 480s-143.712-34.464-150.624-41.376C99.36 432.64 96 424.48 96 416c0-58.912-27.424-63.648-32.928-64.032-16.128 0-28.832-12-30.848-28C20 226.016 49.184 25.824 247.2-30.752zM64 320s64 0 64 96c0 0 32 32 128 32s128-32 128-32c0-96 64-96 64-96S480 64 256 0C32 64 64 320 64 320zm192-160c17.664 0 32 14.336 32 32v160c0 17.664-14.336 32-32 32s-32-14.336-32-32V192c0-17.664 14.336-32 32-32zm-32-64a32 32 180 1164 0 32 32 180 11-64 0z"/><glyph unicode="" d="M256 480C114.624 480 0 365.376 0 224S114.624-32 256-32 512 82.624 512 224 397.376 480 256 480zm0-480C132.48 0 32 100.48 32 224s100.48 224 224 224 224-100.48 224-224S379.52 0 256 0zm-30.016 304.992c0 27.072-21.952 48.992-48.992 48.992S128 332.064 128 304.992 149.952 256 176.992 256s48.992 21.952 48.992 48.992zm-65.984 0c0 9.376 7.616 16.992 16.992 16.992s16.992-7.616 16.992-16.992S186.368 288 176.992 288 160 295.616 160 304.992zm175.008-111.008c-27.072 0-48.992-21.952-48.992-48.992S307.936 96 335.008 96 384 117.952 384 144.992s-21.952 48.992-48.992 48.992zm0-65.984c-9.376 0-16.992 7.616-16.992 16.992s7.616 16.992 16.992 16.992S352 154.368 352 144.992 344.384 128 335.008 128zm28.32 203.328c-6.24 6.24-16.384 6.24-22.624 0l-192-192c-6.24-6.24-6.24-16.384 0-22.624 3.104-3.136 7.2-4.704 11.296-4.704s8.192 1.568 11.328 4.672l192 192c6.24 6.272 6.24 16.384 0 22.656z"/><glyph unicode="" d="M481.888 133.792c-87.136-87.104-228.928-87.168-316.064 0-42.176 42.144-65.376 98.272-65.376 158.048s23.232 115.904 65.344 158.016c6.24 6.24 6.24 16.384 0 22.624s-16.384 6.24-22.624 0c-48.192-48.16-74.72-112.32-74.72-180.64s26.56-132.512 74.72-180.672C183.84 70.464 234.976 46.688 288 39.232V0h-48c-8.832 0-16-7.168-16-16s7.168-16 16-16h128c8.832 0 16 7.168 16 16s-7.168 16-16 16h-48v36.608c1.28-.032 2.56-.192 3.84-.192 65.408 0 130.848 24.896 180.672 74.72 6.24 6.24 6.24 16.384 0 22.624s-16.384 6.272-22.624.032zM323.84 480c-103.936 0-188.16-84.256-188.16-188.16s84.256-188.16 188.16-188.16S512 187.904 512 291.84 427.744 480 323.84 480zm0-344.32c-86.112 0-156.16 70.048-156.16 156.16S237.728 448 323.84 448 480 377.952 480 291.84s-70.048-156.16-156.16-156.16z"/><glyph unicode="" d="M272 448C139.456 448 32 340.544 32 208S139.456-32 272-32 512 75.456 512 208 404.544 448 272 448zm175.008-128h-47.68c-9.28 29.184-22.016 54.752-37.376 75.264 34.816-16.8 64.288-42.944 85.056-75.264zM288 320v93.376c30.24-8.928 59.712-42.464 77.856-93.376H288zm87.168-32c4.512-19.584 7.424-41.024 8.352-64H288v64h87.168zM256 413.376V320h-77.856c18.144 50.912 47.616 84.448 77.856 93.376zM256 288v-64h-95.52c.928 22.976 3.84 44.416 8.352 64H256zm-127.52-64H64.8c1.728 22.496 6.88 44.064 15.232 64h56.32c-4.288-20.256-6.976-41.664-7.872-64zm0-32c.896-22.336 3.584-43.744 7.872-64h-56.32c-8.352 19.936-13.504 41.504-15.232 64h63.68zm32 0H256v-64h-87.168c-4.512 19.584-7.424 41.024-8.352 64zM256 96V2.624C225.76 11.552 196.288 45.088 178.144 96H256zm32-93.376V96h77.856C347.712 45.088 318.24 11.552 288 2.624zM288 128v64h95.52c-.928-22.976-3.84-44.416-8.352-64H288zm127.52 64h63.68c-1.728-22.496-6.88-44.064-15.232-64h-56.32c4.288 20.256 6.976 41.664 7.872 64zm0 32c-.896 22.336-3.584 43.744-7.872 64h56.32c8.352-19.936 13.504-41.504 15.232-64h-63.68zM182.048 395.264c-15.328-20.512-28.096-46.08-37.376-75.264h-47.68c20.768 32.32 50.24 58.464 85.056 75.264zM96.992 96h47.68c9.28-29.184 22.016-54.752 37.376-75.264C147.232 37.536 117.76 63.68 96.992 96zm264.96-75.264C377.28 41.248 390.048 66.816 399.328 96h47.68c-20.768-32.32-50.24-58.464-85.056-75.264z"/></font>
</defs>
</svg>
